<svg width="51" height="59" viewBox="0 0 51 59" fill="none" xmlns="http://www.w3.org/2000/svg">
<g clip-path="url(#clip0_38_178)">
<rect width="51" height="59" fill="#376489"/>
<path d="M31.2157 58.9999H9.44719C8.58982 58.9999 7.77793 58.6221 7.22584 57.9643C6.67375 57.3064 6.43993 56.4434 6.58607 55.5934L8.41445 44.9378C8.60281 43.8371 8.31378 42.7103 7.6188 41.8473C5.8099 39.5905 2.53633 34.9986 0.941772 29.5829C-1.03925 22.8547 0.107144 16.97 4.34199 12.0982C10.6196 4.87826 18.5956 3.51699 24.1685 3.64074C26.3671 3.68959 28.543 4.03805 30.6409 4.67309C31.0598 4.8001 31.2969 5.243 31.1703 5.6631C31.0436 6.0832 30.6019 6.32093 30.183 6.19393C28.2247 5.60122 26.1885 5.27556 24.1327 5.22997C18.8944 5.11273 11.412 6.38607 5.5371 13.1435C-3.34179 23.3563 4.89733 35.9235 8.85288 40.854C9.8304 42.0753 10.2396 43.6612 9.97329 45.2081L8.14491 55.8637C8.07995 56.2513 8.18388 56.6421 8.43719 56.9417C8.6905 57.2413 9.05748 57.4139 9.44719 57.4139H31.2157C31.8458 57.4139 32.3913 56.9645 32.5148 56.3425L33.1513 53.0826C33.4241 51.6953 34.6387 50.702 36.0514 50.7411L41.7574 50.8616C42.566 50.8746 43.3617 50.6141 44.0014 50.1191L44.0631 50.0702C45.3167 49.0965 45.7746 47.39 45.1738 45.9181C44.638 44.6024 44.9043 43.0653 45.8526 42.0069L46.3559 41.4435L45.5895 40.5121C45.3719 40.2483 45.2745 39.9064 45.3167 39.5677C45.3589 39.229 45.544 38.9229 45.8201 38.7242L46.6774 38.1087L45.7097 35.7542C45.3135 34.7935 45.7681 33.683 46.7229 33.2759L49.1554 32.2436C49.321 32.1719 49.3794 32.0384 49.3989 31.9635C49.4184 31.8886 49.4346 31.742 49.3275 31.5987L43.7839 24.2616C42.9103 23.1055 42.6147 21.64 42.9752 20.2364L43.1311 19.6307C43.6377 17.6604 42.6699 15.2929 40.2537 12.5932C39.6951 11.9679 39.0943 11.3719 38.4676 10.8151C38.1396 10.5252 38.1103 10.0237 38.3994 9.69478C38.6884 9.36587 39.1885 9.33656 39.5165 9.62639C40.1888 10.2224 40.8351 10.8639 41.4326 11.5348C44.2223 14.6546 45.3102 17.5106 44.6639 20.028L44.5081 20.6337C44.271 21.5651 44.4658 22.5421 45.0439 23.3074L50.5875 30.6446C50.9643 31.1428 51.0877 31.7746 50.9253 32.3771C50.7629 32.9795 50.344 33.4648 49.7691 33.709L47.3367 34.7414C47.1776 34.8098 47.1029 34.9921 47.1678 35.1517L48.2428 37.7668C48.4604 38.2976 48.2882 38.9033 47.8206 39.2387L47.0412 39.7956L47.7621 40.6684C48.1454 41.1341 48.1324 41.8245 47.7297 42.2739L47.0217 43.0653C46.4761 43.6743 46.3235 44.5601 46.632 45.3188C47.4991 47.4487 46.8366 49.9172 45.0244 51.324L44.9627 51.3729C44.0404 52.0893 42.8908 52.4769 41.7184 52.4476L36.0124 52.3271C35.3694 52.3206 34.8205 52.7602 34.6971 53.3887L34.0606 56.6486C33.7943 58.0098 32.5959 58.9999 31.2125 58.9999H31.2157Z" fill="#C2D5E4"/>
<path d="M14.5979 23.314H8.66783C7.70979 23.314 6.92712 22.5324 6.92712 21.5685V13.9545C6.92712 12.9938 7.70654 12.209 8.66783 12.209H14.5979C15.5559 12.209 16.3386 12.9906 16.3386 13.9545V21.5685C16.3386 22.5292 15.5592 23.314 14.5979 23.314ZM8.66458 13.7982C8.58014 13.7982 8.50545 13.8699 8.50545 13.9578V21.5717C8.50545 21.6564 8.57689 21.7313 8.66458 21.7313H14.5947C14.6791 21.7313 14.7538 21.6597 14.7538 21.5717V13.9578C14.7538 13.8731 14.6823 13.7982 14.5947 13.7982H8.66458Z" fill="#C2D5E4"/>
<path d="M25.9222 23.3139H20.4306C19.3491 23.3139 18.4723 22.4313 18.4723 21.3501V9.26159C18.4723 8.17714 19.3524 7.29785 20.4306 7.29785H25.9222C27.0037 7.29785 27.8805 8.18039 27.8805 9.26159V21.3501C27.8805 22.4346 27.0004 23.3139 25.9222 23.3139ZM20.4306 8.88056C20.226 8.88056 20.0539 9.05316 20.0539 9.25833V21.3469C20.0539 21.552 20.226 21.7246 20.4306 21.7246H25.9222C26.1268 21.7246 26.299 21.552 26.299 21.3469V9.26159C26.299 9.05642 26.1268 8.88382 25.9222 8.88382H20.4306V8.88056Z" fill="#C2D5E4"/>
<path d="M37.2042 23.3141H32.2419C31.0143 23.3141 30.0173 22.3143 30.0173 21.0833V2.23078C30.0173 0.999779 31.0143 0 32.2419 0H37.2042C38.4318 0 39.4288 0.999779 39.4288 2.23078V21.0833C39.4288 22.3143 38.4318 23.3141 37.2042 23.3141ZM32.2419 1.58597C31.8879 1.58597 31.5989 1.87581 31.5989 2.23078V21.0833C31.5989 21.4383 31.8879 21.7281 32.2419 21.7281H37.2042C37.5582 21.7281 37.8473 21.4383 37.8473 21.0833V2.23078C37.8473 1.87581 37.5582 1.58597 37.2042 1.58597H32.2419Z" fill="#C2D5E4"/>
</g>
<defs>
<clipPath id="clip0_38_178">
<rect width="51" height="59" fill="white"/>
</clipPath>
</defs>
</svg>
