<svg width="41" height="59" viewBox="0 0 41 59" fill="none" xmlns="http://www.w3.org/2000/svg">
<g clip-path="url(#clip0_38_224)">
<path d="M25.3148 28.1942H17.4065C16.9558 28.1942 16.5271 27.9997 16.236 27.657C15.945 27.3174 15.8229 26.8667 15.8981 26.4282L16.5615 22.6184C16.6085 22.3591 16.5365 22.0905 16.3706 21.8867C15.1188 20.3523 11.3383 15.0111 15.1908 10.6517C17.5911 7.93479 20.633 7.42228 22.7611 7.46859C25.296 7.52416 27.7089 8.61093 29.3769 10.4448C30.5036 11.6829 30.9355 12.8499 30.6569 13.9089L30.6006 14.125C30.5505 14.3195 30.5912 14.5233 30.7133 14.6807L32.7287 17.305C32.954 17.5983 33.0291 17.9719 32.9321 18.3269C32.8351 18.682 32.5816 18.9691 32.2373 19.1142L31.6834 19.3458L31.9369 19.954C32.0809 20.2967 31.9995 20.6826 31.7429 20.9389C31.9807 21.2847 31.9557 21.7416 31.6678 22.0565L31.4111 22.3405C31.3329 22.427 31.311 22.5505 31.3548 22.6555C31.7491 23.6095 31.4487 24.7178 30.6225 25.3507L30.6006 25.3693C30.1812 25.6904 29.6555 25.8633 29.1235 25.8509L27.0517 25.8077L26.817 26.9747C26.6762 27.6817 26.044 28.1942 25.3148 28.1942ZM17.4002 26.6845H25.3148L25.5527 25.5175C25.6966 24.7981 26.3382 24.2794 27.083 24.301L29.1548 24.3443C29.3394 24.3473 29.524 24.2887 29.668 24.1775L29.6899 24.159C29.9778 23.9398 30.0811 23.5539 29.9434 23.2235C29.6993 22.6308 29.7963 21.9423 30.1906 21.439L30.1687 21.4143C30.006 21.2198 29.9309 20.9667 29.9653 20.7166C29.9997 20.4665 30.1374 20.2411 30.344 20.096H30.3502L30.1406 19.5959C29.8964 19.0154 30.1781 18.3455 30.7633 18.1016L31.2672 17.8916L29.5021 15.5946C29.0984 15.0667 28.9607 14.3967 29.1266 13.7545L29.1829 13.5384C29.3582 12.8623 28.7698 12.0287 28.2441 11.4513C26.8545 9.92307 24.8454 9.02155 22.7267 8.97215C20.0979 8.91349 17.9542 9.81192 16.3393 11.6397C13.3475 15.0234 16.1954 19.2748 17.5567 20.945C17.998 21.4853 18.1826 22.1893 18.0637 22.8747L17.4002 26.6845Z" fill="#C1989F"/>
<path d="M22.5983 36.2614C19.9539 36.2614 17.2719 35.6964 14.7307 34.5047C10.2993 32.4238 6.95381 28.7652 5.31394 24.2021C3.67406 19.6389 3.93068 14.7176 6.03999 10.3459C8.14929 5.97413 11.8578 2.67371 16.4832 1.05592C21.1087 -0.564957 26.094 -0.308704 30.5286 1.7722C39.6762 6.06675 43.5756 16.9035 39.2224 25.9279C36.0772 32.4454 29.4739 36.2614 22.6046 36.2614H22.5983ZM22.639 1.50359C20.7394 1.50359 18.8335 1.82468 16.9902 2.46995C12.7497 3.95498 9.34791 6.98062 7.41385 10.9911C5.4798 15.0017 5.24509 19.5123 6.75039 23.6957C8.2557 27.8792 11.3226 31.2351 15.3879 33.1432C17.7194 34.2361 20.1792 34.7548 22.6015 34.7548C28.9044 34.7548 34.9569 31.2537 37.8423 25.2765C41.8356 16.9992 38.2585 7.06398 29.8682 3.12447C27.5712 2.04697 25.1114 1.50359 22.639 1.50359Z" fill="#C1989F"/>
<path d="M5.54864 58.9998C4.7506 58.9998 3.93693 58.83 3.17019 58.4688C0.403684 57.169 -0.776149 53.8902 0.541384 51.1609L10.0426 31.4665C10.2242 31.0929 10.6779 30.9323 11.0597 31.1114C11.4384 31.2905 11.6012 31.7381 11.4196 32.1148L1.91838 51.8093C0.963871 53.7914 1.81823 56.1687 3.82739 57.1134C5.83655 58.0581 8.24629 57.2122 9.20393 55.2301L18.7052 35.5356C18.8867 35.159 19.3405 35.0015 19.7223 35.1806C20.101 35.3597 20.2637 35.8073 20.0822 36.184L10.5809 55.8784C9.62955 57.8513 7.6329 59.006 5.55489 59.006L5.54864 58.9998Z" fill="#C1989F"/>
<path d="M10.6842 52.0658C6.11821 52.0658 2.86976 47.7588 2.71954 47.5582C2.47231 47.2216 2.54428 46.7524 2.8854 46.5085C3.22339 46.2646 3.70221 46.3356 3.94944 46.6721C3.98387 46.7184 7.48582 51.3402 11.839 50.448C12.2521 50.3646 12.6558 50.6239 12.7403 51.0315C12.8248 51.439 12.5619 51.8373 12.1488 51.9206C11.6481 52.0225 11.1568 52.0688 10.6811 52.0688L10.6842 52.0658Z" fill="#C1989F"/>
<path d="M22.5983 32.3189C20.4828 32.3189 18.3766 31.8527 16.4081 30.9296C9.22584 27.5581 6.16203 19.0493 9.58261 11.9607C11.2381 8.52748 14.1517 5.93716 17.782 4.66515C21.4122 3.39315 25.3304 3.59383 28.8105 5.22706C32.2905 6.86029 34.9162 9.73465 36.2055 13.316C37.4949 16.8974 37.2915 20.7628 35.636 24.196C33.9804 27.6292 31.0668 30.2195 27.4366 31.4915C25.8593 32.0441 24.2257 32.3189 22.5983 32.3189ZM22.6171 5.34438C21.1619 5.34438 19.7035 5.59137 18.2921 6.08535C15.0436 7.22151 12.4399 9.54014 10.9596 12.609C7.90205 18.9474 10.6404 26.5578 17.0653 29.5742C23.4903 32.5906 31.2045 29.8891 34.2621 23.5507C35.7424 20.4818 35.9239 17.024 34.7722 13.8223C33.6205 10.6176 31.2703 8.04893 28.1595 6.5886C26.4007 5.76118 24.5167 5.34747 22.6234 5.34747L22.6171 5.34438Z" fill="#C1989F"/>
</g>
<defs>
<clipPath id="clip0_38_224">
<rect width="41" height="59" fill="white"/>
</clipPath>
</defs>
</svg>
