<svg width="55" height="63" viewBox="0 0 55 63" fill="none" xmlns="http://www.w3.org/2000/svg">
<g clip-path="url(#clip0_38_239)">
<path d="M45.0371 52.4029C40.7971 52.4029 37.6256 47.6105 37.6256 43.3277C37.6256 39.0448 40.869 35.6777 45.0097 35.6777C49.1503 35.6777 52.3903 39.0379 52.3903 43.3277C52.3903 47.6174 49.2462 52.4029 45.0371 52.4029ZM45.0097 37.3578C41.804 37.3578 39.2936 39.9812 39.2936 43.3311C39.2936 46.681 41.8554 50.7297 45.0371 50.7297C48.2188 50.7297 50.7223 46.7533 50.7223 43.3311C50.7223 39.909 48.2119 37.3578 45.0062 37.3578H45.0097Z" fill="#C1989F"/>
<path d="M44.9754 62.8932H36.2523C35.7933 62.8932 35.42 62.518 35.42 62.0532C35.42 59.3403 36.879 56.8201 39.2285 55.4809L41.5334 54.1657C42.0677 53.8628 42.3999 53.2878 42.3999 52.6715V51.6628C42.3999 51.2015 42.7732 50.8228 43.2321 50.8228C43.6911 50.8228 44.0644 51.198 44.0644 51.6628V52.6715C44.0644 53.8903 43.4102 55.023 42.3554 55.622L40.0504 56.9372C38.4682 57.8392 37.4064 59.4298 37.1496 61.2097H44.9788C45.4378 61.2097 45.8111 61.585 45.8111 62.0498C45.8111 62.5145 45.4378 62.8898 44.9788 62.8898L44.9754 62.8932Z" fill="#C1989F"/>
<path d="M54.1678 62.8932H45.4446C44.9857 62.8932 44.6124 62.518 44.6124 62.0532C44.6124 61.5884 44.9857 61.2131 45.4446 61.2131H53.2739C53.017 59.4332 51.9553 57.8426 50.373 56.9406L48.0681 55.6255C47.0132 55.023 46.3591 53.8937 46.3591 52.675V51.6662C46.3591 51.2049 46.7324 50.8262 47.1913 50.8262C47.6502 50.8262 48.0235 51.2014 48.0235 51.6662V52.675C48.0235 53.2912 48.3558 53.8627 48.89 54.1691L51.195 55.4843C53.5444 56.8235 55.0034 59.3402 55.0034 62.0566C55.0034 62.518 54.6301 62.8967 54.1712 62.8967L54.1678 62.8932Z" fill="#C1989F"/>
<path d="M27.5428 52.5133C23.3028 52.5133 20.1314 47.7209 20.1314 43.438C20.1314 39.1552 23.3747 35.7881 27.5154 35.7881C31.6561 35.7881 34.896 39.1483 34.896 43.438C34.896 47.7278 31.752 52.5133 27.5428 52.5133ZM27.5154 37.4647C24.3097 37.4647 21.7993 40.0882 21.7993 43.438C21.7993 46.7879 24.3611 50.8366 27.5428 50.8366C30.7245 50.8366 33.2281 46.8602 33.2281 43.438C33.2281 40.0159 30.7177 37.4647 27.512 37.4647H27.5154Z" fill="#C1989F"/>
<path d="M27.4812 63.0002H18.758C18.2991 63.0002 17.9258 62.6249 17.9258 62.1601C17.9258 59.4472 19.3848 56.9271 21.7342 55.5878L24.0392 54.2727C24.5735 53.9697 24.9057 53.3947 24.9057 52.7785V51.7697C24.9057 51.3084 25.279 50.9297 25.7379 50.9297C26.1968 50.9297 26.5702 51.305 26.5702 51.7697V52.7785C26.5702 53.9972 25.916 55.1299 24.8611 55.729L22.5562 57.0441C20.9739 57.9461 19.9122 59.5367 19.6553 61.3201H27.4846C27.9435 61.3201 28.3168 61.6954 28.3168 62.1601C28.3168 62.6249 27.9435 63.0002 27.4846 63.0002H27.4812Z" fill="#C1989F"/>
<path d="M36.6735 63.0002H27.9504C27.4914 63.0002 27.1181 62.6249 27.1181 62.1601C27.1181 61.6953 27.4914 61.3201 27.9504 61.3201H35.7796C35.5228 59.5401 34.4611 57.9496 32.8788 57.0475L30.5738 55.7324C29.519 55.1299 28.8648 54.0006 28.8648 52.7819V51.7732C28.8648 51.3118 29.2381 50.9331 29.6971 50.9331C30.156 50.9331 30.5293 51.3084 30.5293 51.7732V52.7819C30.5293 53.3982 30.8615 53.9697 31.3958 54.2761L33.7007 55.5912C36.0502 56.9305 37.5092 59.4472 37.5092 62.1636C37.5092 62.6249 37.1359 63.0036 36.6769 63.0036L36.6735 63.0002Z" fill="#C1989F"/>
<path d="M9.61703 52.5133C5.37704 52.5133 2.20561 47.7209 2.20561 43.438C2.20561 39.1552 5.44896 35.7881 9.58963 35.7881C13.7303 35.7881 16.9702 39.1483 16.9702 43.438C16.9702 47.7278 13.8262 52.5133 9.61703 52.5133ZM9.58963 37.4647C6.38395 37.4647 3.87352 40.0882 3.87352 43.438C3.87352 46.7879 6.43533 50.8366 9.61703 50.8366C12.7987 50.8366 15.3023 46.8602 15.3023 43.438C15.3023 40.0159 12.7919 37.4647 9.58963 37.4647Z" fill="#C1989F"/>
<path d="M9.55539 63.0002H0.832244C0.373311 63.0002 0 62.6249 0 62.1601C0 59.4472 1.45899 56.9271 3.80846 55.5878L6.11339 54.2727C6.64767 53.9697 6.97989 53.3947 6.97989 52.7785V51.7697C6.97989 51.3084 7.3532 50.9297 7.81213 50.9297C8.27106 50.9297 8.64437 51.305 8.64437 51.7697V52.7785C8.64437 53.9972 7.99022 55.1299 6.93536 55.729L4.63043 57.0441C3.04814 57.9461 1.98643 59.5367 1.72956 61.3167H9.55881C10.0177 61.3167 10.3911 61.6919 10.3911 62.1567C10.3911 62.6215 10.0177 62.9967 9.55881 62.9967L9.55539 63.0002Z" fill="#C1989F"/>
<path d="M18.7477 63.0002H10.0246C9.56566 63.0002 9.19235 62.6249 9.19235 62.1601C9.19235 61.6954 9.56566 61.3201 10.0246 61.3201H17.8539C17.597 59.5402 16.5353 57.9496 14.953 57.0441L12.648 55.729C11.5932 55.1265 10.939 53.9972 10.939 52.7785V51.7697C10.939 51.3084 11.3123 50.9297 11.7713 50.9297C12.2302 50.9297 12.6035 51.305 12.6035 51.7697V52.7785C12.6035 53.3947 12.9357 53.9662 13.47 54.2727L15.775 55.5878C18.1244 56.9271 19.58 59.4438 19.58 62.1601C19.58 62.6215 19.2067 63.0002 18.7477 63.0002Z" fill="#C1989F"/>
<path d="M35.9783 17.1829C35.6015 17.1829 34.8001 17.09 34.2795 16.3739C33.55 15.372 33.9268 12.9655 34.122 11.9774C34.211 11.5229 34.6528 11.2269 35.1015 11.3198C35.5536 11.4093 35.8481 11.85 35.7591 12.3045C35.5056 13.6024 35.444 15.0725 35.6324 15.3892C35.7146 15.4994 35.9509 15.5097 36.0091 15.5063C36.4715 15.4581 36.8722 15.7886 36.9235 16.2465C36.9749 16.7078 36.6393 17.1209 36.1803 17.1726C36.1529 17.1726 36.0844 17.1829 35.9817 17.1829H35.9783Z" fill="#C1989F"/>
<path d="M35.7728 20.9565C34.8344 20.9565 34.146 20.6122 33.8343 20.4539C33.8138 20.4435 33.8001 20.4367 33.7829 20.4263C33.4336 20.3265 33.1767 20.0029 33.1767 19.6207C33.1767 19.1559 33.55 18.7807 34.009 18.7807C34.2384 18.7807 34.4028 18.8633 34.5775 18.9528C35.0056 19.1697 35.8995 19.6173 37.2044 18.8289C37.5982 18.5913 38.112 18.7187 38.3483 19.1181C38.5846 19.514 38.4579 20.0304 38.0606 20.268C37.2009 20.7878 36.4201 20.9565 35.7659 20.9565H35.7728Z" fill="#C1989F"/>
<path d="M31.2246 9.90131C29.245 9.90131 28.0223 9.42964 27.3647 9.05782C26.803 8.74108 26.5393 8.0835 26.7277 7.4638C26.8099 7.19526 28.7997 0.832944 34.9131 0.106511C38.499 -0.320397 43.078 0.309637 44.5165 5.73206C44.5473 5.84912 44.5541 5.96962 44.5336 6.08323C44.561 6.65818 44.4994 7.4156 44.4548 7.93546L44.4343 8.18335C44.3966 8.67567 44.0986 9.11291 43.6534 9.32292C43.2048 9.53293 42.6773 9.48817 42.2732 9.19898C42.2321 9.16799 42.191 9.13356 42.1533 9.09569L40.5334 7.40183C39.6326 7.96989 37.9715 8.73764 34.9885 9.4262C33.5089 9.76704 32.2623 9.89787 31.2246 9.89787V9.90131ZM28.4059 7.71168C29.2073 8.08695 31.0978 8.60681 34.6186 7.79431C37.6119 7.1023 39.0983 6.36898 39.8176 5.87322C40.2868 5.5496 40.9169 5.55648 41.3827 5.89043C41.4272 5.92142 41.4649 5.95585 41.5026 5.99372L42.828 7.38117C42.8623 6.91983 42.8931 6.37587 42.8588 6.04536C42.8588 6.0247 42.8588 6.00405 42.8554 5.98339C42.465 4.55807 41.256 1.0464 35.1084 1.77627C30.6115 2.30991 28.7963 6.62375 28.4059 7.71512V7.71168Z" fill="#C1989F"/>
<path d="M35.8926 24.7742C35.8276 24.7742 35.7625 24.7742 35.7009 24.7673C33.759 24.6365 31.9951 23.8722 30.8581 22.6741C28.9778 20.6876 28.1113 17.9437 27.9606 13.499C27.9195 12.2837 27.923 11.3748 27.9264 10.2249C27.9264 9.84621 27.9264 9.4434 27.9264 8.99239C27.9264 8.54138 28.2997 8.15234 28.7586 8.15234C29.2176 8.15234 29.5909 8.52761 29.5909 8.99239C29.5909 9.45717 29.5909 9.85309 29.5909 10.2318C29.5875 11.3645 29.584 12.2562 29.6251 13.4439C29.7587 17.441 30.4882 19.8579 32.0602 21.5173C32.9096 22.4159 34.2761 22.9909 35.807 23.0941C35.8687 23.0976 35.9303 23.0941 35.9885 23.0941H36.0365C37.54 22.9805 38.8894 22.409 39.7285 21.5208C41.3039 19.8579 42.03 17.4445 42.1636 13.4474C42.2047 12.2631 42.2013 11.3679 42.1978 10.2318C42.1978 9.85309 42.1978 9.44684 42.1978 8.99583C42.1978 8.54482 42.5711 8.15579 43.0301 8.15579C43.489 8.15579 43.8623 8.53105 43.8623 8.99583C43.8623 9.46061 43.8623 9.84965 43.8623 10.2249C43.8658 11.3748 43.8692 12.2837 43.8281 13.5025C43.6774 17.9471 42.8143 20.6911 40.9341 22.6776C39.8107 23.8653 38.064 24.6262 36.1427 24.7673H36.081C36.0125 24.7742 35.944 24.7777 35.879 24.7777L35.8926 24.7742Z" fill="#C1989F"/>
<path d="M39.2319 13.5473C38.773 13.5473 38.3997 13.172 38.3997 12.7073V11.6882C38.3997 11.2234 38.773 10.8481 39.2319 10.8481C39.6908 10.8481 40.0641 11.2234 40.0641 11.6882V12.7073C40.0641 13.1686 39.6908 13.5473 39.2319 13.5473Z" fill="#C1989F"/>
<path d="M31.7554 13.5473C31.2965 13.5473 30.9232 13.172 30.9232 12.7073V11.6882C30.9232 11.2234 31.2965 10.8481 31.7554 10.8481C32.2143 10.8481 32.5876 11.2234 32.5876 11.6882V12.7073C32.5876 13.1686 32.2143 13.5473 31.7554 13.5473Z" fill="#C1989F"/>
<path d="M47.6057 37.8434C47.1536 37.8434 46.7837 37.4819 46.7735 37.024L46.7187 34.6588C46.4584 32.1077 44.7185 29.9731 42.2766 29.2226L40.6429 28.72C39.1291 28.2552 38.112 26.8712 38.1085 25.2806V23.3698C38.1017 22.905 38.475 22.5298 38.9374 22.5298C39.3963 22.5298 39.7696 22.9051 39.7696 23.3664V25.2771C39.7765 26.1275 40.321 26.8677 41.1293 27.1156L42.7629 27.6183C45.8624 28.5719 48.0646 31.2849 48.3797 34.528C48.3797 34.5486 48.3797 34.5693 48.3832 34.59L48.4379 36.9896C48.4482 37.4509 48.0852 37.8365 47.6228 37.8469C47.616 37.8469 47.6091 37.8469 47.6023 37.8469L47.6057 37.8434Z" fill="#C1989F"/>
<path d="M24.4639 33.9255C24.4433 33.9255 24.4262 33.9255 24.4056 33.9255C23.9467 33.8946 23.5974 33.4952 23.6282 33.0339C23.8063 30.3863 26.6626 28.2656 29.269 27.6045L30.8821 27.1088C31.6903 26.8609 32.2349 26.1207 32.2383 25.2703V23.3596C32.2452 22.8982 32.6185 22.5229 33.0774 22.5229C33.5363 22.5229 33.9097 22.9017 33.9097 23.363V25.2738C33.9028 26.8643 32.8822 28.2449 31.3718 28.7131L29.7382 29.2158C29.7382 29.2158 29.7108 29.2227 29.6936 29.2295C27.375 29.8079 25.3988 31.5672 25.2927 33.1509C25.2619 33.595 24.8954 33.9324 24.4604 33.9324L24.4639 33.9255Z" fill="#C1989F"/>
<path d="M17.6278 33.9769C17.1689 33.9769 16.7956 33.6017 16.7956 33.1369V24.072C16.7956 23.6106 17.1689 23.2319 17.6278 23.2319C18.0867 23.2319 18.4601 23.6072 18.4601 24.072V33.1369C18.4601 33.5982 18.0867 33.9769 17.6278 33.9769Z" fill="#C1989F"/>
<path d="M14.3023 26.8573C14.0146 26.8573 13.7337 26.7092 13.5796 26.4407C13.3467 26.0413 13.4837 25.5283 13.881 25.2942L21.8233 20.6533C22.2206 20.4192 22.7309 20.5569 22.9638 20.9563C23.1967 21.3557 23.0597 21.8686 22.6624 22.1027L14.7201 26.7437C14.5865 26.8194 14.4427 26.8573 14.3023 26.8573Z" fill="#C1989F"/>
<path d="M40.2765 38.401C39.8175 38.401 39.4442 38.0257 39.4442 37.5609V34.4624C39.4442 34.1939 39.225 33.9735 38.9579 33.9735H10.7918C10.5246 33.9735 10.3054 34.1939 10.3054 34.4624V36.5901C10.3054 37.0548 9.93212 37.4301 9.47319 37.4301C9.01426 37.4301 8.64095 37.0548 8.64095 36.5901V34.4624C8.64095 33.2677 9.60676 32.2969 10.7952 32.2969H38.9613C40.1498 32.2969 41.1156 33.2677 41.1156 34.4624V37.5609C41.1156 38.0257 40.7423 38.401 40.2833 38.401H40.2765Z" fill="#C1989F"/>
</g>
<defs>
<clipPath id="clip0_38_239">
<rect width="55" height="63" fill="white"/>
</clipPath>
</defs>
</svg>
