<svg width="35" height="59" viewBox="0 0 35 59" fill="none" xmlns="http://www.w3.org/2000/svg">
<g clip-path="url(#clip0_38_230)">
<path d="M19.5703 28.2978H15.4655C13.8796 28.2978 12.4874 27.1544 12.1595 25.5814L11.5454 22.6534C11.4471 22.1815 11.1728 21.761 10.7793 21.4676C7.64926 19.1506 5.77719 15.5722 5.77719 11.8939C5.77719 5.44793 10.7465 0.227016 17.0901 0.00620049C20.3066 -0.108744 23.4665 1.1617 25.7589 3.47875C28.0513 5.79579 29.3093 8.99913 29.2109 12.263C29.0976 16.0138 27.2076 19.5317 24.1611 21.6733C23.7467 21.9667 23.4635 22.4053 23.3711 22.9165L22.8941 25.4967C22.5931 27.1181 21.1979 28.2947 19.5703 28.2947V28.2978ZM17.4985 1.47326C17.3793 1.47326 17.26 1.47326 17.1378 1.47931C11.5812 1.6729 7.22596 6.2465 7.22596 11.8939C7.22596 15.1003 8.87148 18.234 11.6319 20.2758C12.3175 20.784 12.7915 21.519 12.9644 22.3448L13.5785 25.2729C13.7663 26.1713 14.5592 26.8216 15.4655 26.8216H19.5703C20.4974 26.8216 21.2963 26.1501 21.4662 25.2245L21.9432 22.6443C22.1071 21.752 22.602 20.9776 23.3353 20.4634C26.0063 18.5879 27.6608 15.5056 27.7591 12.2176C27.8486 9.31674 26.7724 6.58226 24.7334 4.5193C22.7809 2.54406 20.2231 1.46721 17.4985 1.46721V1.47326Z" fill="#C1989F"/>
<path d="M21.1711 35.1127H13.9153C13.5487 35.1127 13.2416 34.8374 13.1939 34.4684L12.3593 27.7018C12.3324 27.4931 12.398 27.2813 12.5351 27.124C12.6723 26.9667 12.872 26.876 13.0807 26.876H21.9641C22.1727 26.876 22.3695 26.9667 22.5066 27.124C22.6437 27.2813 22.7093 27.49 22.6855 27.6987L21.8955 34.4654C21.8508 34.8374 21.5437 35.1157 21.1741 35.1157L21.1711 35.1127ZM14.5563 33.6396H20.5272L21.1473 28.3461H13.9034L14.5563 33.6396Z" fill="#C1989F"/>
<path d="M17.5701 37.5144C15.3969 37.5144 14.5801 35.7902 14.5622 34.6317C14.5563 34.2264 14.8752 33.8906 15.2777 33.8846C15.6801 33.8785 16.005 34.1992 16.014 34.6045C16.0259 34.9433 16.172 36.0443 17.5701 36.0443C19.0576 36.0443 19.1202 34.541 19.1232 34.3685C19.1291 33.9662 19.4511 33.6426 19.8475 33.6426C19.8505 33.6426 19.8535 33.6426 19.8565 33.6426C20.2589 33.6486 20.5779 33.9814 20.5719 34.3897C20.554 35.6481 19.7402 37.5205 17.5671 37.5205L17.5701 37.5144Z" fill="#C1989F"/>
<path d="M21.347 31.7881H13.7514C13.3519 31.7881 13.024 31.4584 13.024 31.0501C13.024 30.6417 13.3489 30.312 13.7514 30.312H21.347C21.7464 30.312 22.0744 30.6417 22.0744 31.0501C22.0744 31.4584 21.7494 31.7881 21.347 31.7881Z" fill="#C1989F"/>
<path d="M19.0188 27.9042C18.9592 27.9042 18.8996 27.8981 18.84 27.88C18.4524 27.7802 18.2169 27.3779 18.3153 26.9846L20.6405 17.7467L19.466 18.6783C19.2961 18.8114 19.0755 18.8629 18.8638 18.8175C18.6522 18.7721 18.4733 18.6299 18.3749 18.4363L17.4627 16.6456L16.1243 18.4878C16.002 18.6541 15.8172 18.763 15.6145 18.7842C15.4088 18.8054 15.2061 18.7388 15.0541 18.5997L14.4191 18.0219L16.6758 26.9907C16.7741 27.3839 16.5416 27.7862 16.1511 27.886C15.7636 27.9858 15.3671 27.7499 15.2687 27.3537L12.4189 16.0255C12.3384 15.7109 12.4725 15.3812 12.7468 15.2118C13.021 15.0425 13.3698 15.0787 13.6083 15.2935L15.4297 16.9572L16.9858 14.8156C17.1348 14.6099 17.3763 14.498 17.6267 14.5191C17.8771 14.5403 18.0977 14.6885 18.214 14.9154L19.2633 16.9723L21.4245 15.2633C21.6689 15.0697 22.0088 15.0545 22.2681 15.227C22.5275 15.3994 22.6497 15.72 22.5752 16.0255L19.7253 27.3537C19.6419 27.6864 19.3467 27.9072 19.0218 27.9072L19.0188 27.9042Z" fill="#C1989F"/>
<path d="M18.6313 46.2292H16.3449C15.4833 46.2292 14.7411 45.6 14.5413 44.6986L13.8289 41.4831C13.6918 40.857 13.8319 40.2187 14.2194 39.7287C14.5712 39.281 15.0869 39.0239 15.6354 39.0239H19.311C19.8535 39.0239 20.3662 39.278 20.718 39.7196C21.1025 40.2036 21.2486 40.8388 21.1174 41.4589L20.4408 44.6744C20.247 45.5879 19.5047 46.2292 18.6313 46.2292ZM15.6324 40.497C15.4983 40.497 15.4058 40.5787 15.3522 40.6483C15.2449 40.7844 15.2061 40.975 15.2449 41.1595L15.9573 44.3749C16.008 44.5988 16.166 44.756 16.3449 44.756H18.6313C18.8101 44.756 18.9741 44.5927 19.0218 44.3689L19.6985 41.1534C19.7372 40.9719 19.6985 40.7814 19.5882 40.6483C19.5345 40.5817 19.4421 40.5001 19.308 40.5001H15.6324V40.497Z" fill="#C1989F"/>
<path d="M17.5581 58.026C16.8814 58.026 16.2793 57.6479 15.9454 57.0157L13.5397 52.4542C13.2983 51.9975 13.2357 51.4651 13.3609 50.9539L14.5294 46.2321C14.7441 45.3609 15.4834 44.7529 16.321 44.7529H18.685C19.5077 44.7529 20.241 45.3458 20.4676 46.1928L21.7375 50.9267C21.8746 51.4409 21.815 52.0005 21.5676 52.4663L19.1679 57.0127C18.834 57.6449 18.2318 58.023 17.5552 58.023L17.5581 58.026ZM16.321 46.2291C16.1481 46.2291 15.9901 46.3803 15.9365 46.5951L14.7679 51.3169C14.7292 51.4681 14.75 51.6284 14.8186 51.7615L17.2243 56.323C17.3316 56.5257 17.4777 56.556 17.5581 56.556C17.6386 56.556 17.7847 56.5257 17.892 56.323L20.2917 51.7767C20.3633 51.6405 20.3812 51.4742 20.3394 51.3199L19.0695 46.586C19.0129 46.3773 18.8579 46.2321 18.6879 46.2321H16.324L16.321 46.2291Z" fill="#C1989F"/>
<path d="M31.2857 59H31.2797L3.71135 58.9516C2.71271 58.9516 1.7737 58.5523 1.07018 57.8294C0.369641 57.1095 -0.0119274 56.1506 -3.39784e-06 55.1373L0.0834648 48.047C0.0834648 48.0258 0.0834648 48.0046 0.0864458 47.9835C0.518692 43.4583 3.56826 39.6711 7.85495 38.3402L10.2099 37.6082C11.5782 37.1817 12.4994 35.9203 12.5023 34.4684C12.5023 34.4502 12.5023 34.4321 12.5023 34.4139L12.708 31.631C12.7378 31.2257 13.0866 30.9232 13.4861 30.9504C13.8855 30.9807 14.1866 31.3346 14.1568 31.7399L13.9541 34.4986C13.9392 36.5888 12.6067 38.4037 10.6332 39.0147L8.27825 39.7467C4.56392 40.9022 1.91976 44.1751 1.53223 48.0954L1.44877 55.1524C1.4428 55.7695 1.67234 56.3533 2.10161 56.7949C2.53087 57.2365 3.10024 57.4785 3.71135 57.4785L31.2797 57.5269H31.2827C31.8968 57.5269 32.4721 57.2819 32.9014 56.8372C33.3306 56.3895 33.5602 55.7997 33.5482 55.1766L33.3873 48.1165C33.0027 44.1963 30.3556 40.9204 26.6413 39.7649L24.2863 39.0329C22.3128 38.4188 20.9833 36.6069 20.9654 34.5167L20.7627 31.7581C20.7329 31.3527 21.034 30.9988 21.4334 30.9686C21.8359 30.9383 22.1817 31.2438 22.2115 31.6492L22.4172 34.4321C22.4172 34.4502 22.4172 34.4684 22.4172 34.4865C22.4201 35.9384 23.3413 37.1998 24.7096 37.6263L27.0646 38.3583C31.3512 39.6893 34.3978 43.4764 34.8331 48.0016C34.8331 48.0197 34.8331 48.0379 34.836 48.056L34.997 55.1433C35.0209 56.1687 34.6453 57.1367 33.9388 57.8687C33.2323 58.6007 32.2903 59.003 31.2827 59.003L31.2857 59Z" fill="#C1989F"/>
</g>
<defs>
<clipPath id="clip0_38_230">
<rect width="35" height="59" fill="white"/>
</clipPath>
</defs>
</svg>
