<svg width="35" height="36" viewBox="0 0 35 36" fill="none" xmlns="http://www.w3.org/2000/svg">
<path d="M17.4997 0.5V35.5C27.1651 35.5 35 27.665 35 18.0003C35 8.33441 27.165 0.5 17.4997 0.5Z" fill="#F1E1E4"/>
<path d="M17.4997 0.5C7.835 0.5 0 8.33471 0 18C0 27.6647 7.835 35.5 17.4997 35.5C27.165 35.5 27.165 0.5 17.4997 0.5Z" fill="#F1E1E4"/>
<path d="M12.0016 27.3263L13.1817 25.8551L11.3586 26.1854L10.7261 24.4194L10.0386 26.1854L8.17733 25.8551L9.36024 27.2939L8.13204 28.7311L10.004 28.4371L10.6354 30.1665L11.3232 28.4379L13.2325 28.7791L12.0016 27.3263ZM25.9506 28.6258L26.6198 27.7921L25.5864 27.9792L25.228 26.9786L24.8384 27.9792L23.7837 27.7921L24.454 28.6069L23.7583 29.4218L24.8188 29.255L25.1766 30.2345L25.5662 29.2555L26.6483 29.4489L25.9506 28.6258ZM25.9506 10.2046L26.6198 9.37064L25.5864 9.55795L25.228 8.55741L24.8384 9.55795L23.7837 9.37064L24.454 10.186L23.7583 11.0004L24.8188 10.8337L25.1766 11.8138L25.5662 10.8343L26.6483 11.0274L25.9506 10.2046ZM30.2799 14.9699L30.9486 14.136L29.9158 14.3233L29.5573 13.3228L29.1678 14.3233L28.1125 14.136L28.7828 14.9514L28.0871 15.766L29.1476 15.5991L29.5054 16.5792L29.895 15.5996L30.9771 15.7928L30.2799 14.9699ZM22.2056 17.0885L22.8749 16.2548L21.8415 16.4421L21.4831 15.4416L21.0935 16.4421L20.039 16.2548L20.7092 17.0696L20.0136 17.8845L21.0742 17.7179L21.432 18.6971L21.8216 17.7184L22.9037 17.9116L22.2056 17.0885Z" fill="#F1E1E4"/>
<path d="M3.67529 7.27667C3.40012 7.63061 3.13836 7.99478 2.89058 8.3684H4.7665L3.67529 7.27667ZM12.7123 18H14.3981L12.7123 16.3142V18ZM7.12425 3.90892C6.72274 4.20514 6.33622 4.51932 5.96182 4.84784L7.12425 6.00976V3.90892ZM5.43794 18H7.12425V16.3136L5.43794 18ZM17.4997 0.5C15.8391 0.5 14.2348 0.736226 12.7123 1.1687V6.00976L17.5003 1.22198L17.4997 0.5ZM17.5003 16.3866V13.9569H15.0706L17.5003 16.3866ZM0.722053 18L4.76591 13.9569H0.474965C0.167435 15.2553 0 16.6079 0 18L0.722053 18ZM15.069 8.3684H17.5003V5.93764L15.069 8.3684Z" fill="#F1E1E4"/>
<path d="M17.5007 16.8969L17.5003 16.3866L15.0706 13.9569H17.5003L17.5007 13.0868H13.6906L17.5007 16.8969ZM4.7665 8.3684H2.89058C2.70341 8.65292 2.52499 8.94281 2.35465 9.23772H6.03992L3.85255 7.05094C3.79283 7.12555 3.73364 7.20099 3.67529 7.27667L4.7665 8.3684ZM7.12425 16.3136V18H7.99431V15.0407L5.03524 18H5.43794L7.12425 16.3136ZM12.7123 1.1687C12.4202 1.25165 12.1308 1.34183 11.8434 1.43973V7.28273L17.5007 1.62571L17.5003 1.22198L12.7123 6.00976V1.1687ZM7.09403 13.9569L7.1247 13.9263L7.96387 13.0871H0.704763C0.620765 13.375 0.543844 13.665 0.474965 13.9569H4.76591L0.722053 18H3.05077L7.09403 13.9569ZM17.5007 9.23801L17.5003 8.3684H15.069L17.5003 5.93764L17.5007 3.60996L11.8724 9.23801H17.5007Z" fill="#F1E1E4"/>
<path d="M7.12425 6.00976L5.96182 4.84784C5.54926 5.21012 5.15395 5.59188 4.77721 5.99128L7.12425 8.33833L7.14915 8.36375L7.99387 9.20846V3.30989C7.69823 3.50193 7.40696 3.70003 7.12425 3.90892V6.00976ZM12.7123 16.3142L14.3981 18L16.6191 18L11.8426 13.2239V18L12.7123 18V16.3142Z" fill="#F1E1E4"/>
<path d="M14.5589 13.9569L13.6906 13.0868H17.5007V9.23801H11.8724L11.8424 9.26756V9.23801L11.8724 9.23801L17.5007 3.60996V1.62571L11.8434 7.28273V1.43973C10.4884 1.90269 9.19524 2.53086 7.99387 3.30989V9.20846L8.02319 9.23793H7.99304L7.99387 9.20846L7.14915 8.36375L7.15328 8.36869H7.12372L7.12425 8.33833L4.77721 5.99128C4.45491 6.33219 4.14674 6.6855 3.85255 7.05094L6.03992 9.23772H2.35465C1.65146 10.4495 1.09747 11.7422 0.704763 13.0871H7.96387L7.99304 13.0566V13.0873L7.96387 13.0871L7.1247 13.9263L7.12372 13.9572L7.09403 13.9569L3.05077 18H5.03524L7.99431 15.0407V18L11.8426 18V13.2239L16.6191 18L17.2754 18C17.3503 17.9219 17.4266 17.8442 17.5 17.7638L17.5007 16.8969L14.5589 13.9569Z" fill="#F1E1E4"/>
<path d="M7.12372 13.9572L7.1247 13.9263L7.09403 13.9569L7.12372 13.9572ZM7.99304 13.0566L7.96387 13.0871L7.99304 13.0873V13.0566ZM11.8424 9.26756L11.8724 9.23801L11.8424 9.23801V9.26756ZM7.12372 8.36869H7.15328L7.14915 8.36375L7.12425 8.33833L7.12372 8.36869ZM8.02319 9.23793L7.99387 9.20846L7.99304 9.23793H8.02319Z" fill="#F1E1E4"/>
<path d="M17.4997 2.09082V33.909C26.2863 33.909 33.409 26.7863 33.409 18.0001C33.409 9.21301 26.2863 2.09082 17.4997 2.09082Z" fill="#252F6B"/>
<path d="M17.4997 2.09082C8.71355 2.09082 1.59082 9.21328 1.59082 17.9999C1.59082 26.786 8.71355 33.909 17.4997 33.909C26.2863 33.909 26.2863 2.09082 17.4997 2.09082Z" fill="#273375"/>
<path d="M12.5014 26.4784L13.5742 25.1409L11.9168 25.4411L11.3418 23.8357L10.7168 25.4411L9.02476 25.1409L10.1001 26.4489L8.98358 27.7554L10.6854 27.4882L11.2594 29.0604L11.8846 27.4889L13.6204 27.7991L12.5014 26.4784ZM25.1823 27.6597L25.7907 26.9018L24.8512 27.0719L24.5254 26.1623L24.1712 27.0719L23.2124 26.9018L23.8218 27.6426L23.1893 28.3834L24.1534 28.2317L24.4787 29.1222L24.8329 28.2322L25.8165 28.408L25.1823 27.6597ZM25.1823 10.9132L25.7907 10.155L24.8512 10.3253L24.5254 9.41574L24.1712 10.3253L23.2124 10.155L23.8218 10.8963L23.1893 11.6366L24.1534 11.4851L24.4787 12.3761L24.8329 11.4856L25.8165 11.6612L25.1823 10.9132ZM29.118 15.2453L29.7259 14.4871L28.787 14.6575L28.4611 13.7479L28.107 14.6575L27.1476 14.4871L27.757 15.2285L27.1245 15.969L28.0887 15.8172L28.4139 16.7083L28.7681 15.8178L29.7518 15.9934L29.118 15.2453ZM21.7778 17.1712L22.3862 16.4133L21.4467 16.5837L21.1209 15.6741L20.7668 16.5837L19.8081 16.4133L20.4173 17.1541L19.785 17.8949L20.7492 17.7434L21.0745 18.6336L21.4286 17.7439L22.4124 17.9195L21.7778 17.1712Z" fill="#F3F4F5"/>
<path d="M4.93199 8.25143C4.68184 8.57319 4.44388 8.90425 4.21862 9.24391H5.924L4.93199 8.25143ZM13.1474 17.9999H14.68L13.1474 16.4673V17.9999ZM8.06741 5.18983C7.7024 5.45913 7.35102 5.74475 7.01065 6.0434L8.06741 7.09969V5.18983ZM6.5344 17.9999H8.06741V16.4669L6.5344 17.9999ZM17.4997 2.09082C15.99 2.09082 14.5315 2.30557 13.1474 2.69873V7.09969L17.5001 2.74716L17.4997 2.09082ZM17.5001 16.5332V14.3244H15.2914L17.5001 16.5332ZM2.24723 17.9999L5.92346 14.3244H2.02261C1.74303 15.5047 1.59082 16.7343 1.59082 17.9999L2.24723 17.9999ZM15.2899 9.24391H17.5001V7.03413L15.2899 9.24391Z" fill="#29337A"/>
<path d="M17.5005 16.9971L17.5001 16.5332L15.2914 14.3244H17.5001L17.5005 13.5334H14.0368L17.5005 16.9971ZM5.924 9.24391H4.21862C4.04847 9.50256 3.88627 9.76611 3.73141 10.0342H7.08165L5.09314 8.04622C5.03885 8.11405 4.98504 8.18263 4.93199 8.25143L5.924 9.24391ZM8.06741 16.4669V17.9999H8.85837V15.3096L6.16831 17.9999H6.5344L8.06741 16.4669ZM13.1474 2.69873C12.8819 2.77414 12.6188 2.85612 12.3575 2.94512V8.25694L17.5005 3.1142L17.5001 2.74716L13.1474 7.09969V2.69873ZM8.03994 14.3244L8.06782 14.2965L8.8307 13.5336H2.23151C2.15515 13.7954 2.08522 14.059 2.02261 14.3244H5.92346L2.24723 17.9999H4.36425L8.03994 14.3244ZM17.5005 10.0345L17.5001 9.24391H15.2899L17.5001 7.03413L17.5005 4.91805L12.3839 10.0345H17.5005Z" fill="white"/>
<path d="M8.06741 7.09969L7.01065 6.0434C6.6356 6.37274 6.27623 6.71981 5.93374 7.0829L8.06741 9.21657L8.09005 9.23968L8.85797 10.0076V4.64526C8.58921 4.81985 8.32442 4.99994 8.06741 5.18983V7.09969ZM13.1474 16.4673L14.68 17.9999L16.6991 17.9999L12.3569 13.658V17.9999L13.1474 17.9999V16.4673Z" fill="white"/>
<path d="M14.8262 14.3244L14.0368 13.5334H17.5005V10.0345H12.3839L12.3567 10.0613V10.0345L12.3839 10.0345L17.5005 4.91805V3.1142L12.3575 8.25694V2.94512C11.1258 3.366 9.95013 3.93705 8.85797 4.64526V10.0076L8.88463 10.0344H8.85722L8.85797 10.0076L8.09005 9.23968L8.0938 9.24418H8.06693L8.06741 9.21657L5.93374 7.0829C5.64074 7.39281 5.36058 7.714 5.09314 8.04622L7.08165 10.0342H3.73141C3.09215 11.1358 2.58852 12.311 2.23151 13.5336H8.8307L8.85722 13.506V13.5338L8.8307 13.5336L8.06782 14.2965L8.06693 14.3247L8.03994 14.3244L4.36425 17.9999H6.16831L8.85837 15.3096V17.9999L12.3569 17.9999V13.658L16.6991 17.9999L17.2957 17.9999C17.3638 17.9289 17.4332 17.8583 17.4999 17.7852L17.5005 16.9971L14.8262 14.3244Z" fill="#D32030"/>
<path d="M8.06693 14.3247L8.06782 14.2965L8.03994 14.3244L8.06693 14.3247ZM8.85722 13.506L8.8307 13.5336L8.85722 13.5338V13.506ZM12.3567 10.0613L12.3839 10.0345L12.3567 10.0345V10.0613ZM8.06693 9.24418H8.0938L8.09005 9.23968L8.06741 9.21657L8.06693 9.24418ZM8.88463 10.0344L8.85797 10.0076L8.85722 10.0344H8.88463Z" fill="#D32030"/>
</svg>
