<svg width="35" height="36" viewBox="0 0 35 36" fill="none" xmlns="http://www.w3.org/2000/svg">
<g clip-path="url(#clip0_1326_12327)">
<path d="M17.4997 0.5V35.5C27.1651 35.5 35 27.665 35 18.0003C35 8.33441 27.165 0.5 17.4997 0.5Z" fill="#F1E1E4"/>
<path d="M17.4997 0.5C7.835 0.5 0 8.33471 0 18C0 27.6647 7.835 35.5 17.4997 35.5C27.165 35.5 27.165 0.5 17.4997 0.5Z" fill="#F1E1E4"/>
<path d="M12.0016 27.3263L13.1817 25.8551L11.3586 26.1854L10.7261 24.4194L10.0386 26.1854L8.17733 25.8551L9.36024 27.2939L8.13204 28.7311L10.004 28.4371L10.6354 30.1665L11.3232 28.4379L13.2325 28.7791L12.0016 27.3263ZM25.9506 28.6258L26.6198 27.7921L25.5864 27.9792L25.228 26.9786L24.8384 27.9792L23.7837 27.7921L24.454 28.6069L23.7583 29.4218L24.8188 29.255L25.1766 30.2345L25.5662 29.2555L26.6483 29.4489L25.9506 28.6258ZM25.9506 10.2046L26.6198 9.37064L25.5864 9.55795L25.228 8.55741L24.8384 9.55795L23.7837 9.37064L24.454 10.186L23.7583 11.0004L24.8188 10.8337L25.1766 11.8138L25.5662 10.8343L26.6483 11.0274L25.9506 10.2046ZM30.2799 14.9699L30.9486 14.136L29.9158 14.3233L29.5573 13.3228L29.1678 14.3233L28.1125 14.136L28.7828 14.9514L28.0871 15.766L29.1476 15.5991L29.5054 16.5792L29.895 15.5996L30.9771 15.7928L30.2799 14.9699ZM22.2056 17.0885L22.8749 16.2548L21.8415 16.4421L21.4831 15.4416L21.0935 16.4421L20.039 16.2548L20.7092 17.0696L20.0136 17.8845L21.0742 17.7179L21.432 18.6971L21.8216 17.7184L22.9037 17.9116L22.2056 17.0885Z" fill="#F1E1E4"/>
<path d="M3.67529 7.27667C3.40012 7.63061 3.13836 7.99478 2.89058 8.3684H4.7665L3.67529 7.27667ZM12.7123 18H14.3981L12.7123 16.3142V18ZM7.12425 3.90892C6.72274 4.20514 6.33622 4.51932 5.96182 4.84784L7.12425 6.00976V3.90892ZM5.43794 18H7.12425V16.3136L5.43794 18ZM17.4997 0.5C15.8391 0.5 14.2348 0.736226 12.7123 1.1687V6.00976L17.5003 1.22198L17.4997 0.5ZM17.5003 16.3866V13.9569H15.0706L17.5003 16.3866ZM0.722053 18L4.76591 13.9569H0.474965C0.167435 15.2553 0 16.6079 0 18L0.722053 18ZM15.069 8.3684H17.5003V5.93764L15.069 8.3684Z" fill="#F1E1E4"/>
<path d="M17.5007 16.8969L17.5003 16.3866L15.0706 13.9569H17.5003L17.5007 13.0868H13.6906L17.5007 16.8969ZM4.7665 8.3684H2.89058C2.70341 8.65292 2.52499 8.94281 2.35465 9.23772H6.03992L3.85255 7.05094C3.79283 7.12555 3.73364 7.20099 3.67529 7.27667L4.7665 8.3684ZM7.12425 16.3136V18H7.99431V15.0407L5.03524 18H5.43794L7.12425 16.3136ZM12.7123 1.1687C12.4202 1.25165 12.1308 1.34183 11.8434 1.43973V7.28273L17.5007 1.62571L17.5003 1.22198L12.7123 6.00976V1.1687ZM7.09403 13.9569L7.1247 13.9263L7.96387 13.0871H0.704763C0.620765 13.375 0.543844 13.665 0.474965 13.9569H4.76591L0.722053 18H3.05077L7.09403 13.9569ZM17.5007 9.23801L17.5003 8.3684H15.069L17.5003 5.93764L17.5007 3.60996L11.8724 9.23801H17.5007Z" fill="#F1E1E4"/>
<path d="M7.12425 6.00976L5.96182 4.84784C5.54926 5.21012 5.15395 5.59188 4.77721 5.99128L7.12425 8.33833L7.14915 8.36375L7.99387 9.20846V3.30989C7.69823 3.50193 7.40696 3.70003 7.12425 3.90892V6.00976ZM12.7123 16.3142L14.3981 18L16.6191 18L11.8426 13.2239V18L12.7123 18V16.3142Z" fill="#F1E1E4"/>
<path d="M14.5589 13.9569L13.6906 13.0868H17.5007V9.23801H11.8724L11.8424 9.26756V9.23801L11.8724 9.23801L17.5007 3.60996V1.62571L11.8434 7.28273V1.43973C10.4884 1.90269 9.19524 2.53086 7.99387 3.30989V9.20846L8.02319 9.23793H7.99304L7.99387 9.20846L7.14915 8.36375L7.15328 8.36869H7.12372L7.12425 8.33833L4.77721 5.99128C4.45491 6.33219 4.14674 6.6855 3.85255 7.05094L6.03992 9.23772H2.35465C1.65146 10.4495 1.09747 11.7422 0.704763 13.0871H7.96387L7.99304 13.0566V13.0873L7.96387 13.0871L7.1247 13.9263L7.12372 13.9572L7.09403 13.9569L3.05077 18H5.03524L7.99431 15.0407V18L11.8426 18V13.2239L16.6191 18L17.2754 18C17.3503 17.9219 17.4266 17.8442 17.5 17.7638L17.5007 16.8969L14.5589 13.9569Z" fill="#F1E1E4"/>
<path d="M7.12372 13.9572L7.1247 13.9263L7.09403 13.9569L7.12372 13.9572ZM7.99304 13.0566L7.96387 13.0871L7.99304 13.0873V13.0566ZM11.8424 9.26756L11.8724 9.23801L11.8424 9.23801V9.26756ZM7.12372 8.36869H7.15328L7.14915 8.36375L7.12425 8.33833L7.12372 8.36869ZM8.02319 9.23793L7.99387 9.20846L7.99304 9.23793H8.02319Z" fill="#F1E1E4"/>
<path d="M17.5009 33.909C26.2872 33.909 33.41 26.7863 33.41 17.9999C33.41 9.21356 26.2872 2.09082 17.5009 2.09082C8.71454 2.09082 1.5918 9.21356 1.5918 17.9999C1.5918 26.7863 8.71454 33.909 17.5009 33.909Z" fill="#F0F0F0"/>
<path d="M33.41 17.9994C33.41 11.6921 29.7394 6.24224 24.4179 3.66895V32.3299C29.7394 29.7566 33.41 24.3068 33.41 17.9994ZM1.5918 17.9994C1.5918 24.3068 5.26238 29.7566 10.5839 32.3299V3.66895C5.26238 6.24224 1.5918 11.6921 1.5918 17.9994ZM20.2677 20.0745L23.0345 18.6911L21.6511 17.9994V16.616L18.8843 17.9994L20.2677 15.2326H18.8843L17.5009 13.1575L16.1175 15.2326H14.7341L16.1175 17.9994L13.3507 16.616V17.9994L11.9673 18.6911L14.7341 20.0745L14.0424 21.4579H16.8092V23.533H18.1926V21.4579H20.9594L20.2677 20.0745Z" fill="#D80027"/>
</g>
<defs>
<clipPath id="clip0_1326_12327">
<rect width="35" height="35" fill="white" transform="translate(0 0.5)"/>
</clipPath>
</defs>
</svg>
