<svg width="35" height="36" viewBox="0 0 35 36" fill="none" xmlns="http://www.w3.org/2000/svg">
<path d="M17.4997 0.5V35.5C27.1651 35.5 35 27.665 35 18.0003C35 8.33441 27.165 0.5 17.4997 0.5Z" fill="#F1E1E4"/>
<path d="M17.4997 0.5C7.835 0.5 0 8.33471 0 18C0 27.6647 7.835 35.5 17.4997 35.5C27.165 35.5 27.165 0.5 17.4997 0.5Z" fill="#F1E1E4"/>
<path d="M12.0016 27.3263L13.1817 25.8551L11.3586 26.1854L10.7261 24.4194L10.0386 26.1854L8.17733 25.8551L9.36024 27.2939L8.13204 28.7311L10.004 28.4371L10.6354 30.1665L11.3232 28.4379L13.2325 28.7791L12.0016 27.3263ZM25.9506 28.6258L26.6198 27.7921L25.5864 27.9792L25.228 26.9786L24.8384 27.9792L23.7837 27.7921L24.454 28.6069L23.7583 29.4218L24.8188 29.255L25.1766 30.2345L25.5662 29.2555L26.6483 29.4489L25.9506 28.6258ZM25.9506 10.2046L26.6198 9.37064L25.5864 9.55795L25.228 8.55741L24.8384 9.55795L23.7837 9.37064L24.454 10.186L23.7583 11.0004L24.8188 10.8337L25.1766 11.8138L25.5662 10.8343L26.6483 11.0274L25.9506 10.2046ZM30.2799 14.9699L30.9486 14.136L29.9158 14.3233L29.5573 13.3228L29.1678 14.3233L28.1125 14.136L28.7828 14.9514L28.0871 15.766L29.1476 15.5991L29.5054 16.5792L29.895 15.5996L30.9771 15.7928L30.2799 14.9699ZM22.2056 17.0885L22.8749 16.2548L21.8415 16.4421L21.4831 15.4416L21.0935 16.4421L20.039 16.2548L20.7092 17.0696L20.0136 17.8845L21.0742 17.7179L21.432 18.6971L21.8216 17.7184L22.9037 17.9116L22.2056 17.0885Z" fill="#F1E1E4"/>
<path d="M3.67529 7.27667C3.40012 7.63061 3.13836 7.99478 2.89058 8.3684H4.7665L3.67529 7.27667ZM12.7123 18H14.3981L12.7123 16.3142V18ZM7.12425 3.90892C6.72274 4.20514 6.33622 4.51932 5.96182 4.84784L7.12425 6.00976V3.90892ZM5.43794 18H7.12425V16.3136L5.43794 18ZM17.4997 0.5C15.8391 0.5 14.2348 0.736226 12.7123 1.1687V6.00976L17.5003 1.22198L17.4997 0.5ZM17.5003 16.3866V13.9569H15.0706L17.5003 16.3866ZM0.722053 18L4.76591 13.9569H0.474965C0.167435 15.2553 0 16.6079 0 18L0.722053 18ZM15.069 8.3684H17.5003V5.93764L15.069 8.3684Z" fill="#F1E1E4"/>
<path d="M17.5007 16.8969L17.5003 16.3866L15.0706 13.9569H17.5003L17.5007 13.0868H13.6906L17.5007 16.8969ZM4.7665 8.3684H2.89058C2.70341 8.65292 2.52499 8.94281 2.35465 9.23772H6.03992L3.85255 7.05094C3.79283 7.12555 3.73364 7.20099 3.67529 7.27667L4.7665 8.3684ZM7.12425 16.3136V18H7.99431V15.0407L5.03524 18H5.43794L7.12425 16.3136ZM12.7123 1.1687C12.4202 1.25165 12.1308 1.34183 11.8434 1.43973V7.28273L17.5007 1.62571L17.5003 1.22198L12.7123 6.00976V1.1687ZM7.09403 13.9569L7.1247 13.9263L7.96387 13.0871H0.704763C0.620765 13.375 0.543844 13.665 0.474965 13.9569H4.76591L0.722053 18H3.05077L7.09403 13.9569ZM17.5007 9.23801L17.5003 8.3684H15.069L17.5003 5.93764L17.5007 3.60996L11.8724 9.23801H17.5007Z" fill="#F1E1E4"/>
<path d="M7.12425 6.00976L5.96182 4.84784C5.54926 5.21012 5.15395 5.59188 4.77721 5.99128L7.12425 8.33833L7.14915 8.36375L7.99387 9.20846V3.30989C7.69823 3.50193 7.40696 3.70003 7.12425 3.90892V6.00976ZM12.7123 16.3142L14.3981 18L16.6191 18L11.8426 13.2239V18L12.7123 18V16.3142Z" fill="#F1E1E4"/>
<path d="M14.5589 13.9569L13.6906 13.0868H17.5007V9.23801H11.8724L11.8424 9.26756V9.23801L11.8724 9.23801L17.5007 3.60996V1.62571L11.8434 7.28273V1.43973C10.4884 1.90269 9.19524 2.53086 7.99387 3.30989V9.20846L8.02319 9.23793H7.99304L7.99387 9.20846L7.14915 8.36375L7.15328 8.36869H7.12372L7.12425 8.33833L4.77721 5.99128C4.45491 6.33219 4.14674 6.6855 3.85255 7.05094L6.03992 9.23772H2.35465C1.65146 10.4495 1.09747 11.7422 0.704763 13.0871H7.96387L7.99304 13.0566V13.0873L7.96387 13.0871L7.1247 13.9263L7.12372 13.9572L7.09403 13.9569L3.05077 18H5.03524L7.99431 15.0407V18L11.8426 18V13.2239L16.6191 18L17.2754 18C17.3503 17.9219 17.4266 17.8442 17.5 17.7638L17.5007 16.8969L14.5589 13.9569Z" fill="#F1E1E4"/>
<path d="M7.12372 13.9572L7.1247 13.9263L7.09403 13.9569L7.12372 13.9572ZM7.99304 13.0566L7.96387 13.0871L7.99304 13.0873V13.0566ZM11.8424 9.26756L11.8724 9.23801L11.8424 9.23801V9.26756ZM7.12372 8.36869H7.15328L7.14915 8.36375L7.12425 8.33833L7.12372 8.36869ZM8.02319 9.23793L7.99387 9.20846L7.99304 9.23793H8.02319Z" fill="#F1E1E4"/>
<path d="M17.4994 33.909C26.2858 33.909 33.4085 26.7863 33.4085 17.9999C33.4085 9.21356 26.2858 2.09082 17.4994 2.09082C8.71307 2.09082 1.59033 9.21356 1.59033 17.9999C1.59033 26.7863 8.71307 33.909 17.4994 33.909Z" fill="#FC4581"/>
<path d="M25.9847 4.54119H9.01416C9.31701 4.34979 9.62649 4.16853 9.94261 3.99743C12.1815 2.78576 14.6799 2.13275 17.2254 2.09393H17.7735C18.078 2.09828 18.38 2.11257 18.6802 2.13432C21.276 2.32312 23.7851 3.14987 25.9847 4.54119Z" fill="#DB1B1B"/>
<path d="M28.9813 6.98846H6.01753C6.03245 6.9723 6.04799 6.95676 6.06352 6.94061C6.35353 6.64231 6.65286 6.35582 6.96151 6.08114C7.25857 5.81889 7.56536 5.56721 7.88188 5.32608C8.24729 5.04892 8.62762 4.78604 9.01416 4.54119H25.9847C27.0794 5.232 28.0857 6.05383 28.9813 6.98846Z" fill="white"/>
<path d="M30.9084 9.4351H4.09042C4.31697 9.08143 4.55745 8.73687 4.8113 8.40225C5.18558 7.90796 5.58834 7.4359 6.01753 6.98846H28.9813C29.7016 7.7395 30.347 8.55892 30.9084 9.4351Z" fill="#DB1B1B"/>
<path d="M32.1892 11.8824H2.80961C2.88667 11.6959 2.96746 11.5132 3.0526 11.3305C3.323 10.7455 3.62869 10.1775 3.968 9.62962C4.00839 9.56747 4.0494 9.50035 4.09228 9.4351H30.9084C31.4057 10.2121 31.8342 11.0309 32.1892 11.8824Z" fill="white"/>
<path d="M32.9822 14.329H2.01665C2.10531 13.9499 2.20888 13.5771 2.32737 13.2104C2.46947 12.758 2.63105 12.3155 2.8121 11.883L32.1892 11.8824C32.5198 12.6747 32.7851 13.4934 32.9822 14.329Z" fill="#DB1B1B"/>
<path d="M33.3619 16.7763H1.63694C1.69922 15.9518 1.82618 15.1336 2.01665 14.329H32.9822C33.1727 15.1336 33.2996 15.9518 33.3619 16.7763Z" fill="white"/>
<path d="M33.4085 17.9999C33.4085 18.4113 33.393 18.8192 33.3619 19.2235H1.63694C1.60587 18.8196 1.59033 18.4117 1.59033 17.9999V17.2076C1.59039 17.2282 1.5962 17.2484 1.60711 17.266C1.60711 17.2231 1.61084 17.1802 1.61333 17.138C1.61954 17.0168 1.62762 16.8968 1.63694 16.7763H33.3619C33.393 17.1802 33.4085 17.5881 33.4085 17.9999Z" fill="#DB1B1B"/>
<path d="M33.3619 19.2235C33.2997 20.048 33.1727 20.8663 32.9822 21.6708H2.01665C1.82613 20.8663 1.69917 20.048 1.63694 19.2235H33.3619Z" fill="white"/>
<path d="M32.9822 21.6708C32.7855 22.5067 32.5203 23.325 32.1892 24.1175H2.80961C2.47859 23.325 2.21337 22.5067 2.01665 21.6708H32.9822Z" fill="#DB1B1B"/>
<path d="M32.1892 24.1175C31.8346 24.9691 31.406 25.788 30.9084 26.5647H4.09042C3.59279 25.788 3.16422 24.9691 2.80961 24.1175H32.1892Z" fill="white"/>
<path d="M30.9084 26.5647C30.3474 27.4412 29.7022 28.2608 28.9819 29.012H6.01753C5.29731 28.2608 4.65147 27.4412 4.09042 26.5647H30.9084Z" fill="#DB1B1B"/>
<path d="M28.9819 29.012C28.0859 29.9461 27.079 30.7679 25.9847 31.4592H9.01416C7.91986 30.7679 6.91361 29.9461 6.01753 29.012H28.9819Z" fill="white"/>
<path d="M25.9847 31.4592C23.5359 33.0096 20.708 33.857 17.8101 33.909H17.1887C14.2903 33.8584 11.4615 33.012 9.01167 31.4624L25.9847 31.4592Z" fill="#DB1B1B"/>
<path d="M18.6802 2.13432L18.6802 19.2239L1.63694 19.2235C1.60587 18.8196 1.59033 18.4117 1.59033 17.9999V17.2076C1.59039 17.2282 1.5962 17.2484 1.60711 17.266C1.60711 17.2231 1.61084 17.1802 1.61333 17.138C1.61954 17.0168 1.62762 16.8968 1.63694 16.7763C1.69922 15.9518 1.82618 15.1336 2.01665 14.329C2.10531 13.9499 2.20888 13.5771 2.32737 13.2104C2.46947 12.758 2.63105 12.3155 2.8121 11.883C2.88916 11.6966 2.96995 11.5136 3.05509 11.3309C3.32549 10.7459 3.63118 10.1779 3.97048 9.62996C4.01088 9.56781 4.05189 9.50069 4.09477 9.43544C4.32132 9.08177 4.5618 8.73721 4.81565 8.40259C5.1885 7.90821 5.58981 7.43622 6.01753 6.98846C6.03245 6.9723 6.04799 6.95676 6.06352 6.94061C6.35353 6.64231 6.65286 6.35582 6.96151 6.08114C7.25857 5.81889 7.56536 5.56721 7.88188 5.32608C8.24729 5.04892 8.62762 4.78604 9.01416 4.54119C9.31701 4.34979 9.62649 4.16853 9.94261 3.99743C12.1815 2.78576 14.6799 2.13275 17.2254 2.09393H17.7735C18.078 2.09828 18.38 2.11257 18.6802 2.13432Z" fill="#3E436D"/>
<path d="M16.8407 3.11L17.0582 3.7793C17.0655 3.80203 17.0799 3.82185 17.0992 3.83592C17.1185 3.84999 17.1418 3.85758 17.1657 3.8576H17.8723C17.8958 3.85852 17.9184 3.86673 17.937 3.88109C17.9556 3.89545 17.9693 3.91524 17.9761 3.93772C17.9829 3.96021 17.9826 3.98426 17.9751 4.00654C17.9677 4.02882 17.9534 4.04823 17.9344 4.06206L17.3646 4.47594C17.3455 4.48973 17.3313 4.50915 17.324 4.53146C17.3166 4.55377 17.3165 4.57783 17.3236 4.60023L17.5411 5.27015C17.5477 5.29272 17.5472 5.31681 17.5396 5.33906C17.5319 5.36132 17.5175 5.38063 17.4984 5.39431C17.4792 5.40799 17.4563 5.41536 17.4327 5.41538C17.4092 5.4154 17.3862 5.40808 17.3671 5.39444L16.7978 4.98056C16.7784 4.9666 16.7552 4.95909 16.7313 4.95909C16.7074 4.95909 16.6842 4.9666 16.6648 4.98056L16.0949 5.39444C16.0758 5.40808 16.0528 5.4154 16.0293 5.41538C16.0057 5.41536 15.9828 5.40799 15.9636 5.39431C15.9445 5.38063 15.9301 5.36132 15.9224 5.33906C15.9148 5.31681 15.9143 5.29272 15.9209 5.27015L16.1391 4.60023C16.1459 4.57781 16.1456 4.55384 16.1382 4.53159C16.1309 4.50935 16.1169 4.48991 16.0981 4.47594L15.5282 4.06206C15.5089 4.048 15.4946 4.02821 15.4873 4.00552C15.4799 3.98283 15.4799 3.9584 15.4873 3.93572C15.4947 3.91304 15.509 3.89328 15.5283 3.87925C15.5476 3.86522 15.5708 3.85764 15.5947 3.8576H16.2988C16.3227 3.85748 16.3459 3.84986 16.3652 3.8358C16.3845 3.82175 16.3989 3.80198 16.4063 3.7793L16.6238 3.11C16.6307 3.08661 16.645 3.06609 16.6646 3.0515C16.6841 3.03691 16.7079 3.02903 16.7322 3.02903C16.7566 3.02903 16.7804 3.03691 16.7999 3.0515C16.8195 3.06609 16.8338 3.08661 16.8407 3.11ZM9.28511 4.54119C9.27944 4.56152 9.27944 4.58301 9.28511 4.60334L9.50324 5.27202C9.50993 5.29458 9.5094 5.31867 9.50175 5.34093C9.49409 5.36319 9.47969 5.3825 9.46054 5.39618C9.44138 5.40986 9.41844 5.41722 9.39491 5.41725C9.37137 5.41727 9.34841 5.40995 9.32924 5.39631L8.75937 4.98304C8.7401 4.96914 8.71694 4.96166 8.69318 4.96166C8.66942 4.96166 8.64627 4.96914 8.627 4.98304L8.05713 5.39631C8.04169 5.40772 8.02358 5.415 8.00453 5.41743C7.98548 5.41987 7.96612 5.41738 7.9483 5.41022C7.93048 5.40305 7.91479 5.39145 7.90273 5.3765C7.89067 5.36155 7.88264 5.34377 7.8794 5.32484C8.24481 5.04767 8.62513 4.7848 9.01167 4.53995C9.31453 4.34854 9.62401 4.16729 9.94012 3.99618C9.933 4.02136 9.91741 4.0433 9.896 4.05833L9.32613 4.47221C9.30461 4.48953 9.29005 4.51402 9.28511 4.54119ZM16.8407 8.31898L17.0582 8.9889C17.0656 9.01157 17.08 9.03131 17.0993 9.04528C17.1186 9.05924 17.1419 9.0667 17.1657 9.06658H17.8723C17.8961 9.06662 17.9194 9.0742 17.9386 9.08823C17.9579 9.10226 17.9723 9.12203 17.9797 9.14471C17.987 9.16738 17.9871 9.19181 17.9797 9.2145C17.9724 9.23719 17.9581 9.25698 17.9388 9.27104L17.3689 9.68493C17.3499 9.69871 17.3357 9.71814 17.3283 9.74045C17.321 9.76275 17.3208 9.78681 17.3279 9.80921L17.5429 10.4804C17.5496 10.5029 17.5491 10.527 17.5414 10.5493C17.5338 10.5715 17.5194 10.5909 17.5002 10.6045C17.4811 10.6182 17.4581 10.6256 17.4346 10.6256C17.4111 10.6256 17.3881 10.6183 17.3689 10.6047L16.7997 10.1908C16.7803 10.1768 16.757 10.1693 16.7332 10.1693C16.7093 10.1693 16.686 10.1768 16.6667 10.1908L16.0968 10.6047C16.0776 10.6183 16.0547 10.6256 16.0311 10.6256C16.0076 10.6256 15.9847 10.6182 15.9655 10.6045C15.9464 10.5909 15.932 10.5715 15.9243 10.5493C15.9166 10.527 15.9161 10.5029 15.9228 10.4804L16.1409 9.81046C16.1477 9.78804 16.1474 9.76407 16.1401 9.74182C16.1328 9.71957 16.1187 9.70014 16.0999 9.68617L15.5301 9.27228C15.5108 9.25822 15.4965 9.23843 15.4891 9.21575C15.4818 9.19306 15.4818 9.16863 15.4892 9.14595C15.4966 9.12327 15.5109 9.1035 15.5302 9.08947C15.5495 9.07544 15.5727 9.06787 15.5965 9.06783H16.3006C16.3245 9.06785 16.3477 9.06035 16.367 9.0464C16.3863 9.03245 16.4007 9.01276 16.4082 8.99015L16.6257 8.32022C16.6329 8.29751 16.6472 8.27767 16.6664 8.26355C16.6857 8.24943 16.7089 8.24176 16.7327 8.24162C16.7566 8.24148 16.7799 8.24889 16.7993 8.26278C16.8186 8.27668 16.8331 8.29635 16.8407 8.31898ZM12.8218 8.31898L13.0393 8.9889C13.0467 9.01157 13.061 9.03131 13.0804 9.04528C13.0997 9.05924 13.123 9.0667 13.1468 9.06658H13.8509C13.8747 9.06662 13.898 9.0742 13.9173 9.08823C13.9365 9.10226 13.9509 9.12203 13.9583 9.14471C13.9656 9.16738 13.9657 9.19181 13.9583 9.2145C13.951 9.23719 13.9367 9.25698 13.9174 9.27104L13.3475 9.68493C13.3286 9.69877 13.3144 9.7182 13.3071 9.74049C13.2997 9.76278 13.2995 9.78681 13.3065 9.80921L13.5222 10.4804C13.5291 10.5029 13.5288 10.5271 13.5213 10.5494C13.5137 10.5718 13.4994 10.5912 13.4802 10.6049C13.461 10.6187 13.438 10.626 13.4144 10.626C13.3909 10.6259 13.3679 10.6185 13.3488 10.6047L12.7789 10.1908C12.7595 10.1768 12.7363 10.1693 12.7124 10.1693C12.6885 10.1693 12.6653 10.1768 12.6459 10.1908L12.0779 10.6047C12.0588 10.6185 12.0358 10.6259 12.0122 10.626C11.9886 10.626 11.9656 10.6187 11.9465 10.6049C11.9273 10.5912 11.9129 10.5718 11.9054 10.5494C11.8979 10.5271 11.8976 10.5029 11.9045 10.4804L12.122 9.81046C12.129 9.78805 12.1288 9.76402 12.1215 9.74173C12.1141 9.71945 12.1 9.70002 12.081 9.68617L11.5111 9.27228C11.4919 9.25822 11.4776 9.23843 11.4702 9.21575C11.4629 9.19306 11.4629 9.16863 11.4703 9.14595C11.4776 9.12327 11.492 9.1035 11.5113 9.08947C11.5306 9.07544 11.5538 9.06787 11.5776 9.06783H12.2793C12.3031 9.06794 12.3264 9.06048 12.3457 9.04652C12.365 9.03256 12.3794 9.01282 12.3868 8.99015L12.6043 8.32022C12.6109 8.29655 12.625 8.27567 12.6446 8.26076C12.6641 8.24584 12.688 8.2377 12.7126 8.23756C12.7371 8.23742 12.7611 8.24529 12.7808 8.25998C12.8005 8.27467 12.8149 8.29538 12.8218 8.31898ZM5.87833 9.27166L5.65274 9.4351L5.30846 9.68368C5.28958 9.69759 5.2755 9.71703 5.26815 9.73929C5.2608 9.76156 5.26055 9.78556 5.26745 9.80797L5.48682 10.4804C5.49311 10.5029 5.49231 10.5268 5.48454 10.5488C5.47677 10.5708 5.4624 10.59 5.44339 10.6035C5.42438 10.6171 5.40164 10.6245 5.37828 10.6247C5.35492 10.6249 5.33206 10.6179 5.31281 10.6047L4.74356 10.1902C4.7242 10.1762 4.70094 10.1687 4.67707 10.1687C4.6532 10.1687 4.62994 10.1762 4.61057 10.1902L4.0407 10.6047C4.02146 10.6179 3.9986 10.6249 3.97524 10.6247C3.95187 10.6245 3.92914 10.6171 3.91013 10.6035C3.89111 10.59 3.87675 10.5708 3.86898 10.5488C3.86121 10.5268 3.86041 10.5029 3.8667 10.4804L4.08483 9.81108C4.09144 9.78865 4.09106 9.76474 4.08373 9.74253C4.0764 9.72032 4.06248 9.70088 4.04381 9.68679L3.968 9.63148C4.00839 9.56934 4.04941 9.50222 4.09229 9.43697C4.31883 9.08329 4.55932 8.73874 4.81317 8.40412L5.00209 8.9889C5.00944 9.01164 5.0238 9.03146 5.04312 9.04553C5.06243 9.05959 5.0857 9.06718 5.1096 9.0672H5.81618C5.83948 9.06848 5.86182 9.07688 5.88017 9.09128C5.89853 9.10567 5.91201 9.12537 5.9188 9.14769C5.92558 9.17001 5.92534 9.19388 5.9181 9.21605C5.91086 9.23823 5.89698 9.25764 5.87833 9.27166ZM16.8407 13.6255L17.0582 14.2955C17.0657 14.3181 17.0801 14.3378 17.0994 14.3517C17.1187 14.3657 17.1419 14.3732 17.1657 14.3731H17.8723C17.8961 14.3732 17.9194 14.3808 17.9386 14.3948C17.9579 14.4088 17.9723 14.4286 17.9797 14.4513C17.987 14.4739 17.9871 14.4984 17.9797 14.5211C17.9724 14.5437 17.9581 14.5635 17.9388 14.5776L17.3689 14.9915C17.3499 15.0053 17.3357 15.0247 17.3283 15.047C17.321 15.0693 17.3208 15.0934 17.3279 15.1158L17.5454 15.7857C17.5521 15.8083 17.5516 15.8323 17.5439 15.8546C17.5363 15.8769 17.5219 15.8962 17.5027 15.9099C17.4836 15.9235 17.4606 15.9309 17.4371 15.9309C17.4135 15.9309 17.3906 15.9236 17.3714 15.91L16.8022 15.4961C16.7828 15.4821 16.7595 15.4746 16.7357 15.4746C16.7118 15.4746 16.6885 15.4821 16.6692 15.4961L16.0993 15.91C16.0801 15.9236 16.0572 15.9309 16.0336 15.9309C16.0101 15.9309 15.9872 15.9235 15.968 15.9099C15.9488 15.8962 15.9344 15.8769 15.9268 15.8546C15.9191 15.8323 15.9186 15.8083 15.9253 15.7857L16.1434 15.1158C16.1502 15.0933 16.1499 15.0694 16.1426 15.0471C16.1352 15.0249 16.1212 15.0054 16.1024 14.9915L15.5325 14.5776C15.5133 14.5635 15.499 14.5437 15.4916 14.5211C15.4843 14.4984 15.4843 14.4739 15.4917 14.4513C15.499 14.4286 15.5134 14.4088 15.5327 14.3948C15.552 14.3808 15.5752 14.3732 15.599 14.3731H16.3031C16.3269 14.3731 16.3501 14.3655 16.3694 14.3516C16.3887 14.3377 16.4031 14.318 16.4106 14.2955L16.6282 13.6255C16.6361 13.6037 16.6506 13.5849 16.6696 13.5716C16.6886 13.5583 16.7112 13.5512 16.7344 13.5512C16.7576 13.5512 16.7803 13.5583 16.7993 13.5716C16.8183 13.5849 16.8327 13.6037 16.8407 13.6255ZM12.8218 13.6255L13.0393 14.2955C13.0467 14.3181 13.0612 14.3378 13.0805 14.3517C13.0998 14.3657 13.123 14.3732 13.1468 14.3731H13.8509C13.8747 14.3732 13.898 14.3808 13.9173 14.3948C13.9365 14.4088 13.9509 14.4286 13.9583 14.4513C13.9656 14.4739 13.9657 14.4984 13.9583 14.5211C13.951 14.5437 13.9367 14.5635 13.9174 14.5776L13.3475 14.9915C13.3286 15.0053 13.3144 15.0248 13.3071 15.047C13.2997 15.0693 13.2995 15.0934 13.3065 15.1158L13.5222 15.7876C13.5291 15.8101 13.5288 15.8342 13.5213 15.8566C13.5137 15.8789 13.4994 15.8984 13.4802 15.9121C13.461 15.9258 13.438 15.9332 13.4144 15.9332C13.3909 15.9331 13.3679 15.9257 13.3488 15.9118L12.7789 15.498C12.7595 15.484 12.7363 15.4765 12.7124 15.4765C12.6885 15.4765 12.6653 15.484 12.6459 15.498L12.076 15.9118C12.0569 15.9257 12.034 15.9331 12.0104 15.9332C11.9868 15.9332 11.9638 15.9258 11.9446 15.9121C11.9254 15.8984 11.9111 15.8789 11.9036 15.8566C11.896 15.8342 11.8957 15.8101 11.9027 15.7876L12.1202 15.1176C12.1271 15.0952 12.1269 15.0712 12.1196 15.0489C12.1122 15.0266 12.0981 15.0072 12.0791 14.9933L11.5093 14.5795C11.49 14.5654 11.4757 14.5456 11.4684 14.5229C11.461 14.5002 11.461 14.4758 11.4684 14.4531C11.4758 14.4304 11.4901 14.4107 11.5094 14.3966C11.5287 14.3826 11.5519 14.375 11.5758 14.375H12.2793C12.3031 14.375 12.3263 14.3675 12.3456 14.3536C12.3649 14.3396 12.3793 14.3199 12.3868 14.2973L12.6043 13.6274C12.6108 13.6037 12.6249 13.5828 12.6444 13.5678C12.6639 13.5528 12.6877 13.5446 12.7123 13.5444C12.7369 13.5442 12.7609 13.552 12.7806 13.5666C12.8004 13.5813 12.8148 13.602 12.8218 13.6255ZM8.80287 13.6255L9.02038 14.2955C9.02792 14.318 9.04235 14.3377 9.06163 14.3516C9.08092 14.3655 9.10409 14.3731 9.12789 14.3731H9.83199C9.85583 14.3732 9.87906 14.3808 9.89834 14.3948C9.91762 14.4088 9.93198 14.4286 9.93935 14.4513C9.94673 14.4739 9.94675 14.4984 9.93941 14.5211C9.93207 14.5437 9.91774 14.5635 9.89848 14.5776L9.32861 14.9915C9.30981 15.0054 9.29578 15.0249 9.28843 15.0471C9.28109 15.0694 9.2808 15.0933 9.2876 15.1158L9.50573 15.7857C9.51241 15.8083 9.51189 15.8323 9.50424 15.8546C9.49658 15.8769 9.48217 15.8962 9.46302 15.9099C9.44387 15.9235 9.42093 15.9309 9.39739 15.9309C9.37386 15.9309 9.3509 15.9236 9.33172 15.91L8.76185 15.4961C8.74259 15.4822 8.71943 15.4747 8.69567 15.4747C8.67191 15.4747 8.64875 15.4822 8.62948 15.4961L8.05962 15.91C8.04044 15.9236 8.01748 15.9309 7.99394 15.9309C7.97041 15.9309 7.94747 15.9235 7.92832 15.9099C7.90916 15.8962 7.89476 15.8769 7.8871 15.8546C7.87945 15.8323 7.87892 15.8083 7.88561 15.7857L8.10312 15.1158C8.1102 15.0934 8.11005 15.0693 8.10268 15.047C8.09532 15.0247 8.08112 15.0053 8.0621 14.9915L7.4941 14.5776C7.4751 14.5638 7.46088 14.5444 7.45342 14.5221C7.44595 14.4998 7.44562 14.4757 7.45245 14.4533C7.45928 14.4308 7.47295 14.411 7.49155 14.3966C7.51015 14.3823 7.53276 14.3741 7.55624 14.3731H8.26034C8.28416 14.3732 8.30738 14.3657 8.32668 14.3517C8.34599 14.3378 8.36039 14.3181 8.36785 14.2955L8.58536 13.6255C8.59211 13.6019 8.60638 13.5811 8.626 13.5663C8.64562 13.5515 8.66954 13.5435 8.69411 13.5435C8.71869 13.5435 8.74261 13.5515 8.76223 13.5663C8.78185 13.5811 8.79612 13.6019 8.80287 13.6255ZM4.78458 13.6255L5.00209 14.2955C5.00955 14.3181 5.02395 14.3378 5.04326 14.3517C5.06256 14.3657 5.08578 14.3732 5.1096 14.3731H5.81618C5.83966 14.3741 5.86228 14.3823 5.88088 14.3966C5.89948 14.411 5.91314 14.4308 5.91998 14.4533C5.92681 14.4757 5.92647 14.4998 5.91901 14.5221C5.91155 14.5444 5.89733 14.5638 5.87833 14.5776L5.30846 14.9915C5.28944 15.0053 5.27524 15.0247 5.26788 15.047C5.26052 15.0693 5.26036 15.0934 5.26745 15.1158L5.48495 15.7857C5.49164 15.8083 5.49112 15.8323 5.48346 15.8546C5.47581 15.8769 5.4614 15.8962 5.44225 15.9099C5.4231 15.9235 5.40015 15.9309 5.37662 15.9309C5.35308 15.9309 5.33013 15.9236 5.31095 15.91L4.7417 15.4961C4.72234 15.4821 4.69907 15.4746 4.6752 15.4746C4.65134 15.4746 4.62807 15.4821 4.60871 15.4961L4.03884 15.91C4.01966 15.9236 3.99671 15.9309 3.97317 15.9309C3.94963 15.9309 3.92669 15.9235 3.90754 15.9099C3.88839 15.8962 3.87398 15.8769 3.86633 15.8546C3.85867 15.8323 3.85815 15.8083 3.86483 15.7857L4.08296 15.1158C4.08976 15.0933 4.08947 15.0694 4.08213 15.0471C4.07479 15.0249 4.06075 15.0054 4.04195 14.9915L3.47208 14.5776C3.45282 14.5635 3.43849 14.5437 3.43115 14.5211C3.42381 14.4984 3.42383 14.4739 3.43121 14.4513C3.43858 14.4286 3.45294 14.4088 3.47222 14.3948C3.4915 14.3808 3.51473 14.3732 3.53857 14.3731H4.24454C4.26833 14.3731 4.29151 14.3655 4.31079 14.3516C4.33008 14.3377 4.34451 14.318 4.35205 14.2955L4.56956 13.6255C4.57697 13.6029 4.59135 13.5831 4.61066 13.5691C4.62997 13.5551 4.65321 13.5476 4.67707 13.5476C4.70092 13.5476 4.72417 13.5551 4.74347 13.5691C4.76278 13.5831 4.77717 13.6029 4.78458 13.6255ZM14.8309 5.56534L15.0484 6.23526C15.0559 6.25788 15.0703 6.27757 15.0896 6.29152C15.1089 6.30547 15.1321 6.31296 15.1559 6.31294H15.86C15.8839 6.31298 15.9071 6.32056 15.9264 6.33459C15.9457 6.34862 15.96 6.36839 15.9674 6.39107C15.9748 6.41374 15.9748 6.43817 15.9675 6.46086C15.9601 6.48355 15.9458 6.50334 15.9265 6.5174L15.3567 6.93129C15.3379 6.94526 15.3238 6.96469 15.3165 6.98694C15.3091 7.00919 15.3089 7.03316 15.3157 7.05557L15.5338 7.7255C15.5405 7.74806 15.5399 7.77215 15.5323 7.79441C15.5246 7.81667 15.5102 7.83598 15.4911 7.84966C15.4719 7.86334 15.449 7.8707 15.4254 7.87073C15.4019 7.87075 15.379 7.86343 15.3598 7.84979L14.7899 7.4359C14.7706 7.422 14.7475 7.41452 14.7237 7.41452C14.7 7.41452 14.6768 7.422 14.6575 7.4359L14.0877 7.84979C14.0685 7.86343 14.0455 7.87075 14.022 7.87073C13.9985 7.8707 13.9755 7.86334 13.9564 7.84966C13.9372 7.83598 13.9228 7.81667 13.9152 7.79441C13.9075 7.77215 13.907 7.74806 13.9137 7.7255L14.1312 7.05557C14.1383 7.03317 14.1381 7.00911 14.1307 6.98681C14.1234 6.9645 14.1092 6.94507 14.0902 6.93129L13.5222 6.5174C13.5032 6.50357 13.4889 6.48417 13.4815 6.46189C13.474 6.4396 13.4737 6.41555 13.4805 6.39307C13.4873 6.37059 13.501 6.35079 13.5196 6.33643C13.5382 6.32207 13.5608 6.31386 13.5843 6.31294H14.2884C14.3122 6.31306 14.3355 6.3056 14.3548 6.29164C14.3741 6.27767 14.3885 6.25793 14.3959 6.23526L14.6134 5.56534C14.6202 5.54171 14.6344 5.52092 14.6541 5.50611C14.6737 5.49131 14.6976 5.4833 14.7222 5.4833C14.7467 5.4833 14.7707 5.49131 14.7903 5.50611C14.8099 5.52092 14.8242 5.54171 14.8309 5.56534ZM7.27845 6.98846C7.2713 7.01111 7.2713 7.03541 7.27845 7.05806L7.4941 7.72736C7.50063 7.74984 7.50003 7.77378 7.49238 7.7959C7.48473 7.81802 7.47041 7.83722 7.45139 7.85086C7.43236 7.8645 7.40958 7.87189 7.38618 7.87204C7.36277 7.87218 7.3399 7.86506 7.32071 7.85165L6.75084 7.43714C6.73148 7.42319 6.70822 7.41568 6.68435 7.41568C6.66048 7.41568 6.63722 7.42319 6.61785 7.43714L6.04799 7.85165C6.0288 7.86506 6.00593 7.87218 5.98252 7.87204C5.95912 7.87189 5.93633 7.8645 5.91731 7.85086C5.89829 7.83722 5.88397 7.81802 5.87632 7.7959C5.86867 7.77378 5.86807 7.74984 5.8746 7.72736L6.09211 7.05806C6.09926 7.03541 6.09926 7.01111 6.09211 6.98846C6.08796 6.96942 6.07848 6.95196 6.06476 6.93812C6.35477 6.63983 6.6541 6.35334 6.96276 6.07866L7.01247 6.23216C7.01945 6.25556 7.03381 6.27607 7.05342 6.29063C7.07302 6.3052 7.09681 6.31302 7.12123 6.31294H7.82533C7.84915 6.3132 7.87228 6.32093 7.89147 6.33504C7.91066 6.34915 7.92493 6.36893 7.93228 6.39159C7.93962 6.41424 7.93967 6.43863 7.93241 6.46132C7.92516 6.484 7.91096 6.50384 7.89182 6.51802L7.32196 6.93129C7.30156 6.94504 7.28627 6.96514 7.27845 6.98846ZM4.08918 11.8824C4.0876 11.8979 4.08267 11.9129 4.07473 11.9263C4.06679 11.9397 4.05603 11.9512 4.04319 11.96L3.47332 12.3746C3.45452 12.3885 3.44048 12.408 3.43314 12.4302C3.4258 12.4525 3.42551 12.4764 3.43231 12.4988L3.64981 13.1688C3.65676 13.1913 3.65645 13.2155 3.64892 13.2378C3.64139 13.2602 3.62702 13.2796 3.60785 13.2933C3.58869 13.3071 3.56568 13.3144 3.5421 13.3144C3.51852 13.3143 3.49554 13.3069 3.47643 13.2931L2.90656 12.8798C2.88743 12.8653 2.86408 12.8574 2.84007 12.8574C2.81605 12.8574 2.7927 12.8653 2.77357 12.8798L2.32488 13.2061C2.46699 12.7536 2.62857 12.3112 2.80961 11.8786C2.88667 11.6922 2.96746 11.5095 3.0526 11.3268L3.16508 11.6742C3.17241 11.697 3.18675 11.7169 3.20606 11.7311C3.22536 11.7452 3.24865 11.7529 3.27259 11.7531H3.9767C3.99296 11.753 4.00905 11.7565 4.02387 11.7632C4.03868 11.7699 4.05188 11.7797 4.06256 11.792C4.07323 11.8042 4.08114 11.8187 4.08573 11.8343C4.09033 11.8499 4.0915 11.8663 4.08918 11.8824ZM14.8309 11.0086L15.0484 11.6785C15.056 11.7011 15.0704 11.7207 15.0897 11.7347C15.109 11.7486 15.1321 11.7561 15.1559 11.7562H15.86C15.8839 11.7563 15.9071 11.7638 15.9264 11.7779C15.9457 11.7919 15.96 11.8117 15.9674 11.8343C15.9748 11.857 15.9748 11.8814 15.9675 11.9041C15.9601 11.9268 15.9458 11.9466 15.9265 11.9607L15.3567 12.3746C15.3379 12.3885 15.3238 12.408 15.3165 12.4302C15.3091 12.4525 15.3089 12.4764 15.3157 12.4988L15.5338 13.1688C15.5405 13.1913 15.5399 13.2154 15.5323 13.2377C15.5246 13.2599 15.5102 13.2793 15.4911 13.2929C15.4719 13.3066 15.449 13.314 15.4254 13.314C15.4019 13.314 15.379 13.3067 15.3598 13.2931L14.7899 12.8792C14.7706 12.8653 14.7475 12.8578 14.7237 12.8578C14.7 12.8578 14.6768 12.8653 14.6575 12.8792L14.0877 13.2931C14.0685 13.3067 14.0455 13.314 14.022 13.314C13.9985 13.314 13.9755 13.3066 13.9564 13.2929C13.9372 13.2793 13.9228 13.2599 13.9152 13.2377C13.9075 13.2154 13.907 13.1913 13.9137 13.1688L14.1312 12.4988C14.1383 12.4764 14.1381 12.4524 14.1307 12.4301C14.1234 12.4078 14.1092 12.3883 14.0902 12.3746L13.5222 11.9607C13.5029 11.9466 13.4886 11.9268 13.4812 11.9041C13.4739 11.8814 13.4739 11.857 13.4813 11.8343C13.4887 11.8117 13.503 11.7919 13.5223 11.7779C13.5416 11.7638 13.5648 11.7563 13.5886 11.7562H14.2927C14.3166 11.7562 14.3398 11.7487 14.3591 11.7348C14.3784 11.7208 14.3928 11.7012 14.4003 11.6785L14.6178 11.0086C14.6256 10.9866 14.64 10.9675 14.6591 10.9541C14.6782 10.9406 14.701 10.9334 14.7243 10.9334C14.7477 10.9334 14.7705 10.9406 14.7896 10.9541C14.8087 10.9675 14.8231 10.9866 14.8309 11.0086ZM10.8126 11.0086L11.0301 11.6785C11.0376 11.7012 11.052 11.7208 11.0713 11.7348C11.0906 11.7487 11.1138 11.7562 11.1377 11.7562H11.8442C11.8681 11.7563 11.8913 11.7638 11.9106 11.7779C11.9299 11.7919 11.9442 11.8117 11.9516 11.8343C11.959 11.857 11.959 11.8814 11.9517 11.9041C11.9443 11.9268 11.93 11.9466 11.9107 11.9607L11.3409 12.3746C11.3218 12.3883 11.3076 12.4078 11.3003 12.4301C11.2929 12.4524 11.2928 12.4764 11.2998 12.4988L11.5174 13.1688C11.524 13.1913 11.5235 13.2154 11.5159 13.2377C11.5082 13.2599 11.4938 13.2793 11.4747 13.2929C11.4555 13.3066 11.4326 13.314 11.409 13.314C11.3855 13.314 11.3625 13.3067 11.3434 13.2931L10.7741 12.8792C10.7547 12.8652 10.7315 12.8577 10.7076 12.8577C10.6837 12.8577 10.6605 12.8652 10.6411 12.8792L10.0712 13.2931C10.0521 13.3067 10.0291 13.314 10.0056 13.314C9.98204 13.314 9.9591 13.3066 9.93995 13.2929C9.92079 13.2793 9.90639 13.2599 9.89873 13.2377C9.89108 13.2154 9.89055 13.1913 9.89724 13.1688L10.1154 12.4988C10.1222 12.4764 10.1219 12.4525 10.1145 12.4302C10.1072 12.408 10.0932 12.3885 10.0744 12.3746L9.50448 11.9607C9.48522 11.9466 9.4709 11.9268 9.46356 11.9041C9.45622 11.8814 9.45624 11.857 9.46361 11.8343C9.47099 11.8117 9.48534 11.7919 9.50462 11.7779C9.52391 11.7638 9.54713 11.7563 9.57098 11.7562H10.2751C10.2989 11.7561 10.322 11.7486 10.3413 11.7347C10.3606 11.7207 10.375 11.7011 10.3826 11.6785L10.6001 11.0086C10.608 10.9868 10.6225 10.968 10.6415 10.9547C10.6605 10.9414 10.6832 10.9342 10.7064 10.9342C10.7296 10.9342 10.7522 10.9414 10.7712 10.9547C10.7902 10.968 10.8047 10.9868 10.8126 11.0086ZM3.47332 17.7122C3.45437 17.726 3.44023 17.7455 3.43288 17.7677C3.42552 17.79 3.42532 17.8141 3.43231 17.8365L3.64981 18.507C3.65676 18.5296 3.65645 18.5537 3.64892 18.5761C3.64139 18.5984 3.62702 18.6178 3.60785 18.6316C3.58869 18.6453 3.56568 18.6527 3.5421 18.6526C3.51852 18.6526 3.49554 18.6451 3.47643 18.6313L2.90656 18.218C2.88731 18.2038 2.864 18.1961 2.84007 18.1961C2.81613 18.1961 2.79282 18.2038 2.77357 18.218L2.20432 18.6338C2.18522 18.6479 2.16216 18.6555 2.13844 18.6557C2.11472 18.6559 2.09155 18.6485 2.07225 18.6347C2.05295 18.621 2.0385 18.6014 2.03097 18.5789C2.02343 18.5564 2.02321 18.5321 2.03032 18.5095L2.24782 17.839C2.255 17.8166 2.2549 17.7925 2.24753 17.7701C2.24016 17.7478 2.22591 17.7284 2.20681 17.7147L1.63694 17.2977C1.625 17.2892 1.61486 17.2784 1.60711 17.266C1.60711 17.2231 1.61084 17.1802 1.61333 17.138C1.62366 17.1239 1.63726 17.1125 1.65295 17.1048C1.66865 17.0971 1.68597 17.0934 1.70344 17.0938H2.40754C2.43149 17.0937 2.45477 17.086 2.47408 17.0718C2.49338 17.0576 2.50772 17.0377 2.51505 17.0149L2.73256 16.3456C2.73996 16.3229 2.75435 16.3032 2.77366 16.2892C2.79297 16.2752 2.81621 16.2676 2.84007 16.2676C2.86392 16.2676 2.88716 16.2752 2.90647 16.2892C2.92578 16.3032 2.94017 16.3229 2.94758 16.3456L3.16508 17.0149C3.17241 17.0377 3.18675 17.0576 3.20606 17.0718C3.22536 17.086 3.24865 17.0937 3.27259 17.0938H3.9767C4.00058 17.0937 4.02389 17.1011 4.04328 17.115C4.06266 17.129 4.0771 17.1487 4.0845 17.1714C4.09191 17.1941 4.0919 17.2186 4.08447 17.2413C4.07704 17.264 4.06259 17.2837 4.04319 17.2977L3.47332 17.7122ZM14.8309 16.3456L15.0484 17.0155C15.0559 17.0382 15.0703 17.0578 15.0896 17.0718C15.1089 17.0857 15.1321 17.0932 15.1559 17.0932H15.86C15.8839 17.0933 15.9071 17.1008 15.9264 17.1149C15.9457 17.1289 15.96 17.1487 15.9674 17.1713C15.9748 17.194 15.9748 17.2184 15.9675 17.2411C15.9601 17.2638 15.9458 17.2836 15.9265 17.2977L15.3567 17.7116C15.338 17.7256 15.3241 17.7451 15.3167 17.7673C15.3094 17.7895 15.309 17.8134 15.3157 17.8358L15.5338 18.5051C15.5405 18.5277 15.5399 18.5518 15.5323 18.5741C15.5246 18.5963 15.5102 18.6156 15.4911 18.6293C15.4719 18.643 15.449 18.6504 15.4254 18.6504C15.4019 18.6504 15.379 18.6431 15.3598 18.6294L14.7899 18.2156C14.7706 18.2017 14.7475 18.1942 14.7237 18.1942C14.7 18.1942 14.6768 18.2017 14.6575 18.2156L14.0877 18.6294C14.0685 18.6431 14.0455 18.6504 14.022 18.6504C13.9985 18.6504 13.9755 18.643 13.9564 18.6293C13.9372 18.6156 13.9228 18.5963 13.9152 18.5741C13.9075 18.5518 13.907 18.5277 13.9137 18.5051L14.1312 17.8358C14.1381 17.8134 14.1378 17.7894 14.1305 17.7672C14.1231 17.7449 14.109 17.7255 14.0902 17.7116L13.5222 17.2977C13.5029 17.2836 13.4886 17.2638 13.4812 17.2411C13.4739 17.2184 13.4739 17.194 13.4813 17.1713C13.4887 17.1487 13.503 17.1289 13.5223 17.1149C13.5416 17.1008 13.5648 17.0933 13.5886 17.0932H14.2927C14.3166 17.0933 14.3398 17.0859 14.3592 17.0719C14.3785 17.0579 14.3929 17.0382 14.4003 17.0155L14.6178 16.3456C14.6256 16.3236 14.64 16.3046 14.6591 16.2911C14.6782 16.2776 14.701 16.2704 14.7243 16.2704C14.7477 16.2704 14.7705 16.2776 14.7896 16.2911C14.8087 16.3046 14.8231 16.3236 14.8309 16.3456ZM10.8126 16.3456L11.0301 17.0155C11.0375 17.0382 11.0519 17.0579 11.0712 17.0719C11.0906 17.0859 11.1138 17.0933 11.1377 17.0932H11.8442C11.8677 17.0941 11.8903 17.1023 11.9089 17.1167C11.9275 17.1311 11.9412 17.1509 11.948 17.1733C11.9549 17.1958 11.9545 17.2199 11.9471 17.2422C11.9396 17.2644 11.9254 17.2838 11.9064 17.2977L11.3365 17.7116C11.3176 17.7255 11.3036 17.7449 11.2962 17.7672C11.2889 17.7894 11.2886 17.8134 11.2955 17.8358L11.513 18.5051C11.5197 18.5277 11.5192 18.5518 11.5115 18.5741C11.5039 18.5963 11.4895 18.6156 11.4703 18.6293C11.4511 18.643 11.4282 18.6504 11.4047 18.6504C11.3811 18.6504 11.3582 18.6431 11.339 18.6294L10.7698 18.2156C10.7504 18.2016 10.7271 18.1941 10.7033 18.1941C10.6794 18.1941 10.6561 18.2016 10.6368 18.2156L10.0669 18.6294C10.0477 18.6431 10.0248 18.6504 10.0012 18.6504C9.97769 18.6504 9.95475 18.643 9.93559 18.6293C9.91644 18.6156 9.90203 18.5963 9.89438 18.5741C9.88673 18.5518 9.8862 18.5277 9.89289 18.5051L10.111 17.8358C10.1176 17.8134 10.1173 17.7895 10.1099 17.7673C10.1026 17.7451 10.0887 17.7256 10.07 17.7116L9.50013 17.2977C9.48087 17.2836 9.46655 17.2638 9.45921 17.2411C9.45187 17.2184 9.45189 17.194 9.45926 17.1713C9.46664 17.1487 9.48099 17.1289 9.50027 17.1149C9.51956 17.1008 9.54278 17.0933 9.56663 17.0932H10.2707C10.2945 17.0932 10.3178 17.0857 10.3371 17.0718C10.3564 17.0578 10.3708 17.0382 10.3782 17.0155L10.5957 16.3456C10.6027 16.3222 10.617 16.3017 10.6365 16.2871C10.6561 16.2725 10.6798 16.2646 10.7042 16.2646C10.7286 16.2646 10.7523 16.2725 10.7719 16.2871C10.7914 16.3017 10.8057 16.3222 10.8126 16.3456ZM6.79372 16.3456L7.01123 17.0155C7.01873 17.0386 7.0335 17.0587 7.05332 17.0727C7.07315 17.0867 7.09697 17.0939 7.12123 17.0932H7.82533C7.84918 17.0933 7.8724 17.1008 7.89168 17.1149C7.91097 17.1289 7.92532 17.1487 7.9327 17.1713C7.94007 17.194 7.94009 17.2184 7.93275 17.2411C7.92541 17.2638 7.91109 17.2836 7.89182 17.2977L7.32196 17.7116C7.30315 17.7255 7.28912 17.745 7.28178 17.7672C7.27443 17.7895 7.27414 17.8134 7.28094 17.8358L7.4941 18.5076C7.50104 18.5302 7.50073 18.5543 7.4932 18.5767C7.48567 18.599 7.4713 18.6184 7.45214 18.6322C7.43297 18.6459 7.40997 18.6533 7.38638 18.6532C7.3628 18.6532 7.33983 18.6457 7.32071 18.6319L6.75084 18.218C6.73148 18.2041 6.70822 18.1966 6.68435 18.1966C6.66048 18.1966 6.63722 18.2041 6.61785 18.218L6.04799 18.6319C6.02887 18.6457 6.0059 18.6532 5.98231 18.6532C5.95873 18.6533 5.93573 18.6459 5.91656 18.6322C5.89739 18.6184 5.88303 18.599 5.8755 18.5767C5.86797 18.5543 5.86766 18.5302 5.8746 18.5076L6.09211 17.8383C6.09891 17.8159 6.09861 17.7919 6.09127 17.7697C6.08393 17.7475 6.0699 17.728 6.05109 17.714L5.48122 17.3002C5.46196 17.2861 5.44764 17.2663 5.4403 17.2436C5.43296 17.2209 5.43298 17.1965 5.44035 17.1738C5.44773 17.1511 5.46208 17.1314 5.48136 17.1174C5.50065 17.1033 5.52387 17.0957 5.54772 17.0957H6.2512C6.27504 17.0958 6.2983 17.0884 6.31762 17.0744C6.33695 17.0604 6.35133 17.0407 6.35871 17.018L6.57622 16.3481C6.58269 16.3244 6.59672 16.3034 6.61617 16.2884C6.63563 16.2734 6.65945 16.2651 6.68403 16.2648C6.70861 16.2645 6.73262 16.2723 6.75241 16.2868C6.7722 16.3014 6.78671 16.3221 6.79372 16.3456Z" fill="white"/>
<path d="M19.4259 2.20641C19.1773 2.23562 18.9288 2.27228 18.6802 2.3133C17.0278 2.59165 15.4303 3.13163 13.9478 3.91291C13.8944 3.94025 13.8416 3.96946 13.7888 3.99743C13.4722 4.16853 13.1627 4.34979 12.8603 4.54119H9.01416C9.31701 4.34979 9.62649 4.16853 9.94261 3.99743C12.1815 2.78576 14.6799 2.13275 17.2254 2.09393H17.7735C18.078 2.09828 18.38 2.11257 18.6802 2.13432C18.9288 2.15255 19.1773 2.17658 19.4259 2.20641Z" fill="#DB1B1B"/>
<path d="M12.8603 4.54119C12.5446 4.73923 12.237 4.94886 11.9375 5.1701C11.8672 5.22106 11.7976 5.27326 11.728 5.32608C11.4589 5.53116 11.1973 5.74308 10.9425 5.96431C10.8972 6.00222 10.8524 6.04137 10.8077 6.08114C10.523 6.33283 10.2484 6.5957 9.98238 6.86665L10.0719 6.9288C10.0913 6.94295 10.1057 6.963 10.1129 6.98597H6.01753C6.03245 6.96982 6.04923 6.95428 6.06476 6.93812C6.35477 6.63983 6.6541 6.35334 6.96276 6.07866C7.25981 5.81641 7.56536 5.56472 7.88188 5.3236C8.24729 5.04643 8.62762 4.78356 9.01416 4.53871L12.8603 4.54119Z" fill="white"/>
<path d="M9.86368 6.98846C9.47495 7.39376 9.10779 7.81921 8.76372 8.26305L8.65745 8.40225C8.59965 8.47869 8.54248 8.55513 8.48593 8.63281L8.37034 8.9889C8.36299 9.01164 8.34862 9.03146 8.32931 9.04553C8.31 9.05959 8.28672 9.06718 8.26283 9.0672H8.17769C8.09442 9.19149 8.01363 9.31206 7.93408 9.43572L4.09042 9.4351C4.31697 9.08143 4.55745 8.73687 4.8113 8.40225C5.18558 7.90796 5.58834 7.4359 6.01753 6.98846H9.86368Z" fill="#DB1B1B"/>
<path d="M7.93657 9.4351L7.86821 9.54386L7.81414 9.62962C7.47484 10.1775 7.16915 10.7455 6.89875 11.3305C6.81361 11.5126 6.73282 11.6953 6.65576 11.8817L2.80961 11.8824C2.88667 11.6959 2.96746 11.5132 3.0526 11.3305C3.323 10.7455 3.62869 10.1775 3.968 9.62962C4.00839 9.56747 4.0494 9.50035 4.09228 9.4351H7.93657Z" fill="white"/>
<path d="M6.65576 11.8817C6.47471 12.3143 6.31314 12.757 6.17103 13.2085C6.05503 13.576 5.95145 13.9489 5.86031 14.3271H2.01665C2.10531 13.9481 2.20888 13.5752 2.32737 13.2085C2.46947 12.7561 2.63105 12.3137 2.8121 11.8811L6.65576 11.8817Z" fill="#DB1B1B"/>
<path d="M5.87833 14.5776L5.7907 14.6397C5.63852 15.3436 5.5347 16.057 5.47998 16.775L1.63694 16.7763C1.69922 15.9518 1.82618 15.1336 2.01665 14.329L5.86279 14.3278C5.85906 14.3445 5.85471 14.3619 5.85099 14.3781C5.87064 14.385 5.888 14.3972 5.90118 14.4133C5.91435 14.4294 5.92282 14.4489 5.92565 14.4695C5.92847 14.4901 5.92555 14.5111 5.9172 14.5302C5.90885 14.5493 5.8954 14.5657 5.87833 14.5776Z" fill="white"/>
<path d="M5.43648 17.9999C5.43648 18.4113 5.45202 18.8192 5.48309 19.2235H1.63694C1.60587 18.8196 1.59033 18.4117 1.59033 17.9999V17.2076C1.59039 17.2282 1.5962 17.2484 1.60711 17.266C1.60711 17.2231 1.61084 17.1802 1.61333 17.138C1.61954 17.0168 1.62762 16.8968 1.63694 16.7763L5.48309 16.7763C5.47377 16.8968 5.46569 17.0168 5.45947 17.138C5.45947 17.1802 5.45512 17.2231 5.45326 17.266C5.44761 17.2574 5.44341 17.248 5.44083 17.238C5.44083 17.2324 5.44083 17.2274 5.43772 17.2225C5.43739 17.2175 5.43739 17.2125 5.43772 17.2076L5.43648 17.9999Z" fill="#DB1B1B"/>
<path d="M5.86279 21.6708H2.01665C1.82613 20.8663 1.69917 20.048 1.63694 19.2235H5.48309C5.54531 20.048 5.67227 20.8663 5.86279 21.6708Z" fill="#DBDBDB"/>
<path d="M6.65576 24.1175H2.80961C2.47859 23.325 2.21337 22.5067 2.01665 21.6708H5.86279C6.05952 22.5067 6.32474 23.325 6.65576 24.1175Z" fill="#C11A1A"/>
<path d="M7.93657 26.5647H4.09042C3.59279 25.788 3.16422 24.9691 2.80961 24.1175H6.65576C7.01037 24.9691 7.43894 25.788 7.93657 26.5647Z" fill="#DBDBDB"/>
<path d="M9.86368 29.012H6.01753C5.29731 28.2608 4.65147 27.4412 4.09042 26.5647H7.93657C8.49762 27.4412 9.14346 28.2608 9.86368 29.012Z" fill="#C11A1A"/>
<path d="M12.8603 31.4592H9.01416C7.91986 30.7679 6.91361 29.9461 6.01753 29.012H9.86368C10.7598 29.9461 11.766 30.7679 12.8603 31.4592Z" fill="#DBDBDB"/>
<path d="M19.4259 33.7934C18.8897 33.8597 18.3504 33.8983 17.8101 33.909H17.1887C14.2903 33.8584 11.4615 33.012 9.01167 31.4624H12.8578C14.8463 32.7188 17.0903 33.5152 19.4259 33.7934Z" fill="#C11A1A"/>
<path d="M18.6802 2.13432V2.3133C17.0278 2.59165 15.4303 3.13163 13.9478 3.91291C13.8944 3.94025 13.8416 3.96946 13.7888 3.99743C13.4722 4.16853 13.1627 4.34979 12.8603 4.54119C12.5446 4.73923 12.237 4.94886 11.9375 5.1701C11.8672 5.22106 11.7976 5.27326 11.728 5.32608C11.4589 5.53116 11.1973 5.74308 10.9425 5.96431C10.8972 6.00222 10.8524 6.04137 10.8077 6.08114C10.523 6.33283 10.2484 6.5957 9.98238 6.86665L10.0719 6.9288C10.0913 6.94295 10.1057 6.963 10.1129 6.98597L9.8643 6.98569C9.47557 7.39099 9.10841 7.81644 8.76434 8.26028L8.65807 8.39949C8.60028 8.47592 8.5431 8.55236 8.48655 8.63004L8.37034 8.9889C8.36299 9.01164 8.34862 9.03146 8.32931 9.04553C8.31 9.05959 8.28672 9.06718 8.26283 9.0672H8.17769C8.09442 9.19149 8.01363 9.31206 7.93408 9.43572L7.86572 9.5442L7.81166 9.62996C7.47236 10.1779 7.16666 10.7459 6.89626 11.3309C6.81112 11.5129 6.73034 11.6957 6.65328 11.8821C6.47388 12.3146 6.31314 12.757 6.17103 13.2085C6.05503 13.576 5.95145 13.9489 5.86031 14.3271C5.85658 14.3439 5.85223 14.361 5.8485 14.3772C5.86799 14.384 5.88524 14.396 5.89838 14.4119C5.91153 14.4279 5.92007 14.4471 5.92308 14.4675C5.92609 14.4879 5.92345 14.5088 5.91545 14.5278C5.90746 14.5468 5.8944 14.5633 5.87771 14.5754L5.79008 14.6376C5.6379 15.3414 5.53408 16.0549 5.47936 16.7729C5.47004 16.8934 5.46196 17.0134 5.45574 17.1346C5.45574 17.1768 5.45139 17.2197 5.44953 17.2626C5.44388 17.254 5.43969 17.2446 5.4371 17.2346C5.4371 17.229 5.4371 17.2241 5.43399 17.2191C5.43366 17.2141 5.43366 17.2091 5.43399 17.2042V17.9996C5.43399 18.411 5.44953 18.8189 5.4806 19.2233L1.63694 19.2235C1.60587 18.8196 1.59033 18.4117 1.59033 17.9999V17.2076C1.59039 17.2282 1.5962 17.2484 1.60711 17.266C1.60711 17.2231 1.61084 17.1802 1.61333 17.138C1.61954 17.0168 1.62762 16.8968 1.63694 16.7763C1.69922 15.9518 1.82618 15.1336 2.01665 14.329C2.10531 13.9499 2.20888 13.5771 2.32737 13.2104C2.46947 12.758 2.63105 12.3155 2.8121 11.883C2.88916 11.6966 2.96995 11.5136 3.05509 11.3309C3.32549 10.7459 3.63118 10.1779 3.97048 9.62996C4.01088 9.56781 4.05189 9.50069 4.09477 9.43544C4.32132 9.08177 4.5618 8.73721 4.81565 8.40259C5.1885 7.90821 5.58981 7.43622 6.01753 6.98846C6.03245 6.9723 6.04799 6.95676 6.06352 6.94061C6.35353 6.64231 6.65286 6.35582 6.96151 6.08114C7.25857 5.81889 7.56536 5.56721 7.88188 5.32608C8.24729 5.04892 8.62762 4.78604 9.01416 4.54119C9.31701 4.34979 9.62649 4.16853 9.94261 3.99743C12.1815 2.78576 14.6799 2.13275 17.2254 2.09393H17.7735C18.078 2.09828 18.38 2.11257 18.6802 2.13432Z" fill="#32314B"/>
<path d="M9.28511 4.54119C9.27944 4.56152 9.27944 4.58301 9.28511 4.60334L9.50324 5.27202C9.50993 5.29458 9.5094 5.31867 9.50175 5.34093C9.49409 5.36319 9.47969 5.3825 9.46054 5.39618C9.44138 5.40986 9.41844 5.41722 9.39491 5.41725C9.37137 5.41727 9.34841 5.40995 9.32924 5.39631L8.75937 4.98304C8.7401 4.96914 8.71694 4.96166 8.69318 4.96166C8.66942 4.96166 8.64627 4.96914 8.627 4.98304L8.05713 5.39631C8.04169 5.40772 8.02358 5.415 8.00453 5.41743C7.98548 5.41987 7.96612 5.41738 7.9483 5.41022C7.93048 5.40305 7.91479 5.39145 7.90273 5.3765C7.89067 5.36155 7.88264 5.34377 7.8794 5.32484C8.24481 5.04767 8.62513 4.7848 9.01167 4.53995C9.31453 4.34854 9.62401 4.16729 9.94012 3.99618C9.933 4.02136 9.91741 4.0433 9.896 4.05833L9.32613 4.47221C9.30461 4.48953 9.29005 4.51402 9.28511 4.54119ZM8.76372 8.26305L8.65745 8.40225C8.59965 8.47869 8.54248 8.55513 8.48593 8.63281L8.58785 8.32209C8.59297 8.30461 8.60225 8.28863 8.61487 8.2755C8.6275 8.26238 8.64312 8.2525 8.66038 8.2467C8.67765 8.2409 8.69606 8.23936 8.71405 8.24221C8.73204 8.24506 8.74908 8.25221 8.76372 8.26305ZM5.87833 9.27166L5.65274 9.4351L5.30846 9.68368C5.28958 9.69759 5.2755 9.71703 5.26815 9.73929C5.2608 9.76156 5.26055 9.78556 5.26745 9.80797L5.48682 10.4804C5.49311 10.5029 5.49231 10.5268 5.48454 10.5488C5.47677 10.5708 5.4624 10.59 5.44339 10.6035C5.42438 10.6171 5.40164 10.6245 5.37828 10.6247C5.35492 10.6249 5.33206 10.6179 5.31281 10.6047L4.74356 10.1902C4.7242 10.1762 4.70094 10.1687 4.67707 10.1687C4.6532 10.1687 4.62994 10.1762 4.61057 10.1902L4.0407 10.6047C4.02146 10.6179 3.9986 10.6249 3.97524 10.6247C3.95187 10.6245 3.92914 10.6171 3.91013 10.6035C3.89111 10.59 3.87675 10.5708 3.86898 10.5488C3.86121 10.5268 3.86041 10.5029 3.8667 10.4804L4.08483 9.81108C4.09144 9.78865 4.09106 9.76474 4.08373 9.74253C4.0764 9.72032 4.06248 9.70088 4.04381 9.68679L3.968 9.63148C4.00839 9.56934 4.04941 9.50222 4.09229 9.43697C4.31883 9.08329 4.55932 8.73874 4.81317 8.40412L5.00209 8.9889C5.00944 9.01164 5.0238 9.03146 5.04312 9.04553C5.06243 9.05959 5.0857 9.06718 5.1096 9.0672H5.81618C5.83948 9.06848 5.86182 9.07688 5.88017 9.09128C5.89853 9.10567 5.91201 9.12537 5.9188 9.14769C5.92558 9.17001 5.92534 9.19388 5.9181 9.21605C5.91086 9.23823 5.89698 9.25764 5.87833 9.27166ZM5.87833 14.5776L5.7907 14.6397L5.30846 14.9915C5.28944 15.0053 5.27524 15.0247 5.26788 15.047C5.26052 15.0693 5.26036 15.0934 5.26745 15.1158L5.48495 15.7857C5.49164 15.8083 5.49112 15.8323 5.48346 15.8546C5.47581 15.8769 5.4614 15.8962 5.44225 15.9099C5.4231 15.9235 5.40015 15.9309 5.37662 15.9309C5.35308 15.9309 5.33013 15.9236 5.31095 15.91L4.7417 15.4961C4.72234 15.4821 4.69907 15.4746 4.6752 15.4746C4.65134 15.4746 4.62807 15.4821 4.60871 15.4961L4.03884 15.91C4.01966 15.9236 3.99671 15.9309 3.97317 15.9309C3.94963 15.9309 3.92669 15.9235 3.90754 15.9099C3.88839 15.8962 3.87398 15.8769 3.86633 15.8546C3.85867 15.8323 3.85815 15.8083 3.86483 15.7857L4.08296 15.1158C4.08976 15.0933 4.08947 15.0694 4.08213 15.0471C4.07479 15.0249 4.06075 15.0054 4.04195 14.9915L3.47208 14.5776C3.45282 14.5635 3.43849 14.5437 3.43115 14.5211C3.42381 14.4984 3.42383 14.4739 3.43121 14.4513C3.43858 14.4286 3.45294 14.4088 3.47222 14.3948C3.4915 14.3808 3.51473 14.3732 3.53857 14.3731H4.24454C4.26184 14.3731 4.2789 14.3679 4.29441 14.3602C4.30993 14.3526 4.32348 14.3415 4.33403 14.3278C4.34173 14.3174 4.34781 14.3058 4.35205 14.2936L4.56956 13.6255C4.57697 13.6029 4.59135 13.5831 4.61066 13.5691C4.62997 13.5551 4.65321 13.5476 4.67707 13.5476C4.70092 13.5476 4.72417 13.5551 4.74347 13.5691C4.76278 13.5831 4.77717 13.6029 4.78458 13.6255L5.00209 14.2936C5.00633 14.3058 5.01241 14.3174 5.02011 14.3278C5.03066 14.3415 5.04421 14.3526 5.05972 14.3602C5.07524 14.3679 5.0923 14.3731 5.1096 14.3731H5.81618C5.82887 14.3732 5.84146 14.374 5.85347 14.3781C5.87296 14.3853 5.8901 14.3977 5.90301 14.4139C5.91592 14.4302 5.92308 14.4489 5.92565 14.4695C5.92847 14.4901 5.92555 14.5111 5.9172 14.5302C5.90885 14.5493 5.8954 14.5657 5.87833 14.5776ZM7.27845 6.98846C7.2713 7.01111 7.2713 7.03541 7.27845 7.05806L7.4941 7.72736C7.50063 7.74984 7.50003 7.77378 7.49238 7.7959C7.48473 7.81802 7.47041 7.83722 7.45139 7.85086C7.43236 7.8645 7.40958 7.87189 7.38618 7.87204C7.36277 7.87218 7.3399 7.86506 7.32071 7.85165L6.75084 7.43714C6.73148 7.42319 6.70822 7.41568 6.68435 7.41568C6.66048 7.41568 6.63722 7.42319 6.61785 7.43714L6.04799 7.85165C6.0288 7.86506 6.00593 7.87218 5.98252 7.87204C5.95912 7.87189 5.93633 7.8645 5.91731 7.85086C5.89829 7.83722 5.88397 7.81802 5.87632 7.7959C5.86867 7.77378 5.86807 7.74984 5.8746 7.72736L6.09211 7.05806C6.09926 7.03541 6.09926 7.01111 6.09211 6.98846C6.08796 6.96942 6.07848 6.95196 6.06476 6.93812C6.35477 6.63983 6.6541 6.35334 6.96276 6.07866L7.01247 6.23216C7.01945 6.25556 7.03381 6.27607 7.05342 6.29063C7.07302 6.3052 7.09681 6.31302 7.12123 6.31294H7.82533C7.84915 6.3132 7.87228 6.32093 7.89147 6.33504C7.91066 6.34915 7.92493 6.36893 7.93228 6.39159C7.93962 6.41424 7.93967 6.43863 7.93241 6.46132C7.92516 6.484 7.91096 6.50384 7.89182 6.51802L7.32196 6.93129C7.30156 6.94504 7.28627 6.96514 7.27845 6.98846ZM4.08918 11.8824C4.0876 11.8979 4.08267 11.9129 4.07473 11.9263C4.06679 11.9397 4.05603 11.9512 4.04319 11.96L3.47332 12.3746C3.45452 12.3885 3.44048 12.408 3.43314 12.4302C3.4258 12.4525 3.42551 12.4764 3.43231 12.4988L3.64981 13.1688C3.65676 13.1913 3.65645 13.2155 3.64892 13.2378C3.64139 13.2602 3.62702 13.2796 3.60785 13.2933C3.58869 13.3071 3.56568 13.3144 3.5421 13.3144C3.51852 13.3143 3.49554 13.3069 3.47643 13.2931L2.90656 12.8798C2.88743 12.8653 2.86408 12.8574 2.84007 12.8574C2.81605 12.8574 2.7927 12.8653 2.77357 12.8798L2.32488 13.2061C2.46699 12.7536 2.62857 12.3112 2.80961 11.8786C2.88667 11.6922 2.96746 11.5095 3.0526 11.3268L3.16508 11.6742C3.17241 11.697 3.18675 11.7169 3.20606 11.7311C3.22536 11.7452 3.24865 11.7529 3.27259 11.7531H3.9767C3.99296 11.753 4.00905 11.7565 4.02387 11.7632C4.03868 11.7699 4.05188 11.7797 4.06256 11.792C4.07323 11.8042 4.08114 11.8187 4.08573 11.8343C4.09033 11.8499 4.0915 11.8663 4.08918 11.8824ZM3.47332 17.7122C3.45437 17.726 3.44023 17.7455 3.43288 17.7677C3.42552 17.79 3.42532 17.8141 3.43231 17.8365L3.64981 18.507C3.65676 18.5296 3.65645 18.5537 3.64892 18.5761C3.64139 18.5984 3.62702 18.6178 3.60785 18.6316C3.58869 18.6453 3.56568 18.6527 3.5421 18.6526C3.51852 18.6526 3.49554 18.6451 3.47643 18.6313L2.90656 18.218C2.88731 18.2038 2.864 18.1961 2.84007 18.1961C2.81613 18.1961 2.79282 18.2038 2.77357 18.218L2.20432 18.6338C2.18522 18.6479 2.16216 18.6555 2.13844 18.6557C2.11472 18.6559 2.09155 18.6485 2.07225 18.6347C2.05295 18.621 2.0385 18.6014 2.03097 18.5789C2.02343 18.5564 2.02321 18.5321 2.03032 18.5095L2.24782 17.839C2.255 17.8166 2.2549 17.7925 2.24753 17.7701C2.24016 17.7478 2.22591 17.7284 2.20681 17.7147L1.63694 17.2977C1.625 17.2892 1.61486 17.2784 1.60711 17.266C1.60711 17.2231 1.61084 17.1802 1.61333 17.138C1.62366 17.1239 1.63726 17.1125 1.65295 17.1048C1.66865 17.0971 1.68597 17.0934 1.70344 17.0938H2.40754C2.43149 17.0937 2.45477 17.086 2.47408 17.0718C2.49338 17.0576 2.50772 17.0377 2.51505 17.0149L2.73256 16.3456C2.73996 16.3229 2.75435 16.3032 2.77366 16.2892C2.79297 16.2752 2.81621 16.2676 2.84007 16.2676C2.86392 16.2676 2.88716 16.2752 2.90647 16.2892C2.92578 16.3032 2.94017 16.3229 2.94758 16.3456L3.16508 17.0149C3.17241 17.0377 3.18675 17.0576 3.20606 17.0718C3.22536 17.086 3.24865 17.0937 3.27259 17.0938H3.9767C4.00058 17.0937 4.02389 17.1011 4.04328 17.115C4.06266 17.129 4.0771 17.1487 4.0845 17.1714C4.09191 17.1941 4.0919 17.2186 4.08447 17.2413C4.07704 17.264 4.06259 17.2837 4.04319 17.2977L3.47332 17.7122Z" fill="#DBDBDB"/>
<path d="M5.43772 17.2076C5.43781 17.1825 5.44462 17.1581 5.45947 17.138C5.45947 17.1802 5.45512 17.2231 5.45326 17.266C5.44761 17.2574 5.44341 17.248 5.44083 17.238C5.44083 17.2324 5.44083 17.2274 5.43772 17.2225C5.43739 17.2175 5.43739 17.2125 5.43772 17.2076ZM6.79372 11.0086L7.01123 11.6785C7.01882 11.7016 7.0336 11.7215 7.05341 11.7355C7.07321 11.7495 7.09699 11.7568 7.12123 11.7562H7.82533C7.84918 11.7563 7.8724 11.7638 7.89168 11.7779C7.91097 11.7919 7.92532 11.8117 7.9327 11.8343C7.94007 11.857 7.94009 11.8814 7.93275 11.9041C7.92541 11.9268 7.91108 11.9466 7.89182 11.9607L7.32195 12.3746C7.30301 12.3884 7.28886 12.4078 7.28151 12.4301C7.27415 12.4524 7.27395 12.4764 7.28094 12.4988L7.4941 13.1706C7.50104 13.1932 7.50073 13.2173 7.4932 13.2397C7.48567 13.262 7.4713 13.2814 7.45214 13.2952C7.43297 13.3089 7.40997 13.3163 7.38638 13.3162C7.3628 13.3162 7.33983 13.3087 7.32071 13.2949L6.75084 12.881C6.73148 12.8671 6.70822 12.8596 6.68435 12.8596C6.66048 12.8596 6.63722 12.8671 6.61785 12.881L6.04798 13.2949C6.02887 13.3087 6.0059 13.3162 5.98231 13.3162C5.95873 13.3163 5.93573 13.3089 5.91656 13.2952C5.89739 13.2814 5.88303 13.262 5.8755 13.2397C5.86797 13.2173 5.86765 13.1932 5.8746 13.1706L6.09211 12.5007C6.09909 12.4783 6.09889 12.4543 6.09154 12.432C6.08418 12.4097 6.07004 12.3903 6.05109 12.3764L5.48122 11.9625C5.46196 11.9485 5.44764 11.9287 5.4403 11.906C5.43296 11.8833 5.43298 11.8589 5.44035 11.8362C5.44773 11.8135 5.46208 11.7938 5.48136 11.7797C5.50065 11.7657 5.52387 11.7581 5.54772 11.7581H6.2512C6.27502 11.7581 6.29823 11.7506 6.31754 11.7367C6.33684 11.7227 6.35125 11.703 6.35871 11.6804L6.57622 11.0105C6.58276 10.9868 6.59685 10.9659 6.61635 10.9509C6.63584 10.9359 6.65969 10.9277 6.68427 10.9275C6.70885 10.9273 6.73283 10.9351 6.75258 10.9497C6.77233 10.9644 6.78677 10.985 6.79372 11.0086Z" fill="white"/>
<path d="M6.89875 11.3305C6.81361 11.5126 6.73282 11.6953 6.65576 11.8817C6.47471 12.3143 6.31314 12.757 6.17103 13.2085L6.04985 13.2955C6.03074 13.3094 6.00776 13.3168 5.98418 13.3169C5.96059 13.3169 5.93759 13.3095 5.91842 13.2958C5.89926 13.2821 5.88489 13.2626 5.87736 13.2403C5.86983 13.2179 5.86952 13.1938 5.87646 13.1713L6.09397 12.5013C6.10096 12.4789 6.10076 12.4549 6.0934 12.4326C6.08605 12.4103 6.07191 12.3909 6.05296 12.377L5.48309 11.9625C5.47025 11.9537 5.45949 11.9422 5.45155 11.9288C5.4436 11.9153 5.43868 11.9004 5.4371 11.8849C5.43554 11.8691 5.43728 11.8533 5.44223 11.8383C5.44717 11.8233 5.45519 11.8095 5.46579 11.7978C5.47638 11.7861 5.48932 11.7767 5.50375 11.7703C5.51818 11.7639 5.53379 11.7606 5.54958 11.7606H6.2512C6.27515 11.7604 6.29843 11.7527 6.31774 11.7385C6.33704 11.7243 6.35138 11.7032 6.35871 11.6804L6.57622 11.0105C6.58362 10.9878 6.59801 10.9693 6.61732 10.9553C6.63663 10.9413 6.65987 10.9337 6.68373 10.9337C6.70758 10.9337 6.73082 10.9413 6.75013 10.9553C6.76944 10.9693 6.78383 10.989 6.79124 11.0117L6.89875 11.3305Z" fill="#DBDBDB"/>
<path d="M8.80287 8.31898L9.02037 8.9889C9.02783 9.01152 9.04224 9.03121 9.06155 9.04516C9.08085 9.05911 9.10407 9.0666 9.12788 9.06658H9.83199C9.85583 9.06662 9.87906 9.0742 9.89834 9.08823C9.91762 9.10226 9.93198 9.12203 9.93935 9.14471C9.94673 9.16738 9.94675 9.19181 9.93941 9.2145C9.93207 9.23719 9.91774 9.25698 9.89848 9.27104L9.32861 9.68493C9.30981 9.69889 9.29577 9.71833 9.28843 9.74058C9.28109 9.76283 9.2808 9.7868 9.2876 9.80921L9.50573 10.4804C9.51241 10.5029 9.51189 10.527 9.50423 10.5493C9.49658 10.5715 9.48217 10.5909 9.46302 10.6045C9.44387 10.6182 9.42093 10.6256 9.39739 10.6256C9.37386 10.6256 9.3509 10.6183 9.33172 10.6047L8.76185 10.1908C8.74258 10.1769 8.71943 10.1694 8.69567 10.1694C8.67191 10.1694 8.64875 10.1769 8.62948 10.1908L8.05961 10.6047C8.04044 10.6183 8.01748 10.6256 7.99394 10.6256C7.97041 10.6256 7.94747 10.6182 7.92831 10.6045C7.90916 10.5909 7.89475 10.5715 7.8871 10.5493C7.87945 10.527 7.87892 10.5029 7.88561 10.4804L8.10312 9.81046C8.1102 9.78806 8.11004 9.764 8.10268 9.74169C8.09532 9.71938 8.08112 9.69995 8.0621 9.68617L7.4941 9.27104C7.4751 9.25721 7.46088 9.23781 7.45342 9.21553C7.44595 9.19324 7.44562 9.16919 7.45245 9.14671C7.45928 9.12423 7.47295 9.10443 7.49155 9.09007C7.51015 9.07571 7.53276 9.0675 7.55624 9.06658H8.26034C8.2846 9.06724 8.30948 9.05953 8.32931 9.04553C8.34862 9.03146 8.36299 9.01164 8.37034 8.9889L8.58785 8.31898C8.59525 8.29631 8.60964 8.27656 8.62895 8.26255C8.64826 8.24855 8.6715 8.241 8.69536 8.241C8.71921 8.241 8.74245 8.24855 8.76176 8.26255C8.78107 8.27656 8.79546 8.29631 8.80287 8.31898Z" fill="white"/>
<path d="M7.55624 9.06658L8.17769 9.0672C8.09442 9.19149 8.01363 9.31206 7.93408 9.43572L7.86572 9.5442L7.71533 9.4351L7.4941 9.27104C7.4751 9.25721 7.46088 9.23781 7.45342 9.21553C7.44595 9.19324 7.44562 9.16919 7.45245 9.14671C7.45928 9.12423 7.47295 9.10443 7.49155 9.09007C7.51015 9.07571 7.53276 9.0675 7.55624 9.06658Z" fill="#DBDBDB"/>
<path d="M10.8126 5.56534L11.0301 6.23526C11.0375 6.25793 11.0519 6.27767 11.0712 6.29164C11.0906 6.3056 11.1138 6.31306 11.1377 6.31294H11.8442C11.8677 6.31386 11.8903 6.32207 11.9089 6.33643C11.9275 6.35079 11.9412 6.37059 11.948 6.39307C11.9549 6.41555 11.9545 6.4396 11.9471 6.46189C11.9396 6.48417 11.9254 6.50357 11.9064 6.5174L11.3365 6.93129C11.3175 6.94507 11.3033 6.9645 11.2959 6.98681C11.2886 7.00911 11.2884 7.03317 11.2955 7.05557L11.513 7.7255C11.5197 7.74806 11.5192 7.77215 11.5115 7.79441C11.5039 7.81667 11.4895 7.83598 11.4703 7.84966C11.4511 7.86334 11.4282 7.8707 11.4047 7.87073C11.3811 7.87075 11.3582 7.86343 11.339 7.84979L10.7698 7.4359C10.7504 7.42195 10.7271 7.41444 10.7033 7.41444C10.6794 7.41444 10.6561 7.42195 10.6368 7.4359L10.0669 7.84979C10.0477 7.86343 10.0248 7.87075 10.0012 7.87073C9.97769 7.8707 9.95475 7.86334 9.93559 7.84966C9.91644 7.83598 9.90203 7.81667 9.89438 7.79441C9.88672 7.77215 9.8862 7.74806 9.89289 7.7255L10.111 7.05557C10.1178 7.03316 10.1175 7.00919 10.1102 6.98694C10.1028 6.96469 10.0888 6.94526 10.07 6.93129L9.50013 6.5174C9.48087 6.50334 9.46655 6.48355 9.45921 6.46086C9.45187 6.43817 9.45189 6.41374 9.45926 6.39107C9.46664 6.36839 9.48099 6.34862 9.50027 6.33459C9.51956 6.32056 9.54278 6.31298 9.56663 6.31294H10.2707C10.2945 6.31296 10.3178 6.30547 10.3371 6.29152C10.3564 6.27757 10.3708 6.25788 10.3782 6.23526L10.5957 5.56534C10.6027 5.54196 10.617 5.52144 10.6365 5.50685C10.6561 5.49226 10.6798 5.48437 10.7042 5.48437C10.7286 5.48437 10.7523 5.49226 10.7719 5.50685C10.7914 5.52144 10.8057 5.54196 10.8126 5.56534Z" fill="white"/>
<path d="M10.9425 5.96431C10.8972 6.00222 10.8524 6.04137 10.8077 6.08114C10.523 6.33283 10.2484 6.5957 9.98238 6.86665L9.502 6.51802C9.48247 6.50405 9.46672 6.48367 9.45921 6.46086C9.45187 6.43817 9.45189 6.41374 9.45926 6.39107C9.46664 6.36839 9.48099 6.34862 9.50027 6.33459C9.51974 6.32053 9.54448 6.3128 9.56849 6.31294H10.2726C10.2965 6.31283 10.3197 6.3052 10.339 6.29115C10.3583 6.27709 10.3727 6.25732 10.3801 6.23464L10.5976 5.56596C10.605 5.54329 10.6194 5.52354 10.6387 5.50953C10.658 5.49553 10.6813 5.48799 10.7051 5.48799C10.729 5.48799 10.7522 5.49553 10.7715 5.50953C10.7908 5.52354 10.8052 5.54267 10.8126 5.56534L10.9425 5.96431Z" fill="#DBDBDB"/>
<path d="M12.8218 3.11L13.0393 3.7793C13.0468 3.80244 13.0615 3.82256 13.0813 3.83666C13.1011 3.85077 13.125 3.85811 13.1493 3.8576H13.8534C13.8772 3.85764 13.9005 3.86522 13.9197 3.87925C13.939 3.89328 13.9534 3.91304 13.9608 3.93572C13.9681 3.9584 13.9681 3.98283 13.9608 4.00552C13.9535 4.02821 13.9391 4.048 13.9199 4.06206L13.35 4.47594C13.3311 4.48979 13.3169 4.50922 13.3096 4.53151C13.3022 4.55379 13.302 4.57782 13.309 4.60023L13.5222 5.27202C13.5291 5.29455 13.5288 5.31871 13.5213 5.34106C13.5137 5.36341 13.4994 5.38282 13.4802 5.39656C13.461 5.4103 13.438 5.41767 13.4144 5.41763C13.3909 5.41758 13.3679 5.41012 13.3488 5.39631L12.7789 4.98242C12.7595 4.96847 12.7363 4.96096 12.7124 4.96096C12.6885 4.96096 12.6653 4.96847 12.6459 4.98242L12.076 5.39631C12.0569 5.41012 12.034 5.41758 12.0104 5.41763C11.9868 5.41767 11.9638 5.4103 11.9446 5.39656C11.9254 5.38282 11.9111 5.36341 11.9036 5.34106C11.896 5.31871 11.8957 5.29455 11.9027 5.27202L12.1202 4.6021C12.1271 4.57969 12.1269 4.55566 12.1196 4.53337C12.1122 4.51108 12.0981 4.49165 12.0791 4.47781L11.5093 4.06392C11.49 4.04986 11.4757 4.03007 11.4684 4.00738C11.461 3.98469 11.461 3.96026 11.4684 3.93759C11.4758 3.91491 11.4901 3.89514 11.5094 3.88111C11.5287 3.86708 11.5519 3.8595 11.5758 3.85946H12.2793C12.3031 3.85944 12.3264 3.85185 12.3457 3.83779C12.365 3.82372 12.3794 3.8039 12.3868 3.78116L12.6043 3.11186C12.6108 3.08817 12.6249 3.06725 12.6444 3.05228C12.6639 3.0373 12.6877 3.02909 12.7123 3.02888C12.7369 3.02867 12.7609 3.03647 12.7806 3.05111C12.8004 3.06575 12.8148 3.08642 12.8218 3.11Z" fill="white"/>
<path d="M13.9478 3.91291C13.8944 3.94025 13.8416 3.96946 13.7888 3.99743C13.4722 4.16853 13.1627 4.34979 12.8603 4.54119C12.5446 4.73923 12.237 4.94886 11.9375 5.1701L12.1239 4.60272C12.1296 4.58239 12.1296 4.5609 12.1239 4.54057C12.1178 4.5141 12.1023 4.49072 12.0804 4.4747L11.5105 4.06081C11.4911 4.04688 11.4767 4.02714 11.4692 4.00444C11.4618 3.98175 11.4618 3.95728 11.4692 3.93457C11.4766 3.91187 11.4911 3.89211 11.5104 3.87816C11.5298 3.86421 11.5531 3.85679 11.577 3.85698H12.2793C12.3031 3.85709 12.3264 3.84963 12.3457 3.83567C12.365 3.82171 12.3794 3.80197 12.3868 3.7793L12.6043 3.10875C12.6117 3.08608 12.6251 3.06628 12.6444 3.05228C12.6637 3.03827 12.6879 3.03078 12.7118 3.03078C12.7356 3.03078 12.7589 3.03832 12.7782 3.05232C12.7975 3.06633 12.8119 3.08608 12.8193 3.10875L13.0368 3.7793C13.0443 3.80292 13.0594 3.8234 13.0797 3.83756C13.1001 3.85172 13.1245 3.85876 13.1493 3.8576H13.8534C13.8726 3.85777 13.8914 3.86297 13.908 3.87267C13.9246 3.88237 13.9383 3.89625 13.9478 3.91291Z" fill="#DBDBDB"/>
<path d="M31.5013 19.006C32.06 19.006 32.513 18.5531 32.513 17.9943C32.513 17.4356 32.06 16.9826 31.5013 16.9826C30.9425 16.9826 30.4896 17.4356 30.4896 17.9943C30.4896 18.5531 30.9425 19.006 31.5013 19.006Z" fill="#E54141"/>
<path d="M29.394 18.7108C29.7897 18.7108 30.1105 18.39 30.1105 17.9943C30.1105 17.5986 29.7897 17.2778 29.394 17.2778C28.9982 17.2778 28.6774 17.5986 28.6774 17.9943C28.6774 18.39 28.9982 18.7108 29.394 18.7108Z" fill="#E54141"/>
</svg>
