<svg width="18" height="21" viewBox="0 0 18 21" fill="none" xmlns="http://www.w3.org/2000/svg">
<path d="M10.19 1.1785C11.444 0.0920026 13.5 0.909003 13.5 2.69V18.31C13.5 19.8215 11.701 21.047 10.19 19.8215L4.627 15H2.5C1.4635 15 0.5 14.1755 0.5 13V8C0.5 6.929 1.405 6 2.5 6H4.6265L10.19 1.1785ZM16.6165 6.865C17.1956 7.80804 17.5015 8.89336 17.5 10C17.5 11.389 17.025 12.708 16.17 13.767C16.003 13.9721 15.7615 14.1026 15.4984 14.1301C15.2354 14.1575 14.9722 14.0796 14.7664 13.9135C14.5606 13.7473 14.4291 13.5064 14.4005 13.2435C14.3719 12.9805 14.4487 12.717 14.614 12.5105C15.1889 11.8002 15.5017 10.9138 15.5 10C15.5 9.251 15.295 8.5345 14.912 7.911C14.7733 7.68491 14.7301 7.41297 14.7919 7.15501C14.8537 6.89705 15.0154 6.67421 15.2415 6.5355C15.4676 6.39679 15.7395 6.35358 15.9975 6.41538C16.2554 6.47717 16.4778 6.63891 16.6165 6.865Z" fill="#C1989F"/>
</svg>
