<svg width="18" height="18" viewBox="0 0 18 18" fill="none" xmlns="http://www.w3.org/2000/svg">
<g clip-path="url(#clip0_99_493)">
<path d="M17.9531 6.55313C17.8955 6.37476 17.7867 6.21727 17.6403 6.1003C17.4938 5.98333 17.3162 5.91205 17.1295 5.89534L11.9342 5.42356L9.87985 0.615123C9.72832 0.262743 9.38336 0.0347137 9.00008 0.0347137C8.6168 0.0347137 8.2718 0.262778 8.12034 0.616002L6.06597 5.4236L0.86985 5.89534C0.683382 5.91242 0.506027 5.98385 0.359775 6.10078C0.213523 6.21771 0.104806 6.37499 0.0471024 6.55313C-0.0714123 6.91764 0.0380319 7.31741 0.326848 7.56942L4.2539 11.0134L3.09589 16.1144C3.01117 16.4894 3.15672 16.8771 3.46793 17.1021C3.63517 17.2229 3.83089 17.2845 4.02823 17.2845C4.19839 17.2845 4.36714 17.2386 4.51867 17.1479L9.00008 14.4695L13.4799 17.1479C13.8077 17.3452 14.2209 17.3271 14.5314 17.1021C14.6834 16.992 14.7997 16.8397 14.8659 16.6641C14.932 16.4885 14.9451 16.2973 14.9035 16.1144L13.7455 11.0134L17.6725 7.57012C17.8138 7.44674 17.9157 7.28457 17.9655 7.10377C18.0154 6.92296 18.0111 6.73149 17.9531 6.55313Z" fill="#376489"/>
</g>
<defs>
<clipPath id="clip0_99_493">
<rect width="18" height="18" fill="white"/>
</clipPath>
</defs>
</svg>
