<svg width="22" height="20" viewBox="0 0 22 20" fill="none" xmlns="http://www.w3.org/2000/svg">
<path d="M19.1543 0.294113H17.2131V2.23529C17.2131 2.62352 16.8896 2.88235 16.5661 2.88235C16.2426 2.88235 15.919 2.62352 15.919 2.23529V0.294113H5.56608V2.23529C5.56608 2.62352 5.24256 2.88235 4.91903 2.88235C4.5955 2.88235 4.27197 2.62352 4.27197 2.23529V0.294113H2.33079C1.3602 0.294113 0.648438 1.13529 0.648438 2.23529V4.5647H21.3543V2.23529C21.3543 1.13529 20.1896 0.294113 19.1543 0.294113ZM0.648438 5.92352V17.7647C0.648438 18.9294 1.3602 19.7059 2.3955 19.7059H19.219C20.2543 19.7059 21.419 18.8647 21.419 17.7647V5.92352H0.648438ZM6.40726 16.7941H4.85432C4.5955 16.7941 4.33667 16.6 4.33667 16.2765V14.6588C4.33667 14.4 4.53079 14.1412 4.85432 14.1412H6.47197C6.73079 14.1412 6.98961 14.3353 6.98961 14.6588V16.2765C6.92491 16.6 6.73079 16.7941 6.40726 16.7941ZM6.40726 10.9706H4.85432C4.5955 10.9706 4.33667 10.7765 4.33667 10.4529V8.83529C4.33667 8.57647 4.53079 8.31764 4.85432 8.31764H6.47197C6.73079 8.31764 6.98961 8.51176 6.98961 8.83529V10.4529C6.92491 10.7765 6.73079 10.9706 6.40726 10.9706ZM11.5837 16.7941H9.96608C9.70726 16.7941 9.44844 16.6 9.44844 16.2765V14.6588C9.44844 14.4 9.64256 14.1412 9.96608 14.1412H11.5837C11.8426 14.1412 12.1014 14.3353 12.1014 14.6588V16.2765C12.1014 16.6 11.9073 16.7941 11.5837 16.7941ZM11.5837 10.9706H9.96608C9.70726 10.9706 9.44844 10.7765 9.44844 10.4529V8.83529C9.44844 8.57647 9.64256 8.31764 9.96608 8.31764H11.5837C11.8426 8.31764 12.1014 8.51176 12.1014 8.83529V10.4529C12.1014 10.7765 11.9073 10.9706 11.5837 10.9706ZM16.7602 16.7941H15.1426C14.8837 16.7941 14.6249 16.6 14.6249 16.2765V14.6588C14.6249 14.4 14.819 14.1412 15.1426 14.1412H16.7602C17.019 14.1412 17.2779 14.3353 17.2779 14.6588V16.2765C17.2779 16.6 17.0837 16.7941 16.7602 16.7941ZM16.7602 10.9706H15.1426C14.8837 10.9706 14.6249 10.7765 14.6249 10.4529V8.83529C14.6249 8.57647 14.819 8.31764 15.1426 8.31764H16.7602C17.019 8.31764 17.2779 8.51176 17.2779 8.83529V10.4529C17.2779 10.7765 17.0837 10.9706 16.7602 10.9706Z" fill="#C1989F"/>
</svg>
