<svg width="22" height="22" viewBox="0 0 22 22" fill="none" xmlns="http://www.w3.org/2000/svg">
<g clip-path="url(#clip0_99_523)">
<path d="M11 22C17.0736 22 22 17.0736 22 11C22 4.92642 17.0736 0 11 0C4.92642 0 0 4.92642 0 11C0 17.0736 4.92642 22 11 22ZM10.2143 4.71429C10.2143 4.28214 10.5678 3.92856 11 3.92856C11.4322 3.92856 11.7857 4.28214 11.7857 4.71429V10.6229L15.4197 13.53C15.7575 13.8011 15.8125 14.2961 15.5414 14.6339C15.4681 14.726 15.3748 14.8004 15.2687 14.8514C15.1626 14.9024 15.0463 14.9288 14.9286 14.9286C14.7557 14.9286 14.5828 14.8735 14.4375 14.7557L10.509 11.6129C10.3243 11.4636 10.2143 11.2397 10.2143 11V4.71429H10.2143Z" fill="#C1989F"/>
</g>
<defs>
<clipPath id="clip0_99_523">
<rect width="22" height="22" fill="white"/>
</clipPath>
</defs>
</svg>
