<svg width="37" height="37" viewBox="0 0 37 37" fill="none" xmlns="http://www.w3.org/2000/svg">
<rect x="0.207031" width="36.0412" height="36.0412" rx="8" fill="#376489"/>
<path d="M26.0419 11.6839C24.1707 10.1781 21.2105 9.92284 21.0838 9.91366C20.8873 9.89713 20.7 10.0073 20.6192 10.1891C20.6118 10.2001 20.5476 10.3489 20.476 10.5803C21.7136 10.7896 23.2341 11.2101 24.6096 12.064C24.8299 12.1999 24.8979 12.49 24.762 12.7104C24.672 12.8555 24.5196 12.9344 24.3616 12.9344C24.2772 12.9344 24.1909 12.9106 24.1137 12.8628C21.7485 11.3956 18.7957 11.3221 18.2264 11.3221C17.6572 11.3221 14.7025 11.3956 12.3391 12.8628C12.1188 13.0005 11.8286 12.9326 11.6927 12.7122C11.555 12.49 11.623 12.2017 11.8433 12.064C13.2187 11.212 14.7392 10.7896 15.9769 10.5821C15.9053 10.3489 15.841 10.202 15.8355 10.1891C15.7529 10.0073 15.5674 9.89346 15.3691 9.91366C15.2424 9.92284 12.2822 10.1781 10.3853 11.7041C9.39547 12.6204 7.41406 17.9752 7.41406 22.6046C7.41406 22.6872 7.4361 22.7662 7.4765 22.8378C8.84274 25.2398 12.5723 25.8678 13.4226 25.8953C13.4262 25.8953 13.4317 25.8953 13.4373 25.8953C13.5878 25.8953 13.7292 25.8237 13.8174 25.7025L14.6768 24.5199C12.3575 23.9213 11.1731 22.9039 11.1051 22.8433C10.9105 22.6726 10.8921 22.3751 11.0647 22.1804C11.2355 21.9858 11.533 21.9674 11.7276 22.1382C11.7552 22.1639 13.9367 24.0149 18.2264 24.0149C22.5235 24.0149 24.705 22.1565 24.7271 22.1382C24.9217 21.9692 25.2174 21.9858 25.39 22.1822C25.5608 22.3769 25.5424 22.6726 25.3478 22.8433C25.2798 22.9039 24.0954 23.9213 21.7761 24.5199L22.6355 25.7025C22.7236 25.8237 22.865 25.8953 23.0156 25.8953C23.0211 25.8953 23.0266 25.8953 23.0303 25.8953C23.8805 25.8678 27.6101 25.2398 28.9764 22.8378C29.0168 22.7662 29.0388 22.6872 29.0388 22.6046C29.0388 17.9752 27.0574 12.6204 26.0419 11.6839ZM15.1708 20.7242C14.2618 20.7242 13.5254 19.8832 13.5254 18.8438C13.5254 17.8044 14.2618 16.9634 15.1708 16.9634C16.0798 16.9634 16.8161 17.8044 16.8161 18.8438C16.8161 19.8832 16.0798 20.7242 15.1708 20.7242ZM21.2821 20.7242C20.3731 20.7242 19.6367 19.8832 19.6367 18.8438C19.6367 17.8044 20.3731 16.9634 21.2821 16.9634C22.1911 16.9634 22.9275 17.8044 22.9275 18.8438C22.9275 19.8832 22.1911 20.7242 21.2821 20.7242Z" fill="white"/>
</svg>
