<svg width="37" height="37" viewBox="0 0 37 37" fill="none" xmlns="http://www.w3.org/2000/svg">
<rect x="0.0410156" width="36.0412" height="36.0412" rx="8" fill="#376489"/>
<path d="M9.05469 18.0784C9.05574 22.5382 12.2789 26.3355 16.6567 27.0344V20.6984H14.3708V18.0784H16.6594V16.0839C16.5571 15.1388 16.8779 14.1969 17.5349 13.5137C18.1918 12.8304 19.1168 12.4766 20.059 12.5482C20.7352 12.5592 21.4098 12.6198 22.0773 12.7295V14.9588H20.9384C20.5463 14.9072 20.1521 15.0374 19.8669 15.313C19.5816 15.5885 19.4362 15.9795 19.4715 16.3758V18.0784H21.9683L21.5691 20.6993H19.4715V27.0344C24.206 26.2816 27.5259 21.9311 27.0262 17.1347C26.5265 12.3382 22.3821 8.77499 17.5954 9.02634C12.8087 9.27769 9.05545 13.2556 9.05469 18.0784Z" fill="white"/>
</svg>
