<svg width="52" height="52" viewBox="0 0 52 52" fill="none" xmlns="http://www.w3.org/2000/svg">
<rect width="52" height="52" rx="26" fill="#FAF5F0"/>
<path d="M27.19 17.1785C28.444 16.092 30.5 16.909 30.5 18.69V34.31C30.5 35.8215 28.701 37.047 27.19 35.8215L21.627 31H19.5C18.4635 31 17.5 30.1755 17.5 29V24C17.5 22.929 18.405 22 19.5 22H21.6265L27.19 17.1785ZM33.6165 22.865C34.1956 23.808 34.5015 24.8934 34.5 26C34.5 27.389 34.025 28.708 33.17 29.767C33.003 29.9721 32.7615 30.1026 32.4984 30.1301C32.2354 30.1575 31.9722 30.0796 31.7664 29.9135C31.5606 29.7473 31.4291 29.5064 31.4005 29.2435C31.3719 28.9805 31.4487 28.717 31.614 28.5105C32.1889 27.8002 32.5017 26.9138 32.5 26C32.5 25.251 32.295 24.5345 31.912 23.911C31.7733 23.6849 31.7301 23.413 31.7919 23.155C31.8537 22.8971 32.0154 22.6742 32.2415 22.5355C32.4676 22.3968 32.7395 22.3536 32.9975 22.4154C33.2554 22.4772 33.4778 22.6389 33.6165 22.865Z" fill="#C1989F"/>
</svg>
