<svg width="21" height="20" viewBox="0 0 21 20" fill="none" xmlns="http://www.w3.org/2000/svg">
<path d="M16.4707 12.9688C15.3129 12.9688 14.2925 13.5383 13.6517 14.4045L8.11094 11.5673C8.20293 11.2538 8.26758 10.9288 8.26758 10.5859C8.26758 10.1209 8.17223 9.67871 8.0075 9.27203L13.8061 5.78266C14.4514 6.54 15.4 7.03125 16.4707 7.03125C18.4093 7.03125 19.9863 5.45426 19.9863 3.51562C19.9863 1.57699 18.4093 0 16.4707 0C14.5321 0 12.9551 1.57699 12.9551 3.51562C12.9551 3.96238 13.0471 4.38617 13.1997 4.77961L7.38379 8.27922C6.73902 7.54437 5.80418 7.07031 4.75195 7.07031C2.81332 7.07031 1.23633 8.6473 1.23633 10.5859C1.23633 12.5246 2.81332 14.1016 4.75195 14.1016C5.92891 14.1016 6.96645 13.5153 7.60488 12.6248L13.1274 15.4527C13.0257 15.7811 12.9551 16.123 12.9551 16.4844C12.9551 18.423 14.5321 20 16.4707 20C18.4093 20 19.9863 18.423 19.9863 16.4844C19.9863 14.5457 18.4093 12.9688 16.4707 12.9688Z" fill="#FAF5F0"/>
</svg>
