<svg width="19" height="19" viewBox="0 0 19 19" fill="none" xmlns="http://www.w3.org/2000/svg">
<path d="M17.212 5.32778C17.6875 5.03407 17.6875 4.34264 17.212 4.04893L13.381 1.68236C12.8802 1.37304 12.2344 1.73323 12.2344 2.32179V7.05492C12.2344 7.64348 12.8802 8.00367 13.381 7.69435L17.212 5.32778Z" fill="#376489"/>
<path d="M2.83292 14.9849C2.35746 14.6912 2.35746 13.9997 2.83292 13.706L6.66396 11.3395C7.16468 11.0301 7.81055 11.3903 7.81055 11.9789V16.712C7.81055 17.3006 7.16468 17.6608 6.66396 17.3515L2.83292 14.9849Z" fill="#376489"/>
<path d="M3.9668 8.99999V8.99999C3.9668 6.53838 5.96233 4.54285 8.42394 4.54285H8.47635H12.2343" stroke="#376489" stroke-width="1.50318" stroke-linecap="round" stroke-linejoin="round"/>
<path d="M15.2402 9.74281V9.74281C15.2402 12.2044 13.2447 14.2 10.7831 14.2H10.7307H6.97272" stroke="#376489" stroke-width="1.50318" stroke-linecap="round" stroke-linejoin="round"/>
</svg>
