<svg width="19" height="20" viewBox="0 0 19 20" fill="none" xmlns="http://www.w3.org/2000/svg">
<path d="M15.4707 12.9688C14.3129 12.9688 13.2925 13.5383 12.6517 14.4045L7.11094 11.5673C7.20293 11.2538 7.26758 10.9288 7.26758 10.5859C7.26758 10.1209 7.17223 9.67871 7.0075 9.27203L12.8061 5.78266C13.4514 6.54 14.4 7.03125 15.4707 7.03125C17.4093 7.03125 18.9863 5.45426 18.9863 3.51562C18.9863 1.57699 17.4093 0 15.4707 0C13.5321 0 11.9551 1.57699 11.9551 3.51562C11.9551 3.96238 12.0471 4.38617 12.1997 4.77961L6.38379 8.27922C5.73902 7.54437 4.80418 7.07031 3.75195 7.07031C1.81332 7.07031 0.236328 8.6473 0.236328 10.5859C0.236328 12.5246 1.81332 14.1016 3.75195 14.1016C4.92891 14.1016 5.96645 13.5153 6.60488 12.6248L12.1274 15.4527C12.0257 15.7811 11.9551 16.123 11.9551 16.4844C11.9551 18.423 13.5321 20 15.4707 20C17.4093 20 18.9863 18.423 18.9863 16.4844C18.9863 14.5457 17.4093 12.9688 15.4707 12.9688Z" fill="#FAF5F0"/>
</svg>
