<svg width="19" height="19" viewBox="0 0 19 19" fill="none" xmlns="http://www.w3.org/2000/svg">
<path d="M12.0245 14.2C10.8392 14.2 9.72953 13.7413 8.90625 12.9628" stroke="#376489" stroke-width="1.50318" stroke-linecap="round" stroke-linejoin="round"/>
<path d="M5.37818 6.81002C4.35151 5.85034 2.9743 5.28571 1.50391 5.28571" stroke="#376489" stroke-width="1.50318" stroke-linecap="round" stroke-linejoin="round"/>
<path d="M17.003 14.9849C17.4785 14.6912 17.4785 13.9998 17.003 13.7061L13.172 11.3395C12.6713 11.0302 12.0254 11.3904 12.0254 11.979V16.7121C12.0254 17.3006 12.6713 17.6608 13.172 17.3515L17.003 14.9849Z" fill="#376489"/>
<path d="M12.0262 5.28573V5.28573C10.2043 5.28573 8.55971 6.37719 7.85198 8.056L6.72168 10.7372C5.83702 12.8357 3.78127 14.2 1.50391 14.2V14.2" stroke="#376489" stroke-width="1.50318" stroke-linecap="round" stroke-linejoin="round"/>
<path d="M16.253 6.07064C16.7285 5.77693 16.7285 5.08549 16.253 4.79179L12.422 2.42522C11.9213 2.1159 11.2754 2.47609 11.2754 3.06465V7.79778C11.2754 8.38634 11.9213 8.74653 12.422 8.43721L16.253 6.07064Z" fill="#376489"/>
</svg>
