<svg width="22" height="22" viewBox="0 0 22 22" fill="none" xmlns="http://www.w3.org/2000/svg">
<g clip-path="url(#clip0_99_531)">
<path d="M7.18531 3.56017V15.2709C6.50387 14.6631 5.60591 14.293 4.623 14.293C2.4982 14.293 0.769531 16.0216 0.769531 18.1465C0.769531 20.2713 2.4982 22 4.623 22C6.74518 22 8.47205 20.2757 8.47643 18.1545H8.47652V8.74305L19.9387 5.83747V12.1622C19.2573 11.5544 18.3593 11.1843 17.3764 11.1843C15.2516 11.1843 13.5229 12.9129 13.5229 15.0377C13.5229 17.1626 15.2516 18.8913 17.3764 18.8913C19.5012 18.8913 21.2299 17.1625 21.2299 15.0377V0L7.18531 3.56017Z" fill="#C1989F"/>
</g>
<defs>
<clipPath id="clip0_99_531">
<rect width="22" height="22" fill="white"/>
</clipPath>
</defs>
</svg>
