<svg width="37" height="37" viewBox="0 0 37 37" fill="none" xmlns="http://www.w3.org/2000/svg">
<rect x="0.0820312" width="36.0412" height="36.0412" rx="8" fill="#376489"/>
<path d="M28.5074 8.37683C28.1385 8.06738 27.5592 8.0231 26.9601 8.26103H26.9591C26.3291 8.51112 9.12495 15.8114 8.42459 16.1097C8.2972 16.1535 7.18469 16.5641 7.29928 17.4789C7.40158 18.3036 8.29573 18.6452 8.40491 18.6846L12.7787 20.1661C13.0689 21.1217 14.1386 24.6473 14.3752 25.4005C14.5228 25.8701 14.7633 26.487 15.1848 26.614C15.5546 26.7551 15.9225 26.6262 16.1606 26.4413L18.8346 23.9876L23.1514 27.3181L23.2542 27.3789C23.5473 27.5073 23.8281 27.5716 24.0962 27.5716C24.3033 27.5716 24.502 27.5331 24.6918 27.4562C25.3386 27.1935 25.5973 26.5838 25.6243 26.5147L28.8487 9.93431C29.0455 9.04877 28.772 8.59822 28.5074 8.37683ZM16.6361 20.7588L15.1607 24.6512L13.6852 19.7856L24.9972 11.5142L16.6361 20.7588Z" fill="white"/>
</svg>
