<svg width="37" height="37" viewBox="0 0 37 37" fill="none" xmlns="http://www.w3.org/2000/svg">
<rect x="0.164062" width="36.0412" height="36.0412" rx="8" fill="#376489"/>
<path d="M26.4234 8.10928H9.94742C8.52791 8.10928 7.37305 9.26415 7.37305 10.6837V27.1597C7.37305 28.5792 8.52791 29.734 9.94742 29.734H26.4234C27.8429 29.734 28.9978 28.5792 28.9978 27.1597V10.6837C28.9978 9.26415 27.8429 8.10928 26.4234 8.10928ZM24.367 17.5433C24.2501 17.5541 24.1317 17.5614 24.0117 17.5614C22.6612 17.5614 21.4744 16.8668 20.784 15.817C20.784 18.571 20.784 21.7046 20.784 21.7571C20.784 24.1816 18.8182 26.1474 16.3937 26.1474C13.9691 26.1474 12.0033 24.1816 12.0033 21.7571C12.0033 19.3325 13.9691 17.3667 16.3937 17.3667C16.4853 17.3667 16.5749 17.375 16.665 17.3806V19.5441C16.5749 19.5333 16.4863 19.5168 16.3937 19.5168C15.1559 19.5168 14.1529 20.5198 14.1529 21.7576C14.1529 22.9953 15.1559 23.9983 16.3937 23.9983C17.6314 23.9983 18.7245 23.0231 18.7245 21.7854C18.7245 21.7365 18.7461 11.6969 18.7461 11.6969H20.8139C21.0085 13.5458 22.5011 15.005 24.367 15.1389V17.5433Z" fill="white"/>
</svg>
