<svg width="37" height="37" viewBox="0 0 37 37" fill="none" xmlns="http://www.w3.org/2000/svg">
<rect width="36.0412" height="36.0412" rx="8" fill="#376489"/>
<path d="M24.9096 12.7771C25.6819 12.294 26.2597 11.5333 26.5353 10.637C25.8096 11.0875 25.0156 11.4049 24.1877 11.5754C23.0398 10.3048 21.2212 9.9956 19.7479 10.8206C18.2747 11.6455 17.5116 13.4005 17.8851 15.1047C14.9126 14.9486 12.1432 13.4793 10.266 11.0625C9.2864 12.8307 9.78702 15.091 11.4101 16.228C10.8232 16.2082 10.2493 16.0419 9.73623 15.743C9.73623 15.7592 9.73623 15.7754 9.73623 15.7917C9.73657 17.6335 10.9771 19.2201 12.7023 19.5851C12.1579 19.7401 11.5869 19.7629 11.0328 19.6518C11.518 21.2269 12.9053 22.306 14.4865 22.3382C13.1769 23.4138 11.5596 23.9971 9.89474 23.9942C9.59966 23.9947 9.30481 23.9769 9.01172 23.9411C10.7023 25.0779 12.6699 25.6812 14.6795 25.6791C17.4752 25.6992 20.162 24.5459 22.1388 22.4771C24.1157 20.4083 25.2177 17.5966 25.1982 14.6711C25.1982 14.5034 25.1945 14.3367 25.187 14.1708C25.9111 13.6232 26.536 12.9449 27.0323 12.1677C26.3578 12.4806 25.6423 12.686 24.9096 12.7771Z" fill="white"/>
</svg>
