<svg width="18" height="18" viewBox="0 0 18 18" fill="none" xmlns="http://www.w3.org/2000/svg">
<g clip-path="url(#clip0_99_505)">
<path d="M17.4772 6.70668L17.4776 6.70781C17.5053 6.793 17.5074 6.88445 17.4836 6.9708C17.4597 7.05715 17.4111 7.1346 17.3436 7.19353L17.3429 7.19417L13.4158 10.6375L13.192 10.8338L13.2579 11.1241L14.4159 16.225L14.4159 16.2253C14.4358 16.3127 14.4296 16.404 14.398 16.4879C14.3664 16.5718 14.3108 16.6445 14.2382 16.697L14.238 16.6972C14.0893 16.805 13.893 16.813 13.7376 16.7195L13.7365 16.7188L9.25666 14.0404L9.00013 13.887L8.74357 14.0403L4.26216 16.7188L4.26201 16.7188C4.1878 16.7632 4.10771 16.7845 4.02823 16.7845C3.93548 16.7845 3.84236 16.7558 3.76081 16.6968C3.6129 16.5899 3.5428 16.4056 3.58355 16.2248C3.58357 16.2247 3.58359 16.2246 3.5836 16.2245L4.74149 11.1241L4.8074 10.8338L4.58358 10.6375L0.656525 7.1935L0.655577 7.19267C0.518489 7.07305 0.465715 6.88269 0.522601 6.70773L0.522769 6.70721C0.55031 6.62219 0.6022 6.54712 0.672005 6.49131C0.741764 6.43554 0.82635 6.40145 0.915287 6.39327C0.915345 6.39326 0.915402 6.39326 0.91546 6.39325L6.11118 5.92155L6.40846 5.89456L6.52575 5.62007L8.57988 0.813044C8.65287 0.642814 8.81765 0.534714 9.00008 0.534714C9.18248 0.534714 9.34719 0.64275 9.42026 0.81205C9.42035 0.812247 9.42043 0.812444 9.42052 0.812641L11.4744 5.62001L11.5917 5.89452L11.889 5.92152L17.0843 6.39329L17.0849 6.39335C17.1739 6.40131 17.2585 6.43526 17.3282 6.49098L17.6403 6.1003L17.3282 6.49098C17.398 6.54669 17.4498 6.62171 17.4772 6.70668Z" stroke="#376489"/>
</g>
<defs>
<clipPath id="clip0_99_505">
<rect width="18" height="18" fill="white"/>
</clipPath>
</defs>
</svg>
