<svg width="37" height="37" viewBox="0 0 37 37" fill="none" xmlns="http://www.w3.org/2000/svg">
<rect x="0.125" width="36.0412" height="36.0412" rx="8" fill="#376489"/>
<path d="M28.3531 13.5655C28.1532 12.4647 27.2008 11.663 26.0954 11.4127C24.4413 11.0627 21.3801 10.8124 18.068 10.8124C14.7578 10.8124 11.6476 11.0627 9.99152 11.4127C8.88813 11.663 7.9337 12.4138 7.7338 13.5655C7.53193 14.817 7.33203 16.569 7.33203 18.8215C7.33203 21.0741 7.53193 22.8261 7.78279 24.0776C7.98465 25.1784 8.93713 25.9801 10.0405 26.2304C11.7965 26.5804 14.8068 26.8307 18.1189 26.8307C21.431 26.8307 24.4413 26.5804 26.1973 26.2304C27.3007 25.9801 28.2532 25.2293 28.4551 24.0776C28.655 22.8261 28.9058 21.0233 28.9568 18.8215C28.8549 16.569 28.604 14.817 28.3531 13.5655ZM15.3595 22.3256V15.3175L21.48 18.8215L15.3595 22.3256Z" fill="white"/>
</svg>
