<svg width="20" height="20" viewBox="0 0 20 20" fill="none" xmlns="http://www.w3.org/2000/svg">
<path d="M7.5909 3.65152L7.59087 3.65158L7.26297 4.2394C7.24701 4.26803 7.23129 4.2963 7.21577 4.32419C6.90239 4.88743 6.6737 5.29847 6.30893 5.57594L6.30825 5.57646C5.9392 5.8562 5.48816 5.95782 4.87824 6.09522C4.84842 6.10194 4.81822 6.10874 4.78762 6.11566C4.78757 6.11567 4.78751 6.11568 4.78745 6.1157L4.15162 6.25966L4.15144 6.2597C2.90455 6.54152 2.02764 6.74143 1.42046 6.98079C0.822887 7.21635 0.615308 7.44097 0.535686 7.69638C0.454799 7.95729 0.499564 8.27666 0.854488 8.84052C1.21289 9.40991 1.81196 10.1125 2.66113 11.1049L2.66137 11.1052L3.09503 11.6128C3.09514 11.613 3.09526 11.6131 3.09537 11.6132C3.11579 11.6371 3.13596 11.6606 3.15588 11.6838C3.57273 12.1701 3.8765 12.5245 4.01372 12.9697C4.15211 13.4119 4.10647 13.8806 4.043 14.5324C4.04 14.5632 4.03695 14.5945 4.03389 14.6262L4.03385 14.6266L3.96789 15.3021C3.96788 15.3022 3.96787 15.3023 3.96786 15.3024C3.83982 16.6269 3.75018 17.5655 3.78071 18.2483C3.8112 18.9302 3.95743 19.2094 4.15945 19.3627C4.35211 19.5087 4.63313 19.568 5.25268 19.3904C5.87849 19.211 6.70072 18.8341 7.86807 18.2968C7.8681 18.2968 7.86813 18.2968 7.86816 18.2968L8.46286 18.0229C8.49082 18.01 8.51843 17.9973 8.5457 17.9847C9.11707 17.7208 9.54094 17.525 10.0012 17.525C10.462 17.525 10.8862 17.7212 11.4578 17.9856C11.4844 17.9979 11.5113 18.0103 11.5385 18.0229C11.5386 18.023 11.5387 18.023 11.5388 18.0231L12.1348 18.2966L12.1353 18.2968C13.3023 18.8342 14.1242 19.2112 14.75 19.3906C15.3694 19.5682 15.6505 19.5087 15.8437 19.3619L15.8441 19.3616C16.0453 19.209 16.1915 18.9303 16.2218 18.2482C16.2522 17.5655 16.1626 16.6269 16.0346 15.3025L7.5909 3.65152ZM7.5909 3.65152C8.23257 2.50087 8.68718 1.68809 9.09467 1.15601C9.50189 0.624291 9.76747 0.5 10.0012 0.5C10.235 0.5 10.5005 0.624291 10.9078 1.15601C11.3152 1.68809 11.7699 2.50087 12.4115 3.65152L12.4116 3.65158L12.7395 4.2394C12.7395 4.23946 12.7395 4.23952 12.7396 4.23958C12.7555 4.26815 12.7712 4.29635 12.7866 4.32417C13.1 4.88742 13.3287 5.29846 13.6935 5.57594C14.0617 5.85604 14.5141 5.9578 15.1236 6.09489C15.1539 6.10172 15.1847 6.10863 15.2158 6.11566C15.2158 6.11566 15.2158 6.11566 15.2158 6.11567C15.2159 6.11569 15.216 6.11571 15.2161 6.11573L15.8518 6.25966C17.0988 6.54201 17.9755 6.7419 18.5825 6.98117C19.1797 7.21658 19.3871 7.44094 19.4667 7.69633C19.5476 7.95659 19.5031 8.2756 19.1479 8.83977C18.7895 9.40922 18.1904 10.112 17.3412 11.105L16.9074 11.6119L16.9071 11.6122C16.8859 11.6369 16.8651 11.6613 16.8444 11.6854C16.4282 12.1719 16.1256 12.5254 15.9878 12.9685L15.9877 12.9689C15.8503 13.4118 15.8959 13.8801 15.9596 14.5328C15.9625 14.5632 15.9655 14.594 15.9685 14.6252L15.9686 14.6255L16.0345 15.3021L7.5909 3.65152Z" stroke="#FF9900"/>
</svg>
