<svg width="20" height="20" viewBox="0 0 20 20" fill="none" xmlns="http://www.w3.org/2000/svg">
<path d="M7.15226 3.408C8.41926 1.136 9.05226 0 9.99926 0C10.9463 0 11.5793 1.136 12.8463 3.408L13.1743 3.996C13.5343 4.642 13.7143 4.965 13.9943 5.178C14.2743 5.391 14.6243 5.47 15.3243 5.628L15.9603 5.772C18.4203 6.329 19.6493 6.607 19.9423 7.548C20.2343 8.488 19.3963 9.469 17.7193 11.43L17.2853 11.937C16.8093 12.494 16.5703 12.773 16.4633 13.117C16.3563 13.462 16.3923 13.834 16.4643 14.577L16.5303 15.254C16.7833 17.871 16.9103 19.179 16.1443 19.76C15.3783 20.342 14.2263 19.811 11.9243 18.751L11.3273 18.477C10.6733 18.175 10.3463 18.025 9.99926 18.025C9.65226 18.025 9.32526 18.175 8.67026 18.477L8.07526 18.751C5.77226 19.811 4.62026 20.341 3.85526 19.761C3.08826 19.179 3.21526 17.871 3.46826 15.254L3.53426 14.578C3.60626 13.834 3.64226 13.462 3.53426 13.118C3.42826 12.773 3.18926 12.494 2.71326 11.938L2.27926 11.43C0.602259 9.47 -0.235742 8.489 0.0562584 7.548C0.349258 6.607 1.57926 6.328 4.03926 5.772L4.67526 5.628C5.37426 5.47 5.72326 5.391 6.00426 5.178C6.28426 4.965 6.46426 4.642 6.82426 3.996L7.15226 3.408Z" fill="#FF9900"/>
</svg>
