<svg width="424" height="105" viewBox="0 0 424 105" fill="none" xmlns="http://www.w3.org/2000/svg">
<path d="M78.7 38.06C78.74 38.3 78.74 38.52 78.7 38.72C78.66 38.88 78.58 39.04 78.46 39.2C78.34 39.36 78.18 39.48 77.98 39.56C75.3 40.4 70.32 41.92 63.04 44.12C62.48 47.2 61.68 51.48 60.64 56.96C59.8 61.24 59.18 64.42 58.78 66.5C58.42 68.58 58 70.8 57.52 73.16C57.08 75.52 56.74 77.22 56.5 78.26C56.38 78.86 56 79.16 55.36 79.16C55.28 79.16 55.2 79.16 55.12 79.16C54.84 79.08 54.6 78.9 54.4 78.62C54.24 78.38 54.2 78.1 54.28 77.78C54.72 75.54 56.08 68.46 58.36 56.54C59.32 51.34 60.06 47.44 60.58 44.84C60.54 44.84 60.5 44.86 60.46 44.9C60.46 44.9 60.44 44.9 60.4 44.9C49.44 48.22 41.14 50.76 35.5 52.52C30.86 75.04 28.16 89.22 27.4 95.06C27.64 95.18 27.82 95.38 27.94 95.66C28.1 95.94 28.12 96.22 28 96.5C27.8 97.06 27.64 97.48 27.52 97.76C27.4 98.04 27.22 98.3 26.98 98.54C26.74 98.82 26.48 98.96 26.2 98.96C26.08 98.96 25.94 98.94 25.78 98.9C25.22 98.78 24.92 98.36 24.88 97.64C24.8 96.92 24.88 95.92 25.12 94.64C25.36 92.8 25.78 90.18 26.38 86.78C27.46 80.9 29.06 72.7 31.18 62.18C31.74 59.38 32.34 56.42 32.98 53.3C29.5 54.42 26.38 55.44 23.62 56.36C12.7 59.96 6.06 62.54 3.7 64.1C4.1 64.38 4.26 64.76 4.18 65.24C4.06 65.88 3.68 66.2 3.04 66.2C2.96 66.2 2.88 66.18 2.8 66.14C1.52 65.9 0.839999 65.32 0.759999 64.4C0.759999 63.76 1.18 63.1 2.02 62.42C2.86 61.78 4.56 60.92 7.12 59.84C10.48 58.44 15.3 56.68 21.58 54.56C25.02 53.44 28.98 52.16 33.46 50.72C35.5 40.84 37.86 29.54 40.54 16.82L40.84 15.62C41.16 14.1 41.32 12.86 41.32 11.9C41.32 10.9 41.28 10.32 41.2 10.16C41.12 9.96 41.04 9.84 40.96 9.8C40.88 9.76 40.74 9.76 40.54 9.8C40.38 9.84 40.06 10 39.58 10.28C39.1 10.56 38.58 10.94 38.02 11.42C36.62 12.62 35.14 14.24 33.58 16.28C32.06 18.32 30.7 20.44 29.5 22.64C28.66 24.24 27.98 25.74 27.46 27.14C26.94 28.54 26.6 29.78 26.44 30.86C26.32 31.9 26.4 32.76 26.68 33.44C27.12 34.52 28.26 35 30.1 34.88C30.42 34.84 30.7 34.94 30.94 35.18C31.18 35.38 31.3 35.64 31.3 35.96C31.34 36.28 31.26 36.56 31.06 36.8C30.86 37.04 30.6 37.16 30.28 37.16C27.32 37.36 25.4 36.4 24.52 34.28C23.92 32.88 23.94 31 24.58 28.64C25.18 26.24 26.14 23.86 27.46 21.5C28.82 19.14 30.3 16.9 31.9 14.78C33.54 12.62 35.06 10.92 36.46 9.68C38.86 7.6 40.74 6.98 42.1 7.82C43.74 8.78 44.06 11.52 43.06 16.04L42.82 17.3C40.26 29.5 37.98 40.38 35.98 49.94C41.42 48.26 49.34 45.84 59.74 42.68C59.86 42.64 60 42.6 60.16 42.56C60.32 42.52 60.48 42.48 60.64 42.44C60.8 42.36 60.94 42.32 61.06 42.32C65.14 20.92 67.84 7.64 69.16 2.48C69.24 2.16 69.42 1.92 69.7 1.76C69.98 1.6 70.26 1.56 70.54 1.64C70.86 1.72 71.1 1.9 71.26 2.18C71.42 2.46 71.46 2.74 71.38 3.02C70.1 8.06 67.48 20.9 63.52 41.54C70.08 39.58 74.66 38.18 77.26 37.34C77.54 37.26 77.82 37.3 78.1 37.46C78.42 37.58 78.62 37.78 78.7 38.06ZM92.7752 48.2C93.0952 48.12 93.3952 48.16 93.6752 48.32C93.9552 48.48 94.1152 48.72 94.1552 49.04C94.2352 49.36 94.1952 49.66 94.0352 49.94C92.9152 51.7 91.5552 53.54 89.9552 55.46C88.3952 57.34 86.6152 59.04 84.6152 60.56C82.6552 62.08 80.9952 62.84 79.6352 62.84C79.1552 62.84 78.7352 62.76 78.3752 62.6C75.6952 61.44 75.4152 56.74 77.5352 48.5C77.6152 48.18 77.7952 47.94 78.0752 47.78C78.3552 47.62 78.6352 47.58 78.9152 47.66C79.2352 47.74 79.4752 47.92 79.6352 48.2C79.7952 48.48 79.8352 48.76 79.7552 49.04C79.2752 50.96 78.9152 52.66 78.6752 54.14C78.4752 55.58 78.3752 56.68 78.3752 57.44C78.4152 58.2 78.4952 58.84 78.6152 59.36C78.7752 59.84 78.8952 60.14 78.9752 60.26C79.0952 60.34 79.1952 60.4 79.2752 60.44C80.3152 60.88 82.1952 59.84 84.9152 57.32C87.6752 54.8 90.0552 51.92 92.0552 48.68C92.2552 48.44 92.4952 48.28 92.7752 48.2ZM79.5152 43.52C78.3552 43.44 77.9952 42.96 78.4352 42.08C78.8352 41.36 79.3552 40.88 79.9952 40.64C80.9952 40.32 81.5952 40.58 81.7952 41.42C81.9952 42.22 81.6952 42.82 80.8952 43.22C80.4952 43.42 80.0352 43.52 79.5152 43.52ZM96.9709 59.48C97.7309 60.04 98.1109 60.82 98.1109 61.82C98.1109 62.86 97.6709 63.98 96.7909 65.18C95.9509 66.38 94.9509 67.42 93.7909 68.3C93.5909 68.46 93.3509 68.54 93.0709 68.54C92.6709 68.54 92.3709 68.38 92.1709 68.06C91.9709 67.82 91.8909 67.54 91.9309 67.22C91.9709 66.9 92.1309 66.64 92.4109 66.44C93.3309 65.72 94.1309 64.9 94.8109 63.98C95.4909 63.1 95.8309 62.38 95.8309 61.82C95.8309 61.62 95.7509 61.46 95.5909 61.34C95.3109 61.14 95.1509 60.9 95.1109 60.62C95.0709 60.3 95.1309 60.02 95.2909 59.78C95.4909 59.5 95.7509 59.34 96.0709 59.3C96.3909 59.22 96.6909 59.28 96.9709 59.48ZM150.53 2.54C152.57 3.86 152.83 7.7 151.31 14.06C148.79 24.54 145.43 39.22 141.23 58.1C137.03 76.98 134.51 89.24 133.67 94.88C133.67 94.92 133.67 94.94 133.67 94.94C133.99 95.02 134.21 95.2 134.33 95.48C134.45 95.8 134.47 96.1 134.39 96.38C134.15 96.98 133.95 97.42 133.79 97.7C133.67 98.02 133.47 98.32 133.19 98.6C132.95 98.92 132.69 99.08 132.41 99.08C132.25 99.08 132.11 99.06 131.99 99.02C131.43 98.82 131.11 98.36 131.03 97.64C130.99 96.96 131.11 95.88 131.39 94.4C131.71 92.44 132.23 89.6 132.95 85.88C134.23 79.48 136.11 70.68 138.59 59.48C142.63 41.16 146.11 25.84 149.03 13.52C149.59 11.24 149.89 9.36 149.93 7.88C149.97 6.4 149.91 5.5 149.75 5.18C149.59 4.82 149.43 4.58 149.27 4.46C148.55 4.02 147.17 4.6 145.13 6.2C142.93 7.92 140.51 10.48 137.87 13.88C135.27 17.28 132.87 20.94 130.67 24.86C128.51 28.74 126.87 32.7 125.75 36.74C124.67 40.74 124.55 44 125.39 46.52C126.55 49.96 129.65 51.72 134.69 51.8C135.01 51.8 135.27 51.92 135.47 52.16C135.71 52.36 135.83 52.62 135.83 52.94C135.83 53.26 135.71 53.54 135.47 53.78C135.27 53.98 135.01 54.08 134.69 54.08C133.53 54.08 132.41 53.98 131.33 53.78C130.29 53.58 129.21 53.24 128.09 52.76C127.01 52.28 126.03 51.58 125.15 50.66C124.31 49.7 123.67 48.56 123.23 47.24C122.91 46.24 122.71 45.16 122.63 44C122.55 42.8 122.57 41.62 122.69 40.46C122.81 39.3 123.03 38.1 123.35 36.86C123.67 35.58 124.01 34.38 124.37 33.26C124.77 32.14 125.21 31 125.69 29.84C126.21 28.64 126.69 27.6 127.13 26.72C127.57 25.8 128.03 24.88 128.51 23.96C130.67 19.96 133.13 16.16 135.89 12.56C138.69 8.96 141.29 6.22 143.69 4.34C146.61 2.1 148.89 1.5 150.53 2.54ZM201.79 48.32C202.11 48.28 202.39 48.36 202.63 48.56C202.87 48.76 202.99 49.02 202.99 49.34C203.03 49.66 202.95 49.94 202.75 50.18C197.67 56.14 193.65 58.56 190.69 57.44C188.57 56.64 187.43 54.1 187.27 49.82C186.71 50.86 185.83 52.6 184.63 55.04C183.95 56.52 183.49 57.46 183.25 57.86C182.21 59.86 181.09 60.7 179.89 60.38C178.25 59.98 177.45 57.68 177.49 53.48C177.49 52.68 177.51 51.74 177.55 50.66C174.91 54.42 172.21 58.94 169.45 64.22C168.97 65.14 168.45 65.6 167.89 65.6C167.69 65.6 167.51 65.54 167.35 65.42C167.15 65.34 167.01 65.26 166.93 65.18C166.81 65.1 166.71 64.88 166.63 64.52C166.51 64.16 166.49 63.7 166.57 63.14C166.61 62.58 166.73 61.76 166.93 60.68C167.13 59.6 167.43 58.3 167.83 56.78C169.11 51.66 170.65 47.08 172.45 43.04C172.57 42.72 172.77 42.5 173.05 42.38C173.37 42.26 173.67 42.28 173.95 42.44C174.27 42.56 174.47 42.78 174.55 43.1C174.67 43.38 174.67 43.66 174.55 43.94C172.55 48.46 170.91 53.48 169.63 59C172.03 54.76 174.51 50.86 177.07 47.3C177.63 46.5 178.25 46.22 178.93 46.46C179.41 46.62 179.69 46.96 179.77 47.48C179.85 47.96 179.87 48.94 179.83 50.42C179.79 51.66 179.77 52.68 179.77 53.48C179.77 55.6 179.99 57.1 180.43 57.98C180.67 57.74 180.95 57.34 181.27 56.78C181.47 56.38 181.91 55.48 182.59 54.08C184.23 50.64 185.41 48.4 186.13 47.36C186.85 46.28 187.59 45.82 188.35 45.98C189.19 46.18 189.61 47.06 189.61 48.62C189.57 52.54 190.21 54.76 191.53 55.28C192.33 55.56 193.55 55.2 195.19 54.2C196.83 53.16 198.77 51.32 201.01 48.68C201.21 48.44 201.47 48.32 201.79 48.32Z" fill="#376489"/>
<path d="M276.258 47.84C276.578 47.88 276.838 48.04 277.038 48.32C277.238 48.56 277.298 48.84 277.218 49.16C277.178 49.44 277.018 49.68 276.738 49.88C270.538 54.32 264.878 58.52 259.758 62.48C260.278 64.12 260.338 65.92 259.938 67.88C259.298 71.12 258.118 74.28 256.398 77.36C254.718 80.44 252.778 83.14 250.578 85.46C248.418 87.78 246.118 89.84 243.678 91.64C241.278 93.44 238.978 94.82 236.778 95.78C234.618 96.74 232.718 97.28 231.078 97.4C230.838 97.44 230.618 97.46 230.418 97.46C228.498 97.46 227.278 96.74 226.758 95.3C225.838 92.78 227.978 88.64 233.178 82.88C238.378 77.12 246.298 70.08 256.938 61.76C255.738 59.56 253.378 57.54 249.858 55.7C246.338 53.82 240.778 51.34 233.178 48.26C231.098 47.42 229.498 46.76 228.378 46.28C225.498 45.08 223.498 43.46 222.378 41.42C221.258 39.38 221.118 37.04 221.958 34.4C222.998 31.04 225.518 27.4 229.518 23.48C233.518 19.52 237.878 16.06 242.598 13.1C247.358 10.14 252.138 7.78 256.938 6.02C261.778 4.26 265.518 3.68 268.158 4.28C268.758 4.4 269.298 4.6 269.778 4.88C270.298 5.12 270.818 5.5 271.338 6.02C271.858 6.54 272.218 7.26 272.418 8.18C272.658 9.06 272.698 10.12 272.538 11.36C272.498 11.56 272.418 11.74 272.298 11.9C272.178 12.06 272.018 12.18 271.818 12.26C271.618 12.34 271.418 12.36 271.218 12.32C270.898 12.28 270.638 12.14 270.438 11.9C270.238 11.62 270.158 11.32 270.198 11C270.438 9.52 270.298 8.46 269.778 7.82C269.298 7.18 268.598 6.76 267.678 6.56C266.198 6.2 264.198 6.32 261.678 6.92C259.158 7.52 256.338 8.54 253.218 9.98C250.138 11.38 246.998 13.12 243.798 15.2C238.638 18.44 234.298 21.84 230.778 25.4C227.258 28.96 225.058 32.18 224.178 35.06C222.858 39.18 224.558 42.22 229.278 44.18C230.358 44.62 231.958 45.26 234.078 46.1C236.718 47.18 238.678 48 239.958 48.56C241.238 49.08 242.918 49.8 244.998 50.72C247.078 51.6 248.678 52.36 249.798 53C250.918 53.64 252.138 54.38 253.458 55.22C254.778 56.06 255.858 56.9 256.698 57.74C257.538 58.54 258.238 59.4 258.798 60.32C263.838 56.4 269.378 52.3 275.418 48.02C275.698 47.82 275.978 47.76 276.258 47.84ZM257.718 67.4C257.958 66.2 257.978 65.08 257.778 64.04C249.258 70.72 242.498 76.6 237.498 81.68C234.578 84.68 232.338 87.34 230.778 89.66C229.218 92.02 228.598 93.64 228.918 94.52C229.078 95 229.738 95.2 230.898 95.12C232.258 95 233.918 94.5 235.878 93.62C237.878 92.74 239.998 91.46 242.238 89.78C244.518 88.1 246.678 86.18 248.718 84.02C250.798 81.9 252.658 79.36 254.298 76.4C255.938 73.48 257.078 70.48 257.718 67.4ZM325.427 26.6C325.627 26.84 325.707 27.12 325.667 27.44C325.627 27.76 325.467 28.02 325.187 28.22C324.707 28.54 324.247 28.52 323.807 28.16C321.887 27.48 308.407 27.42 283.367 27.98C280.767 38.9 278.127 50.74 275.447 63.5C272.247 78.9 270.307 89.48 269.627 95.24C269.707 95.24 269.787 95.26 269.867 95.3C270.187 95.38 270.407 95.56 270.527 95.84C270.647 96.16 270.647 96.46 270.527 96.74C270.327 97.38 270.167 97.84 270.047 98.12C269.887 98.44 269.667 98.74 269.387 99.02C269.107 99.34 268.807 99.5 268.487 99.5C268.367 99.5 268.227 99.48 268.067 99.44C267.547 99.28 267.247 98.86 267.167 98.18C267.047 97.5 267.087 96.58 267.287 95.42C267.447 93.74 267.807 91.32 268.367 88.16C269.367 82.16 270.867 74.36 272.867 64.76C275.547 51.8 278.247 39.56 280.967 28.04C278.247 28.08 274.867 28.16 270.827 28.28C264.427 28.44 260.667 28.52 259.547 28.52C259.227 28.52 258.967 28.42 258.767 28.22C258.527 27.98 258.407 27.7 258.407 27.38C258.407 27.18 258.467 27 258.587 26.84C258.667 26.64 258.807 26.5 259.007 26.42C259.167 26.3 259.347 26.24 259.547 26.24C260.667 26.24 264.407 26.14 270.767 25.94C274.727 25.86 278.327 25.78 281.567 25.7C282.847 20.42 283.987 15.94 284.987 12.26C285.067 11.94 285.247 11.7 285.527 11.54C285.807 11.38 286.087 11.34 286.367 11.42C286.687 11.5 286.927 11.68 287.087 11.96C287.247 12.24 287.287 12.54 287.207 12.86C286.247 16.42 285.147 20.68 283.907 25.64C295.907 25.32 304.967 25.2 311.087 25.28C317.207 25.36 321.047 25.5 322.607 25.7C324.207 25.86 325.147 26.16 325.427 26.6ZM302.195 48.44C302.515 48.36 302.795 48.42 303.035 48.62C303.315 48.78 303.475 49.02 303.515 49.34C303.555 49.66 303.495 49.94 303.335 50.18C298.815 56.5 294.695 60.98 290.975 63.62C289.495 64.66 288.035 65.18 286.595 65.18C285.475 65.18 284.495 64.88 283.655 64.28C283.175 63.92 282.755 63.44 282.395 62.84C281.995 62.24 281.655 61.4 281.375 60.32C281.095 59.24 281.055 57.82 281.255 56.06C281.415 54.3 281.855 52.3 282.575 50.06V50C283.695 46.36 285.055 43.48 286.655 41.36C288.255 39.24 289.695 38.16 290.975 38.12C291.895 38.08 292.495 38.48 292.775 39.32C293.215 40.48 292.695 42.12 291.215 44.24C289.735 46.36 287.555 48.64 284.675 51.08C284.195 52.64 283.855 54.08 283.655 55.4C283.455 56.72 283.375 57.78 283.415 58.58C283.495 59.34 283.635 60.02 283.835 60.62C284.075 61.18 284.275 61.58 284.435 61.82C284.635 62.06 284.835 62.26 285.035 62.42C286.235 63.3 287.775 63.06 289.655 61.7C293.175 59.22 297.095 54.94 301.415 48.86C301.615 48.62 301.875 48.48 302.195 48.44ZM290.555 40.64C289.155 41.52 287.775 43.42 286.415 46.34C288.735 44.02 290.115 42.12 290.555 40.64ZM313.056 39.74C314.256 40.1 315.056 41.06 315.456 42.62C315.856 44.14 315.796 45.92 315.276 47.96C314.316 51.48 311.956 54.74 308.196 57.74C306.636 59.02 304.916 60.14 303.036 61.1C301.596 66.98 299.996 74.28 298.236 83C296.436 91.76 295.116 98.68 294.276 103.76C294.156 104.4 293.776 104.72 293.136 104.72C293.056 104.72 292.996 104.72 292.956 104.72C292.756 104.68 292.576 104.6 292.416 104.48C292.256 104.36 292.136 104.2 292.056 104C291.976 103.8 291.956 103.6 291.996 103.4C293.036 96.4 295.336 82.88 298.896 62.84C298.416 63 297.936 63.14 297.456 63.26C297.136 63.38 296.836 63.36 296.556 63.2C296.276 63.04 296.096 62.8 296.016 62.48C295.936 62.16 295.976 61.86 296.136 61.58C296.296 61.3 296.536 61.12 296.856 61.04C297.656 60.84 298.476 60.56 299.316 60.2C299.596 58.8 299.976 56.72 300.456 53.96C302.536 42.28 303.596 36.18 303.636 35.66C303.636 35.34 303.736 35.08 303.936 34.88C304.176 34.64 304.436 34.52 304.716 34.52C305.036 34.48 305.316 34.58 305.556 34.82C305.796 35.02 305.936 35.28 305.976 35.6C305.976 35.92 305.036 41.36 303.156 51.92C303.756 50.24 304.356 48.72 304.956 47.36C305.596 46 306.176 44.88 306.696 44C307.256 43.12 307.816 42.38 308.376 41.78C308.936 41.18 309.436 40.74 309.876 40.46C310.316 40.14 310.736 39.92 311.136 39.8C311.576 39.64 311.936 39.58 312.216 39.62C312.536 39.62 312.816 39.66 313.056 39.74ZM313.056 47.36C313.416 45.8 313.496 44.54 313.296 43.58C313.136 42.62 312.836 42.08 312.396 41.96C312.356 41.92 312.296 41.9 312.216 41.9C311.976 41.9 311.696 42 311.376 42.2C311.096 42.36 310.716 42.7 310.236 43.22C309.756 43.7 309.256 44.34 308.736 45.14C308.256 45.9 307.696 46.96 307.056 48.32C306.456 49.68 305.856 51.24 305.256 53C304.856 54.2 304.376 55.88 303.816 58.04C306.096 56.64 308.056 55.02 309.696 53.18C311.376 51.34 312.496 49.4 313.056 47.36ZM345.159 48.14C345.479 48.06 345.759 48.1 345.999 48.26C346.279 48.42 346.459 48.66 346.539 48.98C346.619 49.3 346.579 49.6 346.419 49.88C345.099 52 343.839 53.9 342.639 55.58C341.439 57.22 340.399 58.56 339.519 59.6C338.679 60.6 337.859 61.44 337.059 62.12C336.259 62.84 335.619 63.34 335.139 63.62C334.659 63.94 334.179 64.14 333.699 64.22C333.219 64.34 332.879 64.38 332.679 64.34C332.519 64.34 332.319 64.32 332.079 64.28C330.199 63.8 329.139 61.66 328.899 57.86C328.859 57.02 328.759 56.32 328.599 55.76C328.439 55.16 328.299 54.78 328.179 54.62C328.059 54.42 327.959 54.32 327.879 54.32C327.839 54.32 327.819 54.32 327.819 54.32C327.499 54.32 327.059 54.58 326.499 55.1C325.939 55.58 325.259 56.38 324.459 57.5C323.659 58.62 322.819 59.98 321.939 61.58C321.059 63.18 320.079 65.2 318.999 67.64C317.959 70.08 316.939 72.72 315.939 75.56C315.779 76.08 315.419 76.34 314.859 76.34C314.779 76.34 314.699 76.34 314.619 76.34C314.419 76.3 314.259 76.22 314.139 76.1C313.979 75.98 313.859 75.82 313.779 75.62C313.699 75.46 313.679 75.3 313.719 75.14C313.799 73.5 314.859 68.24 316.899 59.36C318.899 50.44 320.539 43.28 321.819 37.88C323.139 32.44 324.159 28.28 324.879 25.4C326.239 19.88 327.799 15.18 329.559 11.3C331.359 7.38 332.899 5.3 334.179 5.06C334.859 4.94 335.379 5.14 335.739 5.66C336.619 6.86 336.099 9.96 334.179 14.96C332.299 19.96 329.359 26.08 325.359 33.32C322.279 46 319.899 56.18 318.219 63.86C319.979 60.14 321.719 57.2 323.439 55.04C325.159 52.84 326.739 51.84 328.179 52.04C329.979 52.28 330.979 54.16 331.179 57.68C331.379 60.36 331.859 61.8 332.619 62C332.739 62.04 332.899 62.04 333.099 62C333.339 61.96 333.799 61.72 334.479 61.28C335.159 60.84 335.899 60.2 336.699 59.36C337.499 58.48 338.579 57.12 339.939 55.28C341.339 53.44 342.839 51.22 344.439 48.62C344.599 48.38 344.839 48.22 345.159 48.14ZM333.759 8.42C331.559 11.58 329.499 16.8 327.579 24.08C331.099 17 333.159 11.78 333.759 8.42ZM367.698 48.62C368.018 48.5 368.318 48.52 368.598 48.68C368.878 48.8 369.058 49.02 369.138 49.34C369.258 49.62 369.258 49.9 369.138 50.18C364.858 59.02 361.038 63.44 357.678 63.44C357.478 63.44 357.258 63.42 357.018 63.38C354.338 62.86 352.678 59.26 352.038 52.58C350.078 55.22 348.338 57.38 346.818 59.06C345.458 60.5 344.298 61 343.338 60.56C342.378 60.2 341.918 59.16 341.958 57.44C341.958 56 342.278 54.28 342.918 52.28C343.558 50.28 344.498 48.34 345.738 46.46C346.978 44.58 348.318 43.4 349.758 42.92C351.878 42.16 353.838 42.86 355.638 45.02C355.838 45.26 355.918 45.54 355.878 45.86C355.878 46.18 355.758 46.44 355.518 46.64C355.278 46.84 354.998 46.94 354.678 46.94C354.358 46.9 354.098 46.76 353.898 46.52C352.498 44.84 351.078 44.52 349.638 45.56C347.998 46.72 346.618 48.82 345.498 51.86C344.418 54.86 343.998 57 344.238 58.28C344.478 58.08 344.758 57.82 345.078 57.5C346.678 55.78 348.638 53.32 350.958 50.12C351.478 49.4 351.838 48.9 352.038 48.62C352.358 48.22 352.778 48.1 353.298 48.26C353.818 48.38 354.098 48.72 354.138 49.28C354.218 51.24 354.378 52.98 354.618 54.5C354.858 56.02 355.098 57.18 355.338 57.98C355.578 58.74 355.858 59.38 356.178 59.9C356.498 60.42 356.738 60.76 356.898 60.92C357.098 61.04 357.298 61.1 357.498 61.1C358.058 61.22 358.758 60.96 359.598 60.32C360.478 59.64 361.578 58.36 362.898 56.48C364.258 54.56 365.638 52.14 367.038 49.22C367.198 48.9 367.418 48.7 367.698 48.62ZM389.766 48.5C390.086 48.42 390.386 48.46 390.666 48.62C390.946 48.78 391.126 49.02 391.206 49.34C391.286 49.62 391.246 49.9 391.086 50.18C389.726 52.58 388.546 54.48 387.546 55.88C386.546 57.28 385.526 58.38 384.486 59.18C383.446 59.98 382.426 60.32 381.426 60.2C379.426 59.96 377.846 57.8 376.686 53.72C375.846 50.96 375.126 49.58 374.526 49.58C374.406 49.54 374.226 49.6 373.986 49.76C373.786 49.88 373.446 50.24 372.966 50.84C372.486 51.4 371.946 52.18 371.346 53.18C370.786 54.18 370.026 55.66 369.066 57.62C368.146 59.58 367.146 61.9 366.066 64.58C365.866 65.06 365.506 65.3 364.986 65.3C364.906 65.3 364.826 65.28 364.746 65.24C364.066 65.08 363.766 64.66 363.846 63.98C364.246 60.7 365.746 54.6 368.346 45.68C368.626 44.76 368.826 44.06 368.946 43.58C369.066 43.26 369.266 43.04 369.546 42.92C369.826 42.76 370.106 42.72 370.386 42.8C370.706 42.88 370.946 43.06 371.106 43.34C371.266 43.62 371.286 43.92 371.166 44.24C371.086 44.52 370.886 45.22 370.566 46.34C369.686 49.42 369.006 51.82 368.526 53.54C369.806 51.14 370.926 49.48 371.886 48.56C372.846 47.64 373.766 47.2 374.646 47.24C375.686 47.28 376.506 47.82 377.106 48.86C377.746 49.9 378.346 51.32 378.906 53.12C379.786 56.2 380.726 57.8 381.726 57.92C382.206 58 382.786 57.74 383.466 57.14C384.186 56.5 384.946 55.6 385.746 54.44C386.546 53.24 387.146 52.3 387.546 51.62C387.986 50.94 388.486 50.08 389.046 49.04C389.206 48.76 389.446 48.58 389.766 48.5ZM404.611 48.2C404.931 48.12 405.231 48.16 405.511 48.32C405.791 48.48 405.951 48.72 405.991 49.04C406.071 49.36 406.031 49.66 405.871 49.94C404.751 51.7 403.391 53.54 401.791 55.46C400.231 57.34 398.451 59.04 396.451 60.56C394.491 62.08 392.831 62.84 391.471 62.84C390.991 62.84 390.571 62.76 390.211 62.6C387.531 61.44 387.251 56.74 389.371 48.5C389.451 48.18 389.631 47.94 389.911 47.78C390.191 47.62 390.471 47.58 390.751 47.66C391.071 47.74 391.311 47.92 391.471 48.2C391.631 48.48 391.671 48.76 391.591 49.04C391.111 50.96 390.751 52.66 390.511 54.14C390.311 55.58 390.211 56.68 390.211 57.44C390.251 58.2 390.331 58.84 390.451 59.36C390.611 59.84 390.731 60.14 390.811 60.26C390.931 60.34 391.031 60.4 391.111 60.44C392.151 60.88 394.031 59.84 396.751 57.32C399.511 54.8 401.891 51.92 403.891 48.68C404.091 48.44 404.331 48.28 404.611 48.2ZM391.351 43.52C390.191 43.44 389.831 42.96 390.271 42.08C390.671 41.36 391.191 40.88 391.831 40.64C392.831 40.32 393.431 40.58 393.631 41.42C393.831 42.22 393.531 42.82 392.731 43.22C392.331 43.42 391.871 43.52 391.351 43.52ZM422.547 48.44C422.867 48.36 423.147 48.42 423.387 48.62C423.667 48.78 423.827 49.02 423.867 49.34C423.907 49.66 423.847 49.94 423.687 50.18C419.167 56.5 415.047 60.98 411.327 63.62C409.847 64.66 408.387 65.18 406.947 65.18C405.827 65.18 404.847 64.88 404.007 64.28C403.527 63.92 403.107 63.44 402.747 62.84C402.347 62.24 402.007 61.4 401.727 60.32C401.447 59.24 401.407 57.82 401.607 56.06C401.767 54.3 402.207 52.3 402.927 50.06V50C404.047 46.36 405.407 43.48 407.007 41.36C408.607 39.24 410.047 38.16 411.327 38.12C412.247 38.08 412.847 38.48 413.127 39.32C413.567 40.48 413.047 42.12 411.567 44.24C410.087 46.36 407.907 48.64 405.027 51.08C404.547 52.64 404.207 54.08 404.007 55.4C403.807 56.72 403.727 57.78 403.767 58.58C403.847 59.34 403.987 60.02 404.187 60.62C404.427 61.18 404.627 61.58 404.787 61.82C404.987 62.06 405.187 62.26 405.387 62.42C406.587 63.3 408.127 63.06 410.007 61.7C413.527 59.22 417.447 54.94 421.767 48.86C421.967 48.62 422.227 48.48 422.547 48.44ZM410.907 40.64C409.507 41.52 408.127 43.42 406.767 46.34C409.087 44.02 410.467 42.12 410.907 40.64Z" fill="#C1989F"/>
</svg>
