<svg width="22" height="20" viewBox="0 0 22 20" fill="none" xmlns="http://www.w3.org/2000/svg">
<path d="M21.5064 0.376924C21.1376 0.0674733 20.5582 0.0231965 19.9591 0.261123H19.9582C19.3281 0.511214 2.12397 7.81153 1.42361 8.10979C1.29623 8.15358 0.18371 8.56424 0.298306 9.47897C0.400606 10.3037 1.29475 10.6452 1.40394 10.6847L5.77776 12.1662C6.06794 13.1218 7.13767 16.6474 7.37424 17.4006C7.52179 17.8702 7.76229 18.4871 8.18379 18.6141C8.55364 18.7552 8.92153 18.6263 9.15957 18.4414L11.8336 15.9877L16.1504 19.3181L16.2532 19.379C16.5463 19.5074 16.8272 19.5716 17.0952 19.5716C17.3023 19.5716 17.501 19.5332 17.6908 19.4563C18.3376 19.1936 18.5963 18.5839 18.6233 18.5148L21.8478 1.9344C22.0445 1.04886 21.771 0.598308 21.5064 0.376924ZM9.63517 12.7589L8.15969 16.6513L6.6842 11.7857L17.9963 3.51425L9.63517 12.7589Z" fill="white"/>
</svg>
