<svg width="22" height="22" viewBox="0 0 22 22" fill="none" xmlns="http://www.w3.org/2000/svg">
<path d="M2.05273 11.0782C2.05378 15.538 5.27699 19.3353 9.65473 20.0343V13.6982H7.36882V11.0782H9.65744V9.08373C9.55513 8.13866 9.87596 7.19678 10.5329 6.51352C11.1899 5.83027 12.1149 5.47647 13.057 5.54808C13.7333 5.55907 14.4078 5.61967 15.0753 5.7294V7.95867H13.9364C13.5443 7.907 13.1502 8.03729 12.8649 8.31284C12.5796 8.58839 12.4342 8.97937 12.4696 9.37565V11.0782H14.9663L14.5672 13.6991H12.4696V20.0343C17.204 19.2815 20.524 14.931 20.0243 10.1345C19.5246 5.33809 15.3801 1.77484 10.5934 2.02619C5.80676 2.27754 2.0535 6.25549 2.05273 11.0782Z" fill="white"/>
</svg>
