<svg width="23" height="17" viewBox="0 0 23 17" fill="none" xmlns="http://www.w3.org/2000/svg">
<path d="M19.0419 2.68465C17.1707 1.17885 14.2105 0.923603 14.0838 0.914421C13.8873 0.897894 13.7 1.00807 13.6192 1.18987C13.6118 1.20089 13.5476 1.34963 13.476 1.58101C14.7136 1.79036 16.2341 2.21088 17.6096 3.06478C17.8299 3.20067 17.8979 3.49081 17.762 3.71117C17.672 3.85624 17.5196 3.9352 17.3616 3.9352C17.2772 3.9352 17.1909 3.91133 17.1137 3.86358C14.7485 2.39635 11.7957 2.32289 11.2264 2.32289C10.6572 2.32289 7.7025 2.39635 5.33913 3.86358C5.11877 4.00131 4.82862 3.93336 4.69274 3.713C4.55501 3.49081 4.62295 3.2025 4.84332 3.06478C6.21873 2.21271 7.73922 1.79036 8.97692 1.58285C8.9053 1.34963 8.84103 1.20273 8.83552 1.18987C8.75288 1.00807 8.56741 0.894222 8.36909 0.914421C8.24238 0.923603 5.2822 1.17885 3.38526 2.70485C2.39547 3.62119 0.414062 8.97596 0.414062 13.6054C0.414062 13.688 0.436099 13.767 0.476498 13.8386C1.84274 16.2405 5.57234 16.8685 6.42257 16.8961C6.42624 16.8961 6.43175 16.8961 6.43726 16.8961C6.58784 16.8961 6.72924 16.8245 6.81738 16.7033L7.67679 15.5207C5.35749 14.922 4.17305 13.9047 4.10511 13.8441C3.91045 13.6733 3.89209 13.3758 4.06471 13.1812C4.23549 12.9865 4.53297 12.9682 4.72763 13.1389C4.75517 13.1646 6.93674 15.0157 11.2264 15.0157C15.5235 15.0157 17.705 13.1573 17.7271 13.1389C17.9217 12.97 18.2174 12.9865 18.39 13.183C18.5608 13.3777 18.5424 13.6733 18.3478 13.8441C18.2798 13.9047 17.0954 14.922 14.7761 15.5207L15.6355 16.7033C15.7236 16.8245 15.865 16.8961 16.0156 16.8961C16.0211 16.8961 16.0266 16.8961 16.0303 16.8961C16.8805 16.8685 20.6101 16.2405 21.9764 13.8386C22.0168 13.767 22.0388 13.688 22.0388 13.6054C22.0388 8.97596 20.0574 3.62119 19.0419 2.68465ZM8.17076 11.725C7.26178 11.725 6.5254 10.8839 6.5254 9.84454C6.5254 8.80518 7.26178 7.96413 8.17076 7.96413C9.07975 7.96413 9.81612 8.80518 9.81612 9.84454C9.81612 10.8839 9.07975 11.725 8.17076 11.725ZM14.2821 11.725C13.3731 11.725 12.6367 10.8839 12.6367 9.84454C12.6367 8.80518 13.3731 7.96413 14.2821 7.96413C15.1911 7.96413 15.9275 8.80518 15.9275 9.84454C15.9275 10.8839 15.1911 11.725 14.2821 11.725Z" fill="white"/>
</svg>
