<svg width="22" height="22" viewBox="0 0 22 22" fill="none" xmlns="http://www.w3.org/2000/svg">
<path d="M17.9077 5.77853C18.6799 5.29542 19.2578 4.5347 19.5333 3.63841C18.8076 4.08898 18.0137 4.40637 17.1858 4.57686C16.0379 3.30624 14.2192 2.99703 12.746 3.82201C11.2727 4.64698 10.5096 6.4019 10.8831 8.10616C7.91063 7.95 5.14125 6.48071 3.26409 4.06391C2.28444 5.8321 2.78506 8.09244 4.40815 9.22941C3.82123 9.20966 3.24732 9.04338 2.73428 8.74441C2.73428 8.76064 2.73428 8.77686 2.73428 8.79309C2.73462 10.635 3.97514 12.2215 5.70038 12.5865C5.15598 12.7415 4.58493 12.7643 4.03082 12.6532C4.51601 14.2284 5.90331 15.3075 7.48453 15.3397C6.17492 16.4152 4.5576 16.9985 2.89279 16.9957C2.59771 16.9961 2.30285 16.9784 2.00977 16.9425C3.70034 18.0793 5.66796 18.6827 7.6775 18.6805C10.4732 18.7006 13.16 17.5473 15.1369 15.4785C17.1138 13.4097 18.2157 10.5981 18.1963 7.67255C18.1963 7.50487 18.1925 7.3381 18.1851 7.17222C18.9091 6.62467 19.534 5.94634 20.0304 5.16913C19.3559 5.482 18.6404 5.68741 17.9077 5.77853Z" fill="white"/>
</svg>
