<svg width="22" height="17" viewBox="0 0 22 17" fill="none" xmlns="http://www.w3.org/2000/svg">
<path d="M21.3531 3.56565C21.1532 2.46478 20.2008 1.66308 19.0954 1.4128C17.4413 1.06279 14.3801 0.8125 11.068 0.8125C7.75782 0.8125 4.64757 1.06279 2.99152 1.4128C1.88813 1.66308 0.933699 2.41394 0.733796 3.56565C0.531934 4.81708 0.332031 6.56909 0.332031 8.82166C0.332031 11.0742 0.531934 12.8262 0.782792 14.0777C0.984654 15.1785 1.93713 15.9802 3.04051 16.2305C4.79652 16.5805 7.80682 16.8308 11.1189 16.8308C14.431 16.8308 17.4413 16.5805 19.1973 16.2305C20.3007 15.9802 21.2532 15.2294 21.4551 14.0777C21.655 12.8262 21.9058 11.0234 21.9568 8.82166C21.8549 6.56909 21.604 4.81708 21.3531 3.56565ZM8.35949 12.3257V5.31765L14.48 8.82166L8.35949 12.3257Z" fill="white"/>
</svg>
