<svg width="23" height="24" viewBox="0 0 23 24" fill="none" xmlns="http://www.w3.org/2000/svg">
<path d="M13.0352 21.9642C18.4049 21.9642 22.758 17.5031 22.758 11.9999C22.758 6.49681 18.4049 2.03564 13.0352 2.03564C7.66551 2.03564 3.3125 6.49681 3.3125 11.9999C3.3125 17.5031 7.66551 21.9642 13.0352 21.9642Z" fill="#C1989F"/>
<path d="M10.8728 1.20532C5.06509 1.20532 0.339844 6.04797 0.339844 12C0.339844 17.952 5.06509 22.7946 10.8728 22.7946C16.6805 22.7946 21.4058 17.952 21.4058 12C21.4058 6.04797 16.6805 1.20532 10.8728 1.20532ZM10.8728 21.1339C5.9585 21.1339 1.9603 17.0364 1.9603 12C1.9603 6.96357 5.9585 2.86604 10.8728 2.86604C15.7871 2.86604 19.7853 6.96357 19.7853 12C19.7853 17.0364 15.7871 21.1339 10.8728 21.1339Z" fill="#376489"/>
<path d="M14.5695 8.14713L9.7362 14.0914L7.12187 11.4132C7.04661 11.3361 6.95726 11.2749 6.85893 11.2331C6.7606 11.1914 6.6552 11.1699 6.54877 11.1699C6.44233 11.1699 6.33694 11.1914 6.23861 11.2331C6.14028 11.2749 6.05093 11.3361 5.97567 11.4132C5.90041 11.4903 5.84071 11.5819 5.79998 11.6827C5.75925 11.7835 5.73828 11.8915 5.73828 12.0005C5.73828 12.1096 5.75925 12.2176 5.79998 12.3184C5.84071 12.4192 5.90041 12.5108 5.97567 12.5879L8.79742 15.4797C9.04913 15.7399 9.39591 15.8861 9.75349 15.8861H9.81182C10.191 15.8683 10.5475 15.6879 10.7906 15.389L15.8129 9.2111C15.9504 9.04182 16.0167 8.82348 15.9972 8.60412C15.9776 8.38476 15.8738 8.18234 15.7087 8.0414C15.5435 7.90046 15.3304 7.83253 15.1164 7.85257C14.9024 7.8726 14.7048 7.97896 14.5673 8.14824L14.5695 8.14713Z" fill="#376489"/>
</svg>
