<svg width="11" height="11" viewBox="0 0 11 11" fill="none" xmlns="http://www.w3.org/2000/svg">
<g clip-path="url(#clip0_6541_494)">
<path d="M8.55554 11H2.44444C1.79155 11 1.1777 10.7457 0.715974 10.284C0.25427 9.82234 0 9.20848 0 8.55554V7.9444C0 7.60688 0.273589 7.33327 0.611115 7.33327C0.94864 7.33327 1.22223 7.60688 1.22223 7.9444V8.55554C1.22223 8.88201 1.34938 9.18892 1.58018 9.41975C1.81106 9.6506 2.11797 9.77777 2.44444 9.77777H8.55554C8.88199 9.77777 9.1889 9.6506 9.41975 9.41975C9.6506 9.18888 9.77777 8.88196 9.77777 8.55554V7.9444C9.77777 7.60688 10.0514 7.33327 10.3889 7.33327C10.7264 7.33327 11 7.60688 11 7.9444V8.55554C11 9.20843 10.7457 9.82226 10.284 10.284C9.82228 10.7457 9.20843 11 8.55554 11ZM5.49999 8.55552C5.34041 8.55573 5.18713 8.49332 5.07308 8.38171L5.07304 8.38167L5.07182 8.38047L5.07148 8.38013C5.07114 8.37983 5.07084 8.37951 5.07052 8.37919L5.0699 8.37857C5.06968 8.37834 5.06945 8.37812 5.06922 8.37791L5.06789 8.37659L2.62344 5.9321C2.38479 5.69346 2.38479 5.30652 2.62344 5.06785C2.86208 4.82921 3.24905 4.82919 3.48769 5.06785L4.8889 6.46906V0.611115C4.88887 0.273589 5.16246 0 5.49999 0C5.83751 0 6.11112 0.273589 6.11112 0.611115V6.46904L7.51231 5.06785C7.75093 4.82921 8.13794 4.82921 8.37656 5.06785C8.61521 5.3065 8.61521 5.69346 8.37656 5.9321L5.9321 8.37654L5.93078 8.37787L5.9301 8.37853L5.92948 8.37915C5.92918 8.37949 5.92884 8.37979 5.92854 8.38009L5.92818 8.38043C5.92779 8.38084 5.92739 8.38124 5.92698 8.38162L5.92694 8.38167C5.92021 8.38822 5.9134 8.39458 5.90645 8.40077C5.85656 8.44535 5.79965 8.48138 5.73801 8.5074L5.73742 8.50766C5.73718 8.50774 5.73699 8.50787 5.73675 8.50794C5.6618 8.53946 5.5813 8.55564 5.49999 8.55552Z" fill="white"/>
</g>
<defs>
<clipPath id="clip0_6541_494">
<rect width="11" height="11" fill="white"/>
</clipPath>
</defs>
</svg>
