<svg width="26" height="26" viewBox="0 0 26 26" fill="none" xmlns="http://www.w3.org/2000/svg">
<path d="M6.5 5.20039C6.5 4.48245 7.08206 3.90039 7.8 3.90039H24.7C25.4179 3.90039 26 4.48245 26 5.20039C26 5.91834 25.4179 6.50039 24.7 6.50039H7.8C7.08206 6.50039 6.5 5.91829 6.5 5.20039ZM24.7 11.7004H1.3C0.582055 11.7004 0 12.2825 0 13.0004C0 13.7183 0.582055 14.3004 1.3 14.3004H24.7C25.4179 14.3004 26 13.7183 26 13.0004C26 12.2825 25.4179 11.7004 24.7 11.7004ZM24.7 19.5004H13C12.2821 19.5004 11.7 20.0824 11.7 20.8004C11.7 21.5183 12.2821 22.1004 13 22.1004H24.7C25.4179 22.1004 26 21.5183 26 20.8004C26 20.0824 25.4179 19.5004 24.7 19.5004Z" fill="#376489"/>
</svg>
