<svg width="18" height="19" viewBox="0 0 18 19" fill="none" xmlns="http://www.w3.org/2000/svg">
<g clip-path="url(#clip0_6636_242)">
<path d="M8.99897 0.950195C4.28459 0.950195 0.448975 4.78581 0.448975 9.50019C0.448975 14.2146 4.28459 18.0502 8.99897 18.0502C13.7134 18.0502 17.549 14.2146 17.549 9.50019C17.549 4.78581 13.7134 0.950195 8.99897 0.950195ZM8.99897 3.77043C10.8955 3.77043 12.4372 5.31051 12.4372 7.20861C12.4372 9.10509 10.8955 10.6468 8.99897 10.6468C7.10249 10.6468 5.56079 9.10509 5.56079 7.20879C5.56079 5.31069 7.10249 3.77062 8.99897 3.77062V3.77043ZM8.99897 17.2058C6.68183 17.2058 4.60193 16.1762 3.18821 14.5524L3.39575 13.8605C3.60837 13.1524 4.04352 12.5316 4.63669 12.0902C5.22986 11.6488 5.94947 11.4103 6.68885 11.41H11.3091C12.0484 11.4103 12.768 11.6488 13.3611 12.0902C13.9542 12.5315 14.3894 13.1522 14.602 13.8603L14.8097 14.5523C13.396 16.1764 11.3161 17.2058 8.99897 17.2058Z" fill="#C1989F"/>
</g>
<defs>
<clipPath id="clip0_6636_242">
<rect width="18" height="18" fill="white" transform="translate(0 0.5)"/>
</clipPath>
</defs>
</svg>
