<svg width="22" height="22" viewBox="0 0 22 22" fill="none" xmlns="http://www.w3.org/2000/svg">
<path d="M19.4234 0.109375H2.94742C1.52791 0.109375 0.373047 1.26424 0.373047 2.68375V19.1597C0.373047 20.5793 1.52791 21.7341 2.94742 21.7341H19.4234C20.8429 21.7341 21.9978 20.5793 21.9978 19.1597V2.68375C21.9978 1.26424 20.8429 0.109375 19.4234 0.109375ZM17.367 9.54343C17.2501 9.55424 17.1317 9.56145 17.0117 9.56145C15.6612 9.56145 14.4744 8.86688 13.784 7.81705C13.784 10.5711 13.784 13.7046 13.784 13.7572C13.784 16.1817 11.8182 18.1475 9.39365 18.1475C6.96911 18.1475 5.00332 16.1817 5.00332 13.7572C5.00332 11.3326 6.96911 9.36682 9.39365 9.36682C9.4853 9.36682 9.57489 9.37506 9.66499 9.38073V11.5442C9.57489 11.5334 9.48633 11.5169 9.39365 11.5169C8.15589 11.5169 7.15292 12.5199 7.15292 13.7577C7.15292 14.9954 8.15589 15.9984 9.39365 15.9984C10.6314 15.9984 11.7245 15.0232 11.7245 13.7855C11.7245 13.7366 11.7461 3.69702 11.7461 3.69702H13.8139C14.0085 5.54594 15.5011 7.00509 17.367 7.13896V9.54343Z" fill="white"/>
</svg>
